%TF.GenerationSoftware,KiCad,Pcbnew,10.0.1-10.0.1~ubuntu24.04.1*%
%TF.CreationDate,2026-04-21T16:58:46-07:00*%
%TF.ProjectId,fast_fet_switch,66617374-5f66-4657-945f-737769746368,rev?*%
%TF.SameCoordinates,Original*%
%TF.FileFunction,Copper,L2,Bot*%
%TF.FilePolarity,Positive*%
%FSLAX46Y46*%
G04 Gerber Fmt 4.6, Leading zero omitted, Abs format (unit mm)*
G04 Created by KiCad (PCBNEW 10.0.1-10.0.1~ubuntu24.04.1) date 2026-04-21 16:58:46*
%MOMM*%
%LPD*%
G01*
G04 APERTURE LIST*
G04 Aperture macros list*
%AMRoundRect*
0 Rectangle with rounded corners*
0 $1 Rounding radius*
0 $2 $3 $4 $5 $6 $7 $8 $9 X,Y pos of 4 corners*
0 Add a 4 corners polygon primitive as box body*
4,1,4,$2,$3,$4,$5,$6,$7,$8,$9,$2,$3,0*
0 Add four circle primitives for the rounded corners*
1,1,$1+$1,$2,$3*
1,1,$1+$1,$4,$5*
1,1,$1+$1,$6,$7*
1,1,$1+$1,$8,$9*
0 Add four rect primitives between the rounded corners*
20,1,$1+$1,$2,$3,$4,$5,0*
20,1,$1+$1,$4,$5,$6,$7,0*
20,1,$1+$1,$6,$7,$8,$9,0*
20,1,$1+$1,$8,$9,$2,$3,0*%
G04 Aperture macros list end*
%TA.AperFunction,Conductor*%
%ADD10C,1.500000*%
%TD*%
%TA.AperFunction,ComponentPad*%
%ADD11R,1.700000X1.700000*%
%TD*%
%TA.AperFunction,ComponentPad*%
%ADD12C,1.700000*%
%TD*%
%TA.AperFunction,ComponentPad*%
%ADD13R,1.050000X1.500000*%
%TD*%
%TA.AperFunction,ComponentPad*%
%ADD14O,1.050000X1.500000*%
%TD*%
%TA.AperFunction,ComponentPad*%
%ADD15R,1.905000X2.000000*%
%TD*%
%TA.AperFunction,ComponentPad*%
%ADD16O,1.905000X2.000000*%
%TD*%
%TA.AperFunction,ComponentPad*%
%ADD17C,6.800000*%
%TD*%
%TA.AperFunction,ConnectorPad*%
%ADD18C,10.500000*%
%TD*%
%TA.AperFunction,SMDPad,CuDef*%
%ADD19RoundRect,0.225000X-0.225000X-0.250000X0.225000X-0.250000X0.225000X0.250000X-0.225000X0.250000X0*%
%TD*%
%TA.AperFunction,SMDPad,CuDef*%
%ADD20RoundRect,0.200000X0.200000X0.275000X-0.200000X0.275000X-0.200000X-0.275000X0.200000X-0.275000X0*%
%TD*%
%TA.AperFunction,SMDPad,CuDef*%
%ADD21RoundRect,0.100000X0.637500X0.100000X-0.637500X0.100000X-0.637500X-0.100000X0.637500X-0.100000X0*%
%TD*%
%TA.AperFunction,SMDPad,CuDef*%
%ADD22RoundRect,0.150000X0.512500X0.150000X-0.512500X0.150000X-0.512500X-0.150000X0.512500X-0.150000X0*%
%TD*%
%TA.AperFunction,SMDPad,CuDef*%
%ADD23RoundRect,0.200000X-0.200000X-0.275000X0.200000X-0.275000X0.200000X0.275000X-0.200000X0.275000X0*%
%TD*%
%TA.AperFunction,SMDPad,CuDef*%
%ADD24RoundRect,0.225000X0.225000X0.250000X-0.225000X0.250000X-0.225000X-0.250000X0.225000X-0.250000X0*%
%TD*%
%TA.AperFunction,ViaPad*%
%ADD25C,0.600000*%
%TD*%
%TA.AperFunction,ViaPad*%
%ADD26C,0.800000*%
%TD*%
%TA.AperFunction,ViaPad*%
%ADD27C,1.600000*%
%TD*%
%TA.AperFunction,ViaPad*%
%ADD28C,1.200000*%
%TD*%
%TA.AperFunction,ViaPad*%
%ADD29C,2.000000*%
%TD*%
%TA.AperFunction,ViaPad*%
%ADD30C,1.000000*%
%TD*%
%TA.AperFunction,Conductor*%
%ADD31C,0.200000*%
%TD*%
%TA.AperFunction,Conductor*%
%ADD32C,0.400000*%
%TD*%
%TA.AperFunction,Conductor*%
%ADD33C,1.200000*%
%TD*%
G04 APERTURE END LIST*
%TO.N,Net-(Q1-D)*%
D10*
X119000000Y-108500000D02*
X119000000Y-113500000D01*
X119000000Y-109000000D02*
X117500000Y-113000000D01*
X119125000Y-109000000D02*
X119875000Y-113000000D01*
%TO.N,Net-(Q2-D)*%
X134000000Y-107500000D02*
X134000000Y-112500000D01*
X134000000Y-109000000D02*
X132500000Y-113000000D01*
X134250000Y-109000000D02*
X135000000Y-113000000D01*
%TD*%
D11*
%TO.P,J1,1,Pin_1_1*%
%TO.N,+1V2*%
X115500000Y-100500000D03*
D12*
%TO.P,J1,2,Pin_2_2*%
%TO.N,Net-(J1-Pin_2)*%
X118040000Y-100500000D03*
%TO.P,J1,3,Pin_3_3*%
%TO.N,+1V8*%
X120580000Y-100500000D03*
%TD*%
D13*
%TO.P,Q3,1,D_1*%
%TO.N,Net-(Q3-D)*%
X125730000Y-100360000D03*
D14*
%TO.P,Q3,2,G_2*%
%TO.N,Net-(J2-Pin_2)*%
X127000000Y-100360000D03*
%TO.P,Q3,3,S_3*%
%TO.N,GND*%
X128270000Y-100360000D03*
%TD*%
D11*
%TO.P,J5,1,Pin_1_1*%
%TO.N,GND*%
X126500000Y-111000000D03*
%TD*%
%TO.P,J2,1,Pin_1_1*%
%TO.N,Net-(J2-Pin_1)*%
X132960000Y-101000000D03*
D12*
%TO.P,J2,2,Pin_2_2*%
%TO.N,Net-(J2-Pin_2)*%
X135500000Y-101000000D03*
%TO.P,J2,3,Pin_3_3*%
%TO.N,Net-(J2-Pin_3)*%
X138040000Y-101000000D03*
%TD*%
D15*
%TO.P,Q1,1,G_1*%
%TO.N,Net-(Q1-G)*%
X116420000Y-107500000D03*
D16*
%TO.P,Q1,2,D_2*%
%TO.N,Net-(Q1-D)*%
X118960000Y-107500000D03*
%TO.P,Q1,3,S_3*%
%TO.N,Net-(Q1-S)*%
X121500000Y-107500000D03*
%TD*%
D11*
%TO.P,J3,1,Pin_1_1*%
%TO.N,Net-(J3-Pin_1)*%
X115500000Y-76000000D03*
D12*
%TO.P,J3,2,Pin_2_2*%
%TO.N,Net-(J3-Pin_2)*%
X115500000Y-78540000D03*
%TO.P,J3,3,Pin_3_3*%
%TO.N,Net-(J3-Pin_3)*%
X115500000Y-81080000D03*
%TO.P,J3,4,Pin_4_4*%
%TO.N,Net-(J3-Pin_4)*%
X115500000Y-83620000D03*
%TO.P,J3,5,Pin_5_5*%
%TO.N,Net-(J3-Pin_5)*%
X115500000Y-86160000D03*
%TO.P,J3,6,Pin_6_6*%
%TO.N,Net-(J3-Pin_6)*%
X115500000Y-88700000D03*
%TO.P,J3,7,Pin_7_7*%
%TO.N,Net-(J3-Pin_7)*%
X115500000Y-91240000D03*
%TO.P,J3,8,Pin_8_8*%
%TO.N,Net-(J3-Pin_8)*%
X115500000Y-93780000D03*
%TO.P,J3,9,Pin_9_9*%
%TO.N,GND*%
X115500000Y-96320000D03*
%TD*%
D17*
%TO.P,H2,1,1_1*%
%TO.N,Net-(Q2-D)*%
X134000000Y-118000000D03*
D18*
X134000000Y-118000000D03*
%TD*%
D15*
%TO.P,Q2,1,G_1*%
%TO.N,Net-(Q1-G)*%
X131460000Y-107450000D03*
D16*
%TO.P,Q2,2,D_2*%
%TO.N,Net-(Q2-D)*%
X134000000Y-107450000D03*
%TO.P,Q2,3,S_3*%
%TO.N,Net-(Q1-S)*%
X136540000Y-107450000D03*
%TD*%
D11*
%TO.P,J4,1,Pin_1_1*%
%TO.N,Net-(J4-Pin_1)*%
X135500000Y-98500000D03*
%TD*%
D17*
%TO.P,H1,1,1_1*%
%TO.N,Net-(Q1-D)*%
X119000000Y-118000000D03*
D18*
X119000000Y-118000000D03*
%TD*%
D19*
%TO.P,C2,1*%
%TO.N,+1V8*%
X125725000Y-90000000D03*
%TO.P,C2,2*%
%TO.N,GND*%
X127275000Y-90000000D03*
%TD*%
D20*
%TO.P,R3,1*%
%TO.N,Net-(J2-Pin_3)*%
X137980000Y-95500000D03*
%TO.P,R3,2*%
%TO.N,GND*%
X136330000Y-95500000D03*
%TD*%
D21*
%TO.P,U1,1,A1_1*%
%TO.N,Net-(J3-Pin_1)*%
X125862500Y-77075000D03*
%TO.P,U1,2,VCCA_2*%
%TO.N,Net-(J1-Pin_2)*%
X125862500Y-77725000D03*
%TO.P,U1,3,A2_3*%
%TO.N,Net-(J3-Pin_2)*%
X125862500Y-78375000D03*
%TO.P,U1,4,A3_4*%
%TO.N,Net-(J3-Pin_3)*%
X125862500Y-79025000D03*
%TO.P,U1,5,A4_5*%
%TO.N,Net-(J3-Pin_4)*%
X125862500Y-79675000D03*
%TO.P,U1,6,A5_6*%
%TO.N,Net-(J3-Pin_5)*%
X125862500Y-80325000D03*
%TO.P,U1,7,A6_7*%
%TO.N,Net-(J3-Pin_6)*%
X125862500Y-80975000D03*
%TO.P,U1,8,A7_8*%
%TO.N,Net-(J3-Pin_7)*%
X125862500Y-81625000D03*
%TO.P,U1,9,A8_9*%
%TO.N,Net-(J3-Pin_8)*%
X125862500Y-82275000D03*
%TO.P,U1,10,OE_10*%
%TO.N,Net-(J1-Pin_2)*%
X125862500Y-82925000D03*
%TO.P,U1,11,GND_11*%
%TO.N,GND*%
X120137500Y-82925000D03*
%TO.P,U1,12,B8_12*%
%TO.N,Net-(U1-B8)*%
X120137500Y-82275000D03*
%TO.P,U1,13,B7_13*%
%TO.N,Net-(U1-B7)*%
X120137500Y-81625000D03*
%TO.P,U1,14,B6_14*%
%TO.N,Net-(U1-B6)*%
X120137500Y-80975000D03*
%TO.P,U1,15,B5_15*%
%TO.N,Net-(U1-B5)*%
X120137500Y-80325000D03*
%TO.P,U1,16,B4_16*%
%TO.N,Net-(U1-B4)*%
X120137500Y-79675000D03*
%TO.P,U1,17,B3_17*%
%TO.N,Net-(U1-B3)*%
X120137500Y-79025000D03*
%TO.P,U1,18,B2_18*%
%TO.N,Net-(U1-B2)*%
X120137500Y-78375000D03*
%TO.P,U1,19,VCCB_19*%
%TO.N,+3.3V*%
X120137500Y-77725000D03*
%TO.P,U1,20,B1_20*%
%TO.N,Net-(U1-B1)*%
X120137500Y-77075000D03*
%TD*%
D22*
%TO.P,U5,1,VIN_1*%
%TO.N,+5V*%
X121637500Y-92050000D03*
%TO.P,U5,2,GND_2*%
%TO.N,GND*%
X121637500Y-93000000D03*
%TO.P,U5,3,EN_3*%
%TO.N,+5V*%
X121637500Y-93950000D03*
%TO.P,U5,4,NC_4*%
%TO.N,unconnected-(U5-NC-Pad4)*%
X119362500Y-93950000D03*
%TO.P,U5,5,VOUT_5*%
%TO.N,+1V2*%
X119362500Y-92050000D03*
%TD*%
D23*
%TO.P,R2,1*%
%TO.N,Net-(J2-Pin_1)*%
X131020000Y-97000000D03*
%TO.P,R2,2*%
%TO.N,+3.3V*%
X132670000Y-97000000D03*
%TD*%
D24*
%TO.P,C1,1*%
%TO.N,+1V2*%
X120955000Y-90500000D03*
%TO.P,C1,2*%
%TO.N,GND*%
X119405000Y-90500000D03*
%TD*%
D22*
%TO.P,U2,1,VIN_1*%
%TO.N,+5V*%
X127137500Y-92050000D03*
%TO.P,U2,2,GND_2*%
%TO.N,GND*%
X127137500Y-93000000D03*
%TO.P,U2,3,EN_3*%
%TO.N,+5V*%
X127137500Y-93950000D03*
%TO.P,U2,4,NC_4*%
%TO.N,unconnected-(U2-NC-Pad4)*%
X124862500Y-93950000D03*
%TO.P,U2,5,VOUT_5*%
%TO.N,+1V8*%
X124862500Y-92050000D03*
%TD*%
D25*
%TO.N,Net-(U1-B1)*%
X118500000Y-77100000D03*
%TO.N,Net-(U1-B2)*%
X118500000Y-78000000D03*
%TO.N,Net-(U1-B3)*%
X118400000Y-79516099D03*
%TO.N,Net-(U1-B4)*%
X118300000Y-82000000D03*
%TO.N,Net-(U1-B5)*%
X117500000Y-84000000D03*
%TO.N,Net-(U1-B6)*%
X123000000Y-81500000D03*
%TO.N,Net-(U1-B7)*%
X124000000Y-84000000D03*
X135000000Y-92250250D03*
X127000000Y-87000000D03*
%TO.N,Net-(U1-B8)*%
X123600000Y-85000000D03*
X135000000Y-89710250D03*
X128450000Y-88550000D03*
D26*
%TO.N,+3.3V*%
X135000000Y-81000000D03*
X123000000Y-77812140D03*
X131500000Y-77500000D03*
D25*
X133500000Y-97000000D03*
D27*
%TO.N,GND*%
X135100000Y-94000000D03*
D28*
X130500000Y-85500000D03*
X119000000Y-104900000D03*
X123900000Y-89000000D03*
D26*
X119000000Y-88500000D03*
D27*
X126500000Y-107000000D03*
D28*
X133500000Y-82500000D03*
D27*
X126000000Y-96000000D03*
D26*
X118199999Y-85355699D03*
D27*
X137000000Y-104500000D03*
D29*
X137169500Y-79550250D03*
D30*
X128500000Y-91000000D03*
D28*
X120000000Y-96000000D03*
D26*
%TO.N,+5V*%
X131606500Y-93500000D03*
X121637500Y-93950000D03*
X126729840Y-94000000D03*
D25*
%TO.N,Net-(J1-Pin_2)*%
X129000000Y-83000000D03*
X127400000Y-83000000D03*
%TO.N,Net-(Q1-G)*%
X128500000Y-103500000D03*
%TO.N,Net-(Q3-D)*%
X124640000Y-100360000D03*
%TO.N,Net-(J3-Pin_6)*%
X125900000Y-83625000D03*
X127093497Y-80515229D03*
%TO.N,Net-(J3-Pin_7)*%
X126565687Y-84565687D03*
X127500000Y-81500000D03*
%TD*%
%TO.N,GND*%
D31*
X135100000Y-94000000D02*
X135680000Y-94000000D01*
%TO.N,Net-(U1-B1)*%
X120112500Y-77100000D02*
X120137500Y-77075000D01*
X118500000Y-77100000D02*
X120112500Y-77100000D01*
%TO.N,Net-(U1-B2)*%
X118500000Y-78000000D02*
X118875000Y-78375000D01*
X118875000Y-78375000D02*
X120137500Y-78375000D01*
%TO.N,Net-(U1-B3)*%
X119109278Y-79025000D02*
X120137500Y-79025000D01*
X118618179Y-79516099D02*
X119109278Y-79025000D01*
X118400000Y-79516099D02*
X118618179Y-79516099D01*
%TO.N,Net-(U1-B4)*%
X119325000Y-79675000D02*
X120137500Y-79675000D01*
X118300000Y-82000000D02*
X118300000Y-80700000D01*
X118300000Y-80700000D02*
X119325000Y-79675000D01*
%TO.N,Net-(U1-B5)*%
X118900000Y-82600000D02*
X118900000Y-80665686D01*
X119240686Y-80325000D02*
X120137500Y-80325000D01*
X117500000Y-84000000D02*
X118900000Y-82600000D01*
X118900000Y-80665686D02*
X119240686Y-80325000D01*
%TO.N,Net-(U1-B6)*%
X122898834Y-81500000D02*
X122373834Y-80975000D01*
X122373834Y-80975000D02*
X120137500Y-80975000D01*
X123000000Y-81500000D02*
X122898834Y-81500000D01*
%TO.N,Net-(U1-B7)*%
X133249750Y-90500000D02*
X135000000Y-92250250D01*
X127000000Y-88000000D02*
X129500000Y-90500000D01*
X129500000Y-90500000D02*
X133249750Y-90500000D01*
X127000000Y-87000000D02*
X127000000Y-88000000D01*
X124000000Y-84000000D02*
X121625000Y-81625000D01*
X121625000Y-81625000D02*
X120137500Y-81625000D01*
%TO.N,Net-(U1-B8)*%
X129610250Y-89710250D02*
X135000000Y-89710250D01*
X123600000Y-85000000D02*
X120874999Y-82275000D01*
X128450000Y-88550000D02*
X129610250Y-89710250D01*
X120874999Y-82275000D02*
X120137500Y-82275000D01*
%TO.N,+3.3V*%
X122762140Y-77812140D02*
X122675000Y-77725000D01*
D32*
X135000000Y-81000000D02*
X131500000Y-77500000D01*
D31*
X123000000Y-77812140D02*
X122762140Y-77812140D01*
D32*
X122675000Y-77725000D02*
X120137500Y-77725000D01*
D31*
X133500000Y-97000000D02*
X132670000Y-97000000D01*
%TO.N,GND*%
D32*
X122900000Y-92315444D02*
X122600000Y-92615444D01*
X128500000Y-91000000D02*
X128275000Y-91000000D01*
X122600000Y-92900000D02*
X122500000Y-93000000D01*
X123900000Y-89000000D02*
X123900000Y-89251472D01*
X118425551Y-85355699D02*
X120137500Y-83643750D01*
D31*
X118199999Y-85355699D02*
X118425551Y-85355699D01*
D32*
X119870000Y-89630000D02*
X119870000Y-90490000D01*
X128275000Y-91000000D02*
X127275000Y-90000000D01*
X128500000Y-92500000D02*
X128000000Y-93000000D01*
X128500000Y-91000000D02*
X128500000Y-92500000D01*
X119000000Y-88500000D02*
X120560122Y-88500000D01*
X120500000Y-89000000D02*
X119870000Y-89630000D01*
X122500000Y-93000000D02*
X121637500Y-93000000D01*
X120560122Y-88500000D02*
X121060122Y-89000000D01*
X120137500Y-83643750D02*
X120137500Y-82925000D01*
X122600000Y-92615444D02*
X122600000Y-92900000D01*
X119870000Y-90490000D02*
X119860000Y-90500000D01*
X121060122Y-89000000D02*
X120500000Y-89000000D01*
X123900000Y-89000000D02*
X121060122Y-89000000D01*
X122900000Y-90251472D02*
X122900000Y-92315444D01*
X123900000Y-89251472D02*
X122900000Y-90251472D01*
X128000000Y-93000000D02*
X127137500Y-93000000D01*
%TO.N,+5V*%
X127187500Y-94000000D02*
X127137500Y-93950000D01*
X121143026Y-92050000D02*
X120575000Y-92618026D01*
X131500000Y-93500000D02*
X131000000Y-94000000D01*
X126000000Y-92500000D02*
X126450000Y-92050000D01*
X120575000Y-93575000D02*
X121000000Y-94000000D01*
D31*
X126729840Y-94000000D02*
X126903160Y-94000000D01*
D32*
X121637500Y-92050000D02*
X121143026Y-92050000D01*
D31*
X126953160Y-93950000D02*
X127137500Y-93950000D01*
D32*
X126475001Y-93950000D02*
X126000000Y-93474999D01*
X126000000Y-93474999D02*
X126000000Y-92500000D01*
X131000000Y-94000000D02*
X127187500Y-94000000D01*
X121000000Y-94000000D02*
X121234448Y-94000000D01*
D31*
X121637500Y-93950000D02*
X121284448Y-93950000D01*
D32*
X120575000Y-92618026D02*
X120575000Y-93575000D01*
D31*
X126903160Y-94000000D02*
X126953160Y-93950000D01*
X127137500Y-93950000D02*
X126475001Y-93950000D01*
D32*
X131606500Y-93500000D02*
X131500000Y-93500000D01*
X121234448Y-94000000D02*
X121284448Y-93950000D01*
%TO.N,+1V2*%
X115500000Y-99000000D02*
X115500000Y-100500000D01*
X119362500Y-92050000D02*
X118000000Y-93412500D01*
X120955000Y-90500000D02*
X120912500Y-90500000D01*
X118000000Y-93412500D02*
X118000000Y-96500000D01*
X118000000Y-96500000D02*
X115500000Y-99000000D01*
X120912500Y-90500000D02*
X119362500Y-92050000D01*
%TO.N,Net-(J1-Pin_2)*%
D31*
X127400000Y-83000000D02*
X127325000Y-82925000D01*
D32*
X123200000Y-94300000D02*
X118040000Y-99460000D01*
X125000000Y-89359882D02*
X123500000Y-90859882D01*
X129000000Y-84000000D02*
X125000000Y-88000000D01*
X125000000Y-88000000D02*
X125000000Y-89359882D01*
X123500000Y-92563972D02*
X123200000Y-92863972D01*
X129000000Y-83000000D02*
X129000000Y-84000000D01*
X129000000Y-80000000D02*
X129000000Y-83000000D01*
X123200000Y-92863972D02*
X123200000Y-94300000D01*
X118040000Y-99460000D02*
X118040000Y-100480000D01*
X125862500Y-77725000D02*
X126725000Y-77725000D01*
D31*
X127325000Y-82925000D02*
X125862500Y-82925000D01*
D32*
X123500000Y-90859882D02*
X123500000Y-92563972D01*
D31*
X118040000Y-100480000D02*
X118040000Y-100500000D01*
D32*
X126725000Y-77725000D02*
X129000000Y-80000000D01*
%TO.N,+1V8*%
X120580000Y-98420000D02*
X120580000Y-100500000D01*
X123800000Y-94548528D02*
X123500000Y-94848528D01*
X125725000Y-90000000D02*
X125500000Y-90225000D01*
X125500000Y-90225000D02*
X125500000Y-91412500D01*
X124862500Y-92050000D02*
X123800000Y-93112500D01*
X123800000Y-93112500D02*
X123800000Y-94548528D01*
X123500000Y-94848528D02*
X123500000Y-95500000D01*
X123500000Y-95500000D02*
X120580000Y-98420000D01*
X125500000Y-91412500D02*
X124862500Y-92050000D01*
%TO.N,Net-(Q1-G)*%
D31*
X128500000Y-104490000D02*
X128500000Y-103500000D01*
X131460000Y-107450000D02*
X128500000Y-104490000D01*
%TO.N,Net-(Q3-D)*%
X124640000Y-100360000D02*
X125730000Y-100360000D01*
%TO.N,Net-(J2-Pin_2)*%
X134000000Y-102500000D02*
X128000000Y-102500000D01*
X135500000Y-101000000D02*
X134000000Y-102500000D01*
X127000000Y-100360000D02*
X127000000Y-101500000D01*
X127000000Y-101500000D02*
X128000000Y-102500000D01*
%TO.N,Net-(J2-Pin_1)*%
X132050000Y-98000000D02*
X132960000Y-98910000D01*
X132960000Y-98910000D02*
X132960000Y-101000000D01*
X132020000Y-98000000D02*
X132050000Y-98000000D01*
X131020000Y-97000000D02*
X132020000Y-98000000D01*
%TO.N,Net-(J2-Pin_3)*%
X137475000Y-95500000D02*
X138040000Y-96065000D01*
X138040000Y-96065000D02*
X138040000Y-101000000D01*
%TO.N,Net-(Q1-D)*%
D33*
X118960000Y-107500000D02*
X118960000Y-117960000D01*
X118960000Y-117960000D02*
X119000000Y-118000000D01*
%TO.N,Net-(J3-Pin_1)*%
D31*
X125325000Y-74600000D02*
X116900000Y-74600000D01*
X125862500Y-75137500D02*
X125325000Y-74600000D01*
X116900000Y-74600000D02*
X115500000Y-76000000D01*
X125862500Y-77075000D02*
X125862500Y-75137500D01*
%TO.N,Net-(J3-Pin_2)*%
X116650000Y-76784315D02*
X116650000Y-77150000D01*
X124500000Y-78000000D02*
X124500000Y-76000000D01*
X123500000Y-75000000D02*
X118434315Y-75000000D01*
X124500000Y-76000000D02*
X123500000Y-75000000D01*
X118434315Y-75000000D02*
X116650000Y-76784315D01*
X116650000Y-77150000D02*
X115500000Y-78300000D01*
X124875000Y-78375000D02*
X124500000Y-78000000D01*
X125862500Y-78375000D02*
X124875000Y-78375000D01*
X115500000Y-78300000D02*
X115500000Y-78540000D01*
%TO.N,Net-(J3-Pin_3)*%
X124959313Y-79025000D02*
X124100000Y-78165685D01*
X118500000Y-75500000D02*
X117050000Y-76950000D01*
X125862500Y-79025000D02*
X124959313Y-79025000D01*
X117050000Y-79530000D02*
X115500000Y-81080000D01*
X124100000Y-76600000D02*
X123000000Y-75500000D01*
X124100000Y-78165685D02*
X124100000Y-76600000D01*
X123000000Y-75500000D02*
X118500000Y-75500000D01*
X117050000Y-76950000D02*
X117050000Y-79530000D01*
%TO.N,Net-(J3-Pin_4)*%
X122500000Y-76000000D02*
X123700000Y-77200000D01*
X115500000Y-83500000D02*
X117500000Y-81500000D01*
X118631371Y-76000000D02*
X122500000Y-76000000D01*
X123700000Y-78331370D02*
X125043628Y-79675000D01*
X123700000Y-77200000D02*
X123700000Y-78331370D01*
X115500000Y-83620000D02*
X115500000Y-83500000D01*
X117500000Y-77131371D02*
X118631371Y-76000000D01*
X125043628Y-79675000D02*
X125862500Y-79675000D01*
X117500000Y-81500000D02*
X117500000Y-77131371D01*
%TO.N,Net-(J3-Pin_5)*%
X124825000Y-84675000D02*
X124825000Y-80625001D01*
X115500000Y-86160000D02*
X123340000Y-86160000D01*
X125125001Y-80325000D02*
X125862500Y-80325000D01*
X124825000Y-80625001D02*
X125125001Y-80325000D01*
X123340000Y-86160000D02*
X124825000Y-84675000D01*
%TO.N,Net-(J3-Pin_6)*%
X125900000Y-84165686D02*
X123505686Y-86560000D01*
X125900000Y-83625000D02*
X125900000Y-84165686D01*
X127093497Y-80515229D02*
X126633726Y-80975000D01*
X123505686Y-86560000D02*
X117640000Y-86560000D01*
X117640000Y-86560000D02*
X115500000Y-88700000D01*
X126633726Y-80975000D02*
X125862500Y-80975000D01*
%TO.N,Net-(J3-Pin_7)*%
X126434313Y-84565687D02*
X124000000Y-87000000D01*
X118500000Y-87000000D02*
X117000000Y-88500000D01*
X124000000Y-87000000D02*
X118500000Y-87000000D01*
X127500000Y-81500000D02*
X125987500Y-81500000D01*
X117000000Y-88500000D02*
X117000000Y-89740000D01*
X117000000Y-89740000D02*
X115500000Y-91240000D01*
X126565687Y-84565687D02*
X126434313Y-84565687D01*
X125987500Y-81500000D02*
X125862500Y-81625000D01*
%TO.N,Net-(J3-Pin_8)*%
X128000000Y-84000000D02*
X128000000Y-82500000D01*
X117500000Y-91780000D02*
X117500000Y-89000000D01*
X127775000Y-82275000D02*
X125862500Y-82275000D01*
X128000000Y-82500000D02*
X127775000Y-82275000D01*
X115500000Y-93780000D02*
X117500000Y-91780000D01*
X119000000Y-87500000D02*
X124500000Y-87500000D01*
X117500000Y-89000000D02*
X119000000Y-87500000D01*
X124500000Y-87500000D02*
X128000000Y-84000000D01*
%TO.N,Net-(Q2-D)*%
X136000000Y-116000000D02*
X134000000Y-118000000D01*
%TD*%
%TA.AperFunction,Conductor*%
%TO.N,GND*%
G36*
X138942539Y-74520185D02*
G01*
X138988294Y-74572989D01*
X138999500Y-74624500D01*
X138999500Y-94781761D01*
X138979815Y-94848800D01*
X138927011Y-94894555D01*
X138857853Y-94904499D01*
X138794297Y-94875474D01*
X138769383Y-94845911D01*
X138735472Y-94789815D01*
X138735470Y-94789813D01*
X138735469Y-94789811D01*
X138615188Y-94669530D01*
X138599079Y-94659792D01*
X138469606Y-94581522D01*
X138307196Y-94530914D01*
X138307194Y-94530913D01*
X138307192Y-94530913D01*
X138257778Y-94526423D01*
X138236616Y-94524500D01*
X137723384Y-94524500D01*
X137704145Y-94526248D01*
X137652807Y-94530913D01*
X137490393Y-94581522D01*
X137344811Y-94669530D01*
X137344810Y-94669531D01*
X137242327Y-94772015D01*
X137181004Y-94805500D01*
X137111312Y-94800516D01*
X137066965Y-94772015D01*
X136964877Y-94669927D01*
X136819395Y-94581980D01*
X136819396Y-94581980D01*
X136657105Y-94531409D01*
X136657106Y-94531409D01*
X136586572Y-94525000D01*
X136580000Y-94525000D01*
X136580000Y-96474999D01*
X136586581Y-96474999D01*
X136657102Y-96468591D01*
X136657107Y-96468590D01*
X136819396Y-96418018D01*
X136964877Y-96330072D01*
X136964878Y-96330071D01*
X137066963Y-96227985D01*
X137071480Y-96225518D01*
X137074304Y-96221212D01*
X137101835Y-96208942D01*
X137128286Y-96194499D01*
X137133421Y-96194866D01*
X137138123Y-96192771D01*
X137167914Y-96197333D01*
X137197977Y-96199483D01*
X137203473Y-96202778D01*
X137207187Y-96203347D01*
X137223504Y-96214787D01*
X137236703Y-96222700D01*
X137239600Y-96225257D01*
X137344815Y-96330472D01*
X137389196Y-96357301D01*
X137397558Y-96364682D01*
X137410470Y-96385185D01*
X137426837Y-96403056D01*
X137429817Y-96415903D01*
X137434792Y-96423803D01*
X137434672Y-96436835D01*
X137439500Y-96457647D01*
X137439500Y-99714281D01*
X137419815Y-99781320D01*
X137371795Y-99824765D01*
X137332185Y-99844947D01*
X137332184Y-99844948D01*
X137160213Y-99969890D01*
X137009890Y-100120213D01*
X136884949Y-100292182D01*
X136880484Y-100300946D01*
X136832509Y-100351742D01*
X136764688Y-100368536D01*
X136698553Y-100345998D01*
X136659516Y-100300946D01*
X136655050Y-100292182D01*
X136530109Y-100120213D01*
X136445703Y-100035807D01*
X136412218Y-99974484D01*
X136417202Y-99904792D01*
X136459074Y-99848859D01*
X136490051Y-99831944D01*
X136592328Y-99793797D01*
X136592327Y-99793797D01*
X136592331Y-99793796D01*
X136707546Y-99707546D01*
X136793796Y-99592331D01*
X136844091Y-99457483D01*
X136850500Y-99397873D01*
X136850499Y-97602128D01*
X136844091Y-97542517D01*
X136804090Y-97435270D01*
X136793797Y-97407671D01*
X136793793Y-97407664D01*
X136707547Y-97292455D01*
X136707544Y-97292452D01*
X136592335Y-97206206D01*
X136592328Y-97206202D01*
X136457482Y-97155908D01*
X136457483Y-97155908D01*
X136397883Y-97149501D01*
X136397881Y-97149500D01*
X136397873Y-97149500D01*
X136397864Y-97149500D01*
X134602129Y-97149500D01*
X134602123Y-97149501D01*
X134542514Y-97155909D01*
X134467832Y-97183763D01*
X134398140Y-97188747D01*
X134336817Y-97155261D01*
X134303333Y-97093937D01*
X134300500Y-97067581D01*
X134300500Y-96921155D01*
X134300499Y-96921153D01*
X134287661Y-96856611D01*
X134269737Y-96766503D01*
X134243985Y-96704332D01*
X134209397Y-96620827D01*
X134209390Y-96620814D01*
X134121789Y-96489711D01*
X134121786Y-96489707D01*
X134010292Y-96378213D01*
X134010288Y-96378210D01*
X133879185Y-96290609D01*
X133879172Y-96290602D01*
X133733501Y-96230264D01*
X133733489Y-96230261D01*
X133578845Y-96199500D01*
X133578842Y-96199500D01*
X133421158Y-96199500D01*
X133421151Y-96199500D01*
X133414426Y-96200838D01*
X133344835Y-96194608D01*
X133311954Y-96173058D01*
X133311094Y-96174157D01*
X133305188Y-96169530D01*
X133159606Y-96081522D01*
X132997196Y-96030914D01*
X132997194Y-96030913D01*
X132997192Y-96030913D01*
X132947778Y-96026423D01*
X132926616Y-96024500D01*
X132413384Y-96024500D01*
X132394145Y-96026248D01*
X132342807Y-96030913D01*
X132180393Y-96081522D01*
X132034811Y-96169530D01*
X132034810Y-96169531D01*
X131932681Y-96271661D01*
X131871358Y-96305146D01*
X131801666Y-96300162D01*
X131757319Y-96271661D01*
X131655188Y-96169530D01*
X131509606Y-96081522D01*
X131347196Y-96030914D01*
X131347194Y-96030913D01*
X131347192Y-96030913D01*
X131297778Y-96026423D01*
X131276616Y-96024500D01*
X130763384Y-96024500D01*
X130744145Y-96026248D01*
X130692807Y-96030913D01*
X130530393Y-96081522D01*
X130384811Y-96169530D01*
X130264530Y-96289811D01*
X130176522Y-96435393D01*
X130125913Y-96597807D01*
X130119500Y-96668386D01*
X130119500Y-97331613D01*
X130125913Y-97402192D01*
X130125913Y-97402194D01*
X130125914Y-97402196D01*
X130176522Y-97564606D01*
X130264047Y-97709390D01*
X130264530Y-97710188D01*
X130384811Y-97830469D01*
X130384813Y-97830470D01*
X130384815Y-97830472D01*
X130530394Y-97918478D01*
X130692804Y-97969086D01*
X130763384Y-97975500D01*
X131094902Y-97975500D01*
X131161941Y-97995185D01*
X131182583Y-98011819D01*
X131651284Y-98480520D01*
X131708127Y-98513338D01*
X131733809Y-98533044D01*
X132323181Y-99122416D01*
X132356666Y-99183739D01*
X132359500Y-99210097D01*
X132359500Y-99525500D01*
X132339815Y-99592539D01*
X132287011Y-99638294D01*
X132235501Y-99649500D01*
X132062130Y-99649500D01*
X132062123Y-99649501D01*
X132002516Y-99655908D01*
X131867671Y-99706202D01*
X131867664Y-99706206D01*
X131752455Y-99792452D01*
X131752452Y-99792455D01*
X131666206Y-99907664D01*
X131666202Y-99907671D01*
X131615908Y-100042517D01*
X131614037Y-100059925D01*
X131609500Y-100102127D01*
X131609500Y-100981789D01*
X131609501Y-101775500D01*
X131589816Y-101842539D01*
X131537013Y-101888294D01*
X131485501Y-101899500D01*
X128300098Y-101899500D01*
X128233059Y-101879815D01*
X128212417Y-101863181D01*
X128056319Y-101707083D01*
X128022834Y-101645760D01*
X128020000Y-101619402D01*
X128020000Y-100725865D01*
X128020067Y-100721789D01*
X128020400Y-100711638D01*
X128025500Y-100686003D01*
X128025500Y-100645830D01*
X128039745Y-100660075D01*
X128125255Y-100709444D01*
X128220630Y-100735000D01*
X128319370Y-100735000D01*
X128414745Y-100709444D01*
X128500255Y-100660075D01*
X128520000Y-100640330D01*
X128520000Y-101580352D01*
X128568974Y-101570612D01*
X128568983Y-101570609D01*
X128755513Y-101493347D01*
X128755526Y-101493340D01*
X128923399Y-101381170D01*
X128923403Y-101381167D01*
X129066167Y-101238403D01*
X129066170Y-101238399D01*
X129178340Y-101070526D01*
X129178347Y-101070513D01*
X129255609Y-100883983D01*
X129255612Y-100883974D01*
X129294999Y-100685958D01*
X129295000Y-100685955D01*
X129295000Y-100610000D01*
X128550330Y-100610000D01*
X128570075Y-100590255D01*
X128619444Y-100504745D01*
X128645000Y-100409370D01*
X128645000Y-100310630D01*
X128619444Y-100215255D01*
X128570075Y-100129745D01*
X128550330Y-100110000D01*
X129295000Y-100110000D01*
X129295000Y-100034045D01*
X129294999Y-100034041D01*
X129255612Y-99836025D01*
X129255609Y-99836016D01*
X129178347Y-99649486D01*
X129178340Y-99649473D01*
X129066170Y-99481600D01*
X129066167Y-99481596D01*
X128923403Y-99338832D01*
X128923399Y-99338829D01*
X128755526Y-99226659D01*
X128755513Y-99226652D01*
X128568984Y-99149390D01*
X128568977Y-99149388D01*
X128520000Y-99139645D01*
X128520000Y-100079670D01*
X128500255Y-100059925D01*
X128414745Y-100010556D01*
X128319370Y-99985000D01*
X128220630Y-99985000D01*
X128125255Y-100010556D01*
X128039745Y-100059925D01*
X128025500Y-100074170D01*
X128025500Y-100033997D01*
X128022383Y-100018326D01*
X128020000Y-99994134D01*
X128020000Y-99139646D01*
X128019999Y-99139645D01*
X127971022Y-99149388D01*
X127971015Y-99149390D01*
X127784481Y-99226654D01*
X127784479Y-99226655D01*
X127704337Y-99280204D01*
X127637660Y-99301081D01*
X127570280Y-99282596D01*
X127566558Y-99280204D01*
X127485754Y-99226212D01*
X127299127Y-99148909D01*
X127299119Y-99148907D01*
X127101007Y-99109500D01*
X127101003Y-99109500D01*
X126898997Y-99109500D01*
X126898992Y-99109500D01*
X126700880Y-99148907D01*
X126700868Y-99148910D01*
X126620198Y-99182325D01*
X126550729Y-99189794D01*
X126505342Y-99170036D01*
X126505114Y-99170454D01*
X126500447Y-99167905D01*
X126498432Y-99167028D01*
X126497331Y-99166204D01*
X126497330Y-99166203D01*
X126497328Y-99166202D01*
X126362482Y-99115908D01*
X126362483Y-99115908D01*
X126302883Y-99109501D01*
X126302881Y-99109500D01*
X126302873Y-99109500D01*
X126302864Y-99109500D01*
X125157129Y-99109500D01*
X125157123Y-99109501D01*
X125097516Y-99115908D01*
X124962671Y-99166202D01*
X124962664Y-99166206D01*
X124847455Y-99252452D01*
X124847452Y-99252455D01*
X124761206Y-99367664D01*
X124761202Y-99367671D01*
X124719742Y-99478833D01*
X124677871Y-99534767D01*
X124612407Y-99559184D01*
X124603560Y-99559500D01*
X124561155Y-99559500D01*
X124406510Y-99590261D01*
X124406498Y-99590264D01*
X124260827Y-99650602D01*
X124260814Y-99650609D01*
X124129711Y-99738210D01*
X124129707Y-99738213D01*
X124018213Y-99849707D01*
X124018210Y-99849711D01*
X123930609Y-99980814D01*
X123930602Y-99980827D01*
X123870264Y-100126498D01*
X123870261Y-100126510D01*
X123839500Y-100281153D01*
X123839500Y-100438846D01*
X123870261Y-100593489D01*
X123870264Y-100593501D01*
X123930602Y-100739172D01*
X123930609Y-100739185D01*
X124018210Y-100870288D01*
X124018213Y-100870292D01*
X124129707Y-100981786D01*
X124129711Y-100981789D01*
X124260814Y-101069390D01*
X124260827Y-101069397D01*
X124406498Y-101129735D01*
X124406503Y-101129737D01*
X124561153Y-101160499D01*
X124561156Y-101160500D01*
X124561158Y-101160500D01*
X124603560Y-101160500D01*
X124670599Y-101180185D01*
X124716354Y-101232989D01*
X124719742Y-101241167D01*
X124761202Y-101352328D01*
X124761206Y-101352335D01*
X124847452Y-101467544D01*
X124847455Y-101467547D01*
X124962664Y-101553793D01*
X124962671Y-101553797D01*
X125097517Y-101604091D01*
X125097516Y-101604091D01*
X125104444Y-101604835D01*
X125157127Y-101610500D01*
X126302872Y-101610499D01*
X126306042Y-101610329D01*
X126374039Y-101626395D01*
X126422556Y-101676673D01*
X126432456Y-101702054D01*
X126433928Y-101707546D01*
X126440423Y-101731785D01*
X126466608Y-101777139D01*
X126519480Y-101868716D01*
X126519482Y-101868718D01*
X126638349Y-101987585D01*
X126638354Y-101987589D01*
X127631284Y-102980520D01*
X127712581Y-103027456D01*
X127760796Y-103078022D01*
X127774020Y-103146629D01*
X127765142Y-103182295D01*
X127730264Y-103266498D01*
X127730261Y-103266510D01*
X127699500Y-103421153D01*
X127699500Y-103578846D01*
X127730261Y-103733489D01*
X127730264Y-103733501D01*
X127790602Y-103879172D01*
X127790609Y-103879185D01*
X127878602Y-104010874D01*
X127899480Y-104077551D01*
X127899500Y-104079765D01*
X127899500Y-104403330D01*
X127899499Y-104403348D01*
X127899499Y-104569054D01*
X127899498Y-104569054D01*
X127940423Y-104721785D01*
X127969358Y-104771900D01*
X127969359Y-104771904D01*
X127969360Y-104771904D01*
X128019479Y-104858714D01*
X128019481Y-104858717D01*
X128138349Y-104977585D01*
X128138355Y-104977590D01*
X129970681Y-106809916D01*
X130004166Y-106871239D01*
X130007000Y-106897597D01*
X130007000Y-108497870D01*
X130007001Y-108497876D01*
X130013408Y-108557483D01*
X130063702Y-108692328D01*
X130063706Y-108692335D01*
X130145569Y-108801689D01*
X130169987Y-108867153D01*
X130155136Y-108935426D01*
X130105731Y-108984832D01*
X130046303Y-109000000D01*
X122354430Y-109000000D01*
X122287391Y-108980315D01*
X122241636Y-108927511D01*
X122231692Y-108858353D01*
X122260717Y-108794797D01*
X122281544Y-108775682D01*
X122327451Y-108742328D01*
X122446566Y-108655786D01*
X122608286Y-108494066D01*
X122742717Y-108309038D01*
X122846548Y-108105258D01*
X122917222Y-107887745D01*
X122953000Y-107661854D01*
X122953000Y-107338146D01*
X122917222Y-107112255D01*
X122917221Y-107112251D01*
X122917221Y-107112250D01*
X122846549Y-106894744D01*
X122803327Y-106809916D01*
X122742717Y-106690962D01*
X122608286Y-106505934D01*
X122446566Y-106344214D01*
X122261538Y-106209783D01*
X122257379Y-106207664D01*
X122057755Y-106105950D01*
X121840248Y-106035278D01*
X121670826Y-106008444D01*
X121614354Y-105999500D01*
X121385646Y-105999500D01*
X121310349Y-106011426D01*
X121159753Y-106035278D01*
X121159750Y-106035278D01*
X120942244Y-106105950D01*
X120738461Y-106209783D01*
X120672550Y-106257671D01*
X120553434Y-106344214D01*
X120553432Y-106344216D01*
X120553431Y-106344216D01*
X120391715Y-106505932D01*
X120330318Y-106590438D01*
X120274987Y-106633103D01*
X120205374Y-106639082D01*
X120143579Y-106606476D01*
X120129682Y-106590438D01*
X120105007Y-106556476D01*
X120068286Y-106505934D01*
X119906566Y-106344214D01*
X119721538Y-106209783D01*
X119717379Y-106207664D01*
X119517755Y-106105950D01*
X119300248Y-106035278D01*
X119130826Y-106008444D01*
X119074354Y-105999500D01*
X118845646Y-105999500D01*
X118770349Y-106011426D01*
X118619753Y-106035278D01*
X118619750Y-106035278D01*
X118402244Y-106105950D01*
X118198461Y-106209783D01*
X118015759Y-106342525D01*
X117949952Y-106366005D01*
X117881898Y-106350180D01*
X117833203Y-106300074D01*
X117826690Y-106285538D01*
X117816296Y-106257669D01*
X117816293Y-106257664D01*
X117730047Y-106142455D01*
X117730044Y-106142452D01*
X117614835Y-106056206D01*
X117614828Y-106056202D01*
X117479982Y-106005908D01*
X117479983Y-106005908D01*
X117420383Y-105999501D01*
X117420381Y-105999500D01*
X117420373Y-105999500D01*
X117420364Y-105999500D01*
X115419629Y-105999500D01*
X115419623Y-105999501D01*
X115360016Y-106005908D01*
X115225171Y-106056202D01*
X115225164Y-106056206D01*
X115109955Y-106142452D01*
X115109952Y-106142455D01*
X115023706Y-106257664D01*
X115023702Y-106257671D01*
X114973408Y-106392517D01*
X114967001Y-106452116D01*
X114967000Y-106452135D01*
X114967000Y-108547870D01*
X114967001Y-108547876D01*
X114973408Y-108607483D01*
X115023702Y-108742328D01*
X115023704Y-108742331D01*
X115059551Y-108790217D01*
X115068139Y-108801688D01*
X115092557Y-108867153D01*
X115077706Y-108935426D01*
X115028301Y-108984832D01*
X114968873Y-109000000D01*
X114124500Y-109000000D01*
X114057461Y-108980315D01*
X114011706Y-108927511D01*
X114000500Y-108876000D01*
X114000500Y-101690102D01*
X114020185Y-101623063D01*
X114072989Y-101577308D01*
X114142147Y-101567364D01*
X114205703Y-101596389D01*
X114223762Y-101615786D01*
X114292454Y-101707546D01*
X114324833Y-101731785D01*
X114407664Y-101793793D01*
X114407671Y-101793797D01*
X114542517Y-101844091D01*
X114542516Y-101844091D01*
X114549444Y-101844835D01*
X114602127Y-101850500D01*
X116397872Y-101850499D01*
X116457483Y-101844091D01*
X116592331Y-101793796D01*
X116707546Y-101707546D01*
X116793796Y-101592331D01*
X116842810Y-101460916D01*
X116884681Y-101404984D01*
X116950145Y-101380566D01*
X117018418Y-101395417D01*
X117046673Y-101416569D01*
X117160213Y-101530109D01*
X117332179Y-101655048D01*
X117332181Y-101655049D01*
X117332184Y-101655051D01*
X117521588Y-101751557D01*
X117723757Y-101817246D01*
X117933713Y-101850500D01*
X117933714Y-101850500D01*
X118146286Y-101850500D01*
X118146287Y-101850500D01*
X118356243Y-101817246D01*
X118558412Y-101751557D01*
X118747816Y-101655051D01*
X118809137Y-101610499D01*
X118919786Y-101530109D01*
X118919788Y-101530106D01*
X118919792Y-101530104D01*
X119070104Y-101379792D01*
X119070106Y-101379788D01*
X119070109Y-101379786D01*
X119195048Y-101207820D01*
X119195047Y-101207820D01*
X119195051Y-101207816D01*
X119199514Y-101199054D01*
X119247488Y-101148259D01*
X119315308Y-101131463D01*
X119381444Y-101153999D01*
X119420486Y-101199056D01*
X119424951Y-101207820D01*
X119549890Y-101379786D01*
X119700213Y-101530109D01*
X119872179Y-101655048D01*
X119872181Y-101655049D01*
X119872184Y-101655051D01*
X120061588Y-101751557D01*
X120263757Y-101817246D01*
X120473713Y-101850500D01*
X120473714Y-101850500D01*
X120686286Y-101850500D01*
X120686287Y-101850500D01*
X120896243Y-101817246D01*
X121098412Y-101751557D01*
X121287816Y-101655051D01*
X121349137Y-101610499D01*
X121459786Y-101530109D01*
X121459788Y-101530106D01*
X121459792Y-101530104D01*
X121610104Y-101379792D01*
X121610106Y-101379788D01*
X121610109Y-101379786D01*
X121735048Y-101207820D01*
X121735047Y-101207820D01*
X121735051Y-101207816D01*
X121831557Y-101018412D01*
X121897246Y-100816243D01*
X121930500Y-100606287D01*
X121930500Y-100393713D01*
X121897246Y-100183757D01*
X121831557Y-99981588D01*
X121735051Y-99792184D01*
X121735049Y-99792181D01*
X121735048Y-99792179D01*
X121610109Y-99620213D01*
X121459786Y-99469890D01*
X121331615Y-99376770D01*
X121288949Y-99321441D01*
X121280500Y-99276452D01*
X121280500Y-98761519D01*
X121300185Y-98694480D01*
X121316819Y-98673838D01*
X124044112Y-95946545D01*
X124044114Y-95946543D01*
X124120775Y-95831811D01*
X124120870Y-95831582D01*
X135430001Y-95831582D01*
X135436408Y-95902102D01*
X135436409Y-95902107D01*
X135486981Y-96064396D01*
X135574927Y-96209877D01*
X135695122Y-96330072D01*
X135840604Y-96418019D01*
X135840603Y-96418019D01*
X136002894Y-96468590D01*
X136002893Y-96468590D01*
X136073408Y-96474998D01*
X136073426Y-96474999D01*
X136079999Y-96474998D01*
X136080000Y-96474998D01*
X136080000Y-95750000D01*
X135430001Y-95750000D01*
X135430001Y-95831582D01*
X124120870Y-95831582D01*
X124125668Y-95820000D01*
X124173578Y-95704332D01*
X124173580Y-95704328D01*
X124191858Y-95612439D01*
X124200500Y-95568996D01*
X124200500Y-95190047D01*
X124206848Y-95168427D01*
X135430000Y-95168427D01*
X135430000Y-95250000D01*
X136080000Y-95250000D01*
X136080000Y-94525000D01*
X136079999Y-94524999D01*
X136073436Y-94525000D01*
X136073417Y-94525001D01*
X136002897Y-94531408D01*
X136002892Y-94531409D01*
X135840603Y-94581981D01*
X135695122Y-94669927D01*
X135574927Y-94790122D01*
X135486980Y-94935604D01*
X135436409Y-95097893D01*
X135430000Y-95168427D01*
X124206848Y-95168427D01*
X124209144Y-95160606D01*
X124215668Y-95130620D01*
X124219422Y-95125604D01*
X124220185Y-95123008D01*
X124236819Y-95102366D01*
X124241939Y-95097246D01*
X124344114Y-94995071D01*
X124420775Y-94880339D01*
X124442849Y-94827048D01*
X124486689Y-94772644D01*
X124552983Y-94750579D01*
X124557410Y-94750500D01*
X125440686Y-94750500D01*
X125440694Y-94750500D01*
X125477569Y-94747598D01*
X125477571Y-94747597D01*
X125477573Y-94747597D01*
X125519191Y-94735505D01*
X125635398Y-94701744D01*
X125776865Y-94618081D01*
X125839637Y-94555308D01*
X125900958Y-94521825D01*
X125970650Y-94526809D01*
X126026584Y-94568680D01*
X126030354Y-94574008D01*
X126030378Y-94574038D01*
X126155801Y-94699461D01*
X126155805Y-94699464D01*
X126303286Y-94798009D01*
X126303299Y-94798016D01*
X126413812Y-94843791D01*
X126467174Y-94865894D01*
X126467176Y-94865894D01*
X126467181Y-94865896D01*
X126641144Y-94900499D01*
X126641147Y-94900500D01*
X126641149Y-94900500D01*
X126818533Y-94900500D01*
X126818534Y-94900499D01*
X126919907Y-94880335D01*
X126992498Y-94865896D01*
X126992501Y-94865894D01*
X126992506Y-94865894D01*
X127156387Y-94798013D01*
X127156390Y-94798010D01*
X127156392Y-94798010D01*
X127196218Y-94771399D01*
X127262895Y-94750520D01*
X127265110Y-94750500D01*
X127715686Y-94750500D01*
X127715694Y-94750500D01*
X127752569Y-94747598D01*
X127752571Y-94747597D01*
X127752573Y-94747597D01*
X127897733Y-94705424D01*
X127932328Y-94700500D01*
X131068996Y-94700500D01*
X131192961Y-94675841D01*
X131204328Y-94673580D01*
X131268069Y-94647177D01*
X131331807Y-94620777D01*
X131331808Y-94620776D01*
X131331811Y-94620775D01*
X131446543Y-94544114D01*
X131553839Y-94436817D01*
X131615160Y-94403334D01*
X131641519Y-94400500D01*
X131695193Y-94400500D01*
X131695194Y-94400499D01*
X131753182Y-94388964D01*
X131869158Y-94365896D01*
X131869161Y-94365894D01*
X131869166Y-94365894D01*
X132033047Y-94298013D01*
X132180535Y-94199464D01*
X132305964Y-94074035D01*
X132404513Y-93926547D01*
X132472394Y-93762666D01*
X132507000Y-93588691D01*
X132507000Y-93411309D01*
X132507000Y-93411306D01*
X132506999Y-93411304D01*
X132472396Y-93237341D01*
X132472393Y-93237332D01*
X132404516Y-93073459D01*
X132404509Y-93073446D01*
X132305964Y-92925965D01*
X132305961Y-92925961D01*
X132180538Y-92800538D01*
X132180534Y-92800535D01*
X132033053Y-92701990D01*
X132033040Y-92701983D01*
X131869167Y-92634106D01*
X131869158Y-92634103D01*
X131695194Y-92599500D01*
X131695191Y-92599500D01*
X131517809Y-92599500D01*
X131517806Y-92599500D01*
X131343841Y-92634103D01*
X131343832Y-92634106D01*
X131179959Y-92701983D01*
X131179946Y-92701990D01*
X131032465Y-92800535D01*
X131032461Y-92800538D01*
X130907038Y-92925961D01*
X130907035Y-92925965D01*
X130808490Y-93073446D01*
X130808483Y-93073459D01*
X130746563Y-93222952D01*
X130702723Y-93277356D01*
X130636429Y-93299421D01*
X130632002Y-93299500D01*
X128397292Y-93299500D01*
X128330253Y-93279815D01*
X128306237Y-93259672D01*
X128297296Y-93250000D01*
X128031815Y-93250000D01*
X127968694Y-93232732D01*
X127927165Y-93208172D01*
X127910398Y-93198256D01*
X127910397Y-93198255D01*
X127910396Y-93198255D01*
X127910393Y-93198254D01*
X127752573Y-93152402D01*
X127752567Y-93152401D01*
X127715701Y-93149500D01*
X127715694Y-93149500D01*
X127261500Y-93149500D01*
X127252814Y-93146949D01*
X127243853Y-93148238D01*
X127219812Y-93137259D01*
X127194461Y-93129815D01*
X127188533Y-93122974D01*
X127180297Y-93119213D01*
X127166007Y-93096978D01*
X127148706Y-93077011D01*
X127146418Y-93066496D01*
X127142523Y-93060435D01*
X127137500Y-93025500D01*
X127137500Y-92974500D01*
X127157185Y-92907461D01*
X127209989Y-92861706D01*
X127261500Y-92850500D01*
X127715686Y-92850500D01*
X127715694Y-92850500D01*
X127752569Y-92847598D01*
X127752571Y-92847597D01*
X127752573Y-92847597D01*
X127794191Y-92835505D01*
X127910398Y-92801744D01*
X127968694Y-92767268D01*
X128031815Y-92750000D01*
X128297295Y-92750000D01*
X128297295Y-92749998D01*
X128297100Y-92747511D01*
X128297099Y-92747505D01*
X128251283Y-92589806D01*
X128251281Y-92589801D01*
X128250578Y-92588612D01*
X128250310Y-92587558D01*
X128248184Y-92582644D01*
X128248976Y-92582300D01*
X128233395Y-92520888D01*
X128249009Y-92467714D01*
X128248646Y-92467557D01*
X128249920Y-92464612D01*
X128250579Y-92462369D01*
X128251742Y-92460401D01*
X128251744Y-92460398D01*
X128297598Y-92302569D01*
X128300500Y-92265694D01*
X128300500Y-91834306D01*
X128297598Y-91797431D01*
X128292018Y-91778226D01*
X128251745Y-91639606D01*
X128251744Y-91639603D01*
X128251744Y-91639602D01*
X128168081Y-91498135D01*
X128168079Y-91498133D01*
X128168076Y-91498129D01*
X128051870Y-91381923D01*
X128051862Y-91381917D01*
X127919294Y-91303517D01*
X127910398Y-91298256D01*
X127910397Y-91298255D01*
X127910396Y-91298255D01*
X127910393Y-91298254D01*
X127752573Y-91252402D01*
X127752567Y-91252401D01*
X127715701Y-91249500D01*
X127715694Y-91249500D01*
X126559306Y-91249500D01*
X126559298Y-91249500D01*
X126522432Y-91252401D01*
X126522426Y-91252402D01*
X126359095Y-91299855D01*
X126332841Y-91299780D01*
X126306853Y-91303517D01*
X126298456Y-91299682D01*
X126289225Y-91299656D01*
X126267177Y-91285397D01*
X126243297Y-91274492D01*
X126238306Y-91266727D01*
X126230555Y-91261714D01*
X126219716Y-91237798D01*
X126205523Y-91215714D01*
X126203579Y-91202194D01*
X126201712Y-91198075D01*
X126200500Y-91180779D01*
X126200500Y-91017105D01*
X126220185Y-90950066D01*
X126259398Y-90911570D01*
X126403044Y-90822968D01*
X126412668Y-90813343D01*
X126473987Y-90779856D01*
X126543679Y-90784835D01*
X126588034Y-90813339D01*
X126597267Y-90822572D01*
X126597271Y-90822575D01*
X126741507Y-90911542D01*
X126741518Y-90911547D01*
X126902393Y-90964855D01*
X127001683Y-90974999D01*
X127025000Y-90974998D01*
X127025000Y-90124000D01*
X127044685Y-90056961D01*
X127097489Y-90011206D01*
X127149000Y-90000000D01*
X127401000Y-90000000D01*
X127468039Y-90019685D01*
X127513794Y-90072489D01*
X127525000Y-90124000D01*
X127525000Y-90974999D01*
X127548308Y-90974999D01*
X127548322Y-90974998D01*
X127647607Y-90964855D01*
X127808481Y-90911547D01*
X127808492Y-90911542D01*
X127952728Y-90822575D01*
X127952732Y-90822572D01*
X128072572Y-90702732D01*
X128072575Y-90702728D01*
X128161542Y-90558492D01*
X128161547Y-90558481D01*
X128214856Y-90397606D01*
X128219249Y-90354603D01*
X128245644Y-90289911D01*
X128302825Y-90249759D01*
X128372636Y-90246895D01*
X128430288Y-90279523D01*
X129015139Y-90864374D01*
X129015149Y-90864385D01*
X129019479Y-90868715D01*
X129019480Y-90868716D01*
X129131284Y-90980520D01*
X129131286Y-90980521D01*
X129179254Y-91008215D01*
X129179253Y-91008215D01*
X129179256Y-91008216D01*
X129268209Y-91059574D01*
X129268210Y-91059575D01*
X129268212Y-91059575D01*
X129268215Y-91059577D01*
X129420943Y-91100501D01*
X129420946Y-91100501D01*
X129586653Y-91100501D01*
X129586669Y-91100500D01*
X132949653Y-91100500D01*
X133016692Y-91120185D01*
X133037334Y-91136819D01*
X134165425Y-92264910D01*
X134198910Y-92326233D01*
X134199361Y-92328399D01*
X134230261Y-92483741D01*
X134230264Y-92483751D01*
X134290602Y-92629422D01*
X134290609Y-92629435D01*
X134378210Y-92760538D01*
X134378213Y-92760542D01*
X134489707Y-92872036D01*
X134489711Y-92872039D01*
X134620814Y-92959640D01*
X134620827Y-92959647D01*
X134766498Y-93019985D01*
X134766503Y-93019987D01*
X134914874Y-93049500D01*
X134921153Y-93050749D01*
X134921156Y-93050750D01*
X134921158Y-93050750D01*
X135078844Y-93050750D01*
X135078845Y-93050749D01*
X135233497Y-93019987D01*
X135379179Y-92959644D01*
X135510289Y-92872039D01*
X135621789Y-92760539D01*
X135709394Y-92629429D01*
X135769737Y-92483747D01*
X135800500Y-92329092D01*
X135800500Y-92171408D01*
X135800500Y-92171405D01*
X135800499Y-92171403D01*
X135769738Y-92016760D01*
X135769737Y-92016753D01*
X135767679Y-92011785D01*
X135709397Y-91871077D01*
X135709390Y-91871064D01*
X135621789Y-91739961D01*
X135621786Y-91739957D01*
X135510292Y-91628463D01*
X135510288Y-91628460D01*
X135379185Y-91540859D01*
X135379172Y-91540852D01*
X135233501Y-91480514D01*
X135233491Y-91480511D01*
X135078149Y-91449611D01*
X135016238Y-91417226D01*
X135014660Y-91415675D01*
X134121416Y-90522431D01*
X134110803Y-90502994D01*
X134096303Y-90486261D01*
X134094386Y-90472929D01*
X134087931Y-90461108D01*
X134089510Y-90439021D01*
X134086359Y-90417103D01*
X134091954Y-90404851D01*
X134092915Y-90391416D01*
X134106185Y-90373689D01*
X134115384Y-90353547D01*
X134126715Y-90346264D01*
X134134787Y-90335483D01*
X134155532Y-90327745D01*
X134174162Y-90315773D01*
X134196080Y-90312621D01*
X134200251Y-90311066D01*
X134209097Y-90310750D01*
X134420234Y-90310750D01*
X134487273Y-90330435D01*
X134489125Y-90331648D01*
X134620814Y-90419640D01*
X134620827Y-90419647D01*
X134749463Y-90472929D01*
X134766503Y-90479987D01*
X134921153Y-90510749D01*
X134921156Y-90510750D01*
X134921158Y-90510750D01*
X135078844Y-90510750D01*
X135078845Y-90510749D01*
X135233497Y-90479987D01*
X135379179Y-90419644D01*
X135510289Y-90332039D01*
X135621789Y-90220539D01*
X135709394Y-90089429D01*
X135769737Y-89943747D01*
X135800500Y-89789092D01*
X135800500Y-89631408D01*
X135800500Y-89631405D01*
X135800499Y-89631403D01*
X135781352Y-89535144D01*
X135769737Y-89476753D01*
X135755053Y-89441303D01*
X135709397Y-89331077D01*
X135709390Y-89331064D01*
X135621789Y-89199961D01*
X135621786Y-89199957D01*
X135510292Y-89088463D01*
X135510288Y-89088460D01*
X135379185Y-89000859D01*
X135379172Y-89000852D01*
X135233501Y-88940514D01*
X135233489Y-88940511D01*
X135078845Y-88909750D01*
X135078842Y-88909750D01*
X134921158Y-88909750D01*
X134921155Y-88909750D01*
X134766510Y-88940511D01*
X134766498Y-88940514D01*
X134620827Y-89000852D01*
X134620814Y-89000859D01*
X134489125Y-89088852D01*
X134422447Y-89109730D01*
X134420234Y-89109750D01*
X129910347Y-89109750D01*
X129843308Y-89090065D01*
X129822666Y-89073431D01*
X129284574Y-88535339D01*
X129251089Y-88474016D01*
X129250638Y-88471849D01*
X129219738Y-88316510D01*
X129219737Y-88316503D01*
X129202331Y-88274480D01*
X129159397Y-88170827D01*
X129159390Y-88170814D01*
X129071789Y-88039711D01*
X129071786Y-88039707D01*
X128960292Y-87928213D01*
X128960288Y-87928210D01*
X128829185Y-87840609D01*
X128829172Y-87840602D01*
X128683501Y-87780264D01*
X128683489Y-87780261D01*
X128528845Y-87749500D01*
X128528842Y-87749500D01*
X128371158Y-87749500D01*
X128371155Y-87749500D01*
X128216510Y-87780261D01*
X128216498Y-87780264D01*
X128070827Y-87840602D01*
X128070814Y-87840609D01*
X127939715Y-87928207D01*
X127937467Y-87930053D01*
X127936058Y-87930651D01*
X127934646Y-87931595D01*
X127934582Y-87931500D01*
X127933109Y-87933469D01*
X127902875Y-87944745D01*
X127873158Y-87957368D01*
X127870331Y-87956884D01*
X127867645Y-87957886D01*
X127836112Y-87951026D01*
X127804290Y-87945579D01*
X127801320Y-87943457D01*
X127799372Y-87943034D01*
X127771118Y-87921883D01*
X127636819Y-87787584D01*
X127603334Y-87726261D01*
X127600500Y-87699903D01*
X127600500Y-87579765D01*
X127620185Y-87512726D01*
X127621398Y-87510874D01*
X127709390Y-87379185D01*
X127709390Y-87379184D01*
X127709394Y-87379179D01*
X127769737Y-87233497D01*
X127800500Y-87078842D01*
X127800500Y-86921158D01*
X127800500Y-86921155D01*
X127800499Y-86921153D01*
X127789890Y-86867820D01*
X127769737Y-86766503D01*
X127733249Y-86678412D01*
X127709397Y-86620827D01*
X127709390Y-86620814D01*
X127629923Y-86501883D01*
X127609045Y-86435205D01*
X127627530Y-86367825D01*
X127645340Y-86345315D01*
X129544114Y-84446543D01*
X129620775Y-84331811D01*
X129673580Y-84204329D01*
X129684184Y-84151018D01*
X129700500Y-84068995D01*
X129700500Y-83425316D01*
X129709939Y-83377864D01*
X129746082Y-83290606D01*
X129769737Y-83233497D01*
X129800500Y-83078842D01*
X129800500Y-82921158D01*
X129800500Y-82921155D01*
X129800499Y-82921153D01*
X129769738Y-82766510D01*
X129769737Y-82766503D01*
X129765642Y-82756616D01*
X129709939Y-82622136D01*
X129700500Y-82574684D01*
X129700500Y-79931009D01*
X129700500Y-79931007D01*
X129700452Y-79930768D01*
X129673580Y-79795672D01*
X129653623Y-79747491D01*
X129620777Y-79668192D01*
X129544112Y-79553454D01*
X127401962Y-77411304D01*
X130599500Y-77411304D01*
X130599500Y-77588695D01*
X130634103Y-77762658D01*
X130634106Y-77762667D01*
X130701983Y-77926540D01*
X130701990Y-77926553D01*
X130800535Y-78074034D01*
X130800538Y-78074038D01*
X130925961Y-78199461D01*
X130925965Y-78199464D01*
X131073446Y-78298009D01*
X131073459Y-78298016D01*
X131237332Y-78365893D01*
X131237334Y-78365894D01*
X131372590Y-78392798D01*
X131434497Y-78425181D01*
X131436076Y-78426733D01*
X134073265Y-81063921D01*
X134106750Y-81125244D01*
X134107201Y-81127410D01*
X134134104Y-81262660D01*
X134134107Y-81262670D01*
X134201983Y-81426540D01*
X134201990Y-81426553D01*
X134300535Y-81574034D01*
X134300538Y-81574038D01*
X134425961Y-81699461D01*
X134425965Y-81699464D01*
X134573446Y-81798009D01*
X134573459Y-81798016D01*
X134696363Y-81848923D01*
X134737334Y-81865894D01*
X134737336Y-81865894D01*
X134737341Y-81865896D01*
X134911304Y-81900499D01*
X134911307Y-81900500D01*
X134911309Y-81900500D01*
X135088693Y-81900500D01*
X135088694Y-81900499D01*
X135146682Y-81888964D01*
X135262658Y-81865896D01*
X135262661Y-81865894D01*
X135262666Y-81865894D01*
X135426547Y-81798013D01*
X135574035Y-81699464D01*
X135699464Y-81574035D01*
X135798013Y-81426547D01*
X135865894Y-81262666D01*
X135900500Y-81088691D01*
X135900500Y-80911309D01*
X135900500Y-80911306D01*
X135900499Y-80911304D01*
X135865896Y-80737341D01*
X135865893Y-80737332D01*
X135862965Y-80730264D01*
X135830983Y-80653050D01*
X135798016Y-80573459D01*
X135798009Y-80573446D01*
X135699464Y-80425965D01*
X135699461Y-80425961D01*
X135574038Y-80300538D01*
X135574034Y-80300535D01*
X135426553Y-80201990D01*
X135426540Y-80201983D01*
X135262670Y-80134107D01*
X135262660Y-80134104D01*
X135127410Y-80107201D01*
X135065499Y-80074816D01*
X135063921Y-80073265D01*
X132426733Y-77436076D01*
X132393248Y-77374753D01*
X132392827Y-77372738D01*
X132365894Y-77237334D01*
X132318562Y-77123063D01*
X132298016Y-77073459D01*
X132298009Y-77073446D01*
X132199464Y-76925965D01*
X132199461Y-76925961D01*
X132074038Y-76800538D01*
X132074034Y-76800535D01*
X131926553Y-76701990D01*
X131926540Y-76701983D01*
X131762667Y-76634106D01*
X131762658Y-76634103D01*
X131588694Y-76599500D01*
X131588691Y-76599500D01*
X131411309Y-76599500D01*
X131411306Y-76599500D01*
X131237341Y-76634103D01*
X131237332Y-76634106D01*
X131073459Y-76701983D01*
X131073446Y-76701990D01*
X130925965Y-76800535D01*
X130925961Y-76800538D01*
X130800538Y-76925961D01*
X130800535Y-76925965D01*
X130701990Y-77073446D01*
X130701983Y-77073459D01*
X130634106Y-77237332D01*
X130634103Y-77237341D01*
X130599500Y-77411304D01*
X127401962Y-77411304D01*
X127171546Y-77180888D01*
X127155607Y-77170238D01*
X127110803Y-77116625D01*
X127100499Y-77067136D01*
X127100499Y-76935636D01*
X127085046Y-76818246D01*
X127085044Y-76818241D01*
X127085044Y-76818238D01*
X127024536Y-76672159D01*
X126928282Y-76546718D01*
X126802841Y-76450464D01*
X126656762Y-76389956D01*
X126643126Y-76388160D01*
X126570813Y-76378640D01*
X126506917Y-76350373D01*
X126468447Y-76292048D01*
X126463000Y-76255701D01*
X126463000Y-75226560D01*
X126463001Y-75226547D01*
X126463001Y-75058445D01*
X126463001Y-75058443D01*
X126422077Y-74905715D01*
X126343020Y-74768784D01*
X126286417Y-74712181D01*
X126252932Y-74650858D01*
X126257916Y-74581166D01*
X126299788Y-74525233D01*
X126365252Y-74500816D01*
X126374098Y-74500500D01*
X138875500Y-74500500D01*
X138942539Y-74520185D01*
G37*
%TD.AperFunction*%
%TA.AperFunction,Conductor*%
G36*
X136841444Y-101653999D02*
G01*
X136880486Y-101699056D01*
X136884951Y-101707820D01*
X137009890Y-101879786D01*
X137160213Y-102030109D01*
X137332179Y-102155048D01*
X137332181Y-102155049D01*
X137332184Y-102155051D01*
X137521588Y-102251557D01*
X137723757Y-102317246D01*
X137933713Y-102350500D01*
X137933714Y-102350500D01*
X138146286Y-102350500D01*
X138146287Y-102350500D01*
X138356243Y-102317246D01*
X138558412Y-102251557D01*
X138747816Y-102155051D01*
X138781250Y-102130759D01*
X138802615Y-102115238D01*
X138868421Y-102091758D01*
X138936475Y-102107584D01*
X138985170Y-102157689D01*
X138999500Y-102215556D01*
X138999500Y-108876000D01*
X138979815Y-108943039D01*
X138927011Y-108988794D01*
X138875500Y-109000000D01*
X137308183Y-109000000D01*
X137241144Y-108980315D01*
X137195389Y-108927511D01*
X137185445Y-108858353D01*
X137214470Y-108794797D01*
X137251888Y-108765515D01*
X137255771Y-108763536D01*
X137301538Y-108740217D01*
X137486566Y-108605786D01*
X137648286Y-108444066D01*
X137782717Y-108259038D01*
X137886548Y-108055258D01*
X137957222Y-107837745D01*
X137993000Y-107611854D01*
X137993000Y-107288146D01*
X137957222Y-107062255D01*
X137957221Y-107062251D01*
X137957221Y-107062250D01*
X137886549Y-106844744D01*
X137835476Y-106744507D01*
X137782717Y-106640962D01*
X137648286Y-106455934D01*
X137486566Y-106294214D01*
X137301538Y-106159783D01*
X137195885Y-106105950D01*
X137097755Y-106055950D01*
X136880248Y-105985278D01*
X136694812Y-105955908D01*
X136654354Y-105949500D01*
X136425646Y-105949500D01*
X136385188Y-105955908D01*
X136199753Y-105985278D01*
X136199750Y-105985278D01*
X135982244Y-106055950D01*
X135778461Y-106159783D01*
X135709643Y-106209783D01*
X135593434Y-106294214D01*
X135593432Y-106294216D01*
X135593431Y-106294216D01*
X135431715Y-106455932D01*
X135370318Y-106540438D01*
X135314987Y-106583103D01*
X135245374Y-106589082D01*
X135183579Y-106556476D01*
X135169682Y-106540438D01*
X135129148Y-106484648D01*
X135108286Y-106455934D01*
X134946566Y-106294214D01*
X134761538Y-106159783D01*
X134655885Y-106105950D01*
X134557755Y-106055950D01*
X134340248Y-105985278D01*
X134154812Y-105955908D01*
X134114354Y-105949500D01*
X133885646Y-105949500D01*
X133845188Y-105955908D01*
X133659753Y-105985278D01*
X133659750Y-105985278D01*
X133442244Y-106055950D01*
X133238461Y-106159783D01*
X133169643Y-106209783D01*
X133065376Y-106285538D01*
X133055759Y-106292525D01*
X132989952Y-106316005D01*
X132921898Y-106300180D01*
X132873203Y-106250074D01*
X132866690Y-106235538D01*
X132856296Y-106207669D01*
X132856293Y-106207664D01*
X132770047Y-106092455D01*
X132770044Y-106092452D01*
X132654835Y-106006206D01*
X132654828Y-106006202D01*
X132519982Y-105955908D01*
X132519983Y-105955908D01*
X132460383Y-105949501D01*
X132460381Y-105949500D01*
X132460373Y-105949500D01*
X132460365Y-105949500D01*
X130860097Y-105949500D01*
X130793058Y-105929815D01*
X130772416Y-105913181D01*
X129136819Y-104277584D01*
X129122115Y-104250656D01*
X129105523Y-104224838D01*
X129104631Y-104218637D01*
X129103334Y-104216261D01*
X129100500Y-104189903D01*
X129100500Y-104079765D01*
X129120185Y-104012726D01*
X129121398Y-104010874D01*
X129209390Y-103879185D01*
X129209390Y-103879184D01*
X129209394Y-103879179D01*
X129269737Y-103733497D01*
X129300500Y-103578842D01*
X129300500Y-103421158D01*
X129300500Y-103421155D01*
X129300499Y-103421153D01*
X129269738Y-103266510D01*
X129269737Y-103266503D01*
X129269732Y-103266492D01*
X129267969Y-103260676D01*
X129270720Y-103259841D01*
X129264497Y-103202641D01*
X129295691Y-103140122D01*
X129355734Y-103104392D01*
X129386555Y-103100500D01*
X133913331Y-103100500D01*
X133913347Y-103100501D01*
X133920943Y-103100501D01*
X134079054Y-103100501D01*
X134079057Y-103100501D01*
X134231785Y-103059577D01*
X134281904Y-103030639D01*
X134368716Y-102980520D01*
X134480520Y-102868716D01*
X134480520Y-102868714D01*
X134490728Y-102858507D01*
X134490730Y-102858504D01*
X135015478Y-102333755D01*
X135076799Y-102300272D01*
X135141473Y-102303506D01*
X135183757Y-102317246D01*
X135393713Y-102350500D01*
X135393714Y-102350500D01*
X135606286Y-102350500D01*
X135606287Y-102350500D01*
X135816243Y-102317246D01*
X136018412Y-102251557D01*
X136207816Y-102155051D01*
X136294932Y-102091758D01*
X136379786Y-102030109D01*
X136379788Y-102030106D01*
X136379792Y-102030104D01*
X136530104Y-101879792D01*
X136530106Y-101879788D01*
X136530109Y-101879786D01*
X136655048Y-101707820D01*
X136655047Y-101707820D01*
X136655051Y-101707816D01*
X136659514Y-101699054D01*
X136707488Y-101648259D01*
X136775308Y-101631463D01*
X136841444Y-101653999D01*
G37*
%TD.AperFunction*%
%TA.AperFunction,Conductor*%
G36*
X120495477Y-94501982D02*
G01*
X120539825Y-94530483D01*
X120553454Y-94544112D01*
X120668192Y-94620777D01*
X120785894Y-94669530D01*
X120795672Y-94673580D01*
X120807043Y-94675841D01*
X120845970Y-94690725D01*
X120864602Y-94701744D01*
X120864604Y-94701744D01*
X120864605Y-94701745D01*
X121022426Y-94747597D01*
X121022429Y-94747597D01*
X121022431Y-94747598D01*
X121059306Y-94750500D01*
X121192293Y-94750500D01*
X121197014Y-94751322D01*
X121199638Y-94750718D01*
X121218673Y-94755094D01*
X121234214Y-94757801D01*
X121236996Y-94758800D01*
X121374834Y-94815894D01*
X121422108Y-94825297D01*
X121430787Y-94828415D01*
X121451855Y-94843791D01*
X121474967Y-94855881D01*
X121479623Y-94864057D01*
X121487224Y-94869605D01*
X121496635Y-94893931D01*
X121509542Y-94916596D01*
X121509038Y-94925991D01*
X121512434Y-94934768D01*
X121507198Y-94960322D01*
X121505803Y-94986366D01*
X121499964Y-94995630D01*
X121498411Y-95003216D01*
X121489309Y-95012541D01*
X121476547Y-95032795D01*
X117495888Y-99013453D01*
X117495887Y-99013454D01*
X117419222Y-99128192D01*
X117366420Y-99255669D01*
X117366419Y-99255672D01*
X117360912Y-99283358D01*
X117328525Y-99345268D01*
X117312180Y-99359481D01*
X117160215Y-99469889D01*
X117046673Y-99583431D01*
X116985350Y-99616915D01*
X116915658Y-99611931D01*
X116859725Y-99570059D01*
X116842810Y-99539082D01*
X116793797Y-99407671D01*
X116793793Y-99407664D01*
X116707547Y-99292455D01*
X116707544Y-99292452D01*
X116592335Y-99206206D01*
X116592330Y-99206203D01*
X116548871Y-99189994D01*
X116492938Y-99148122D01*
X116468521Y-99082658D01*
X116483373Y-99014385D01*
X116504520Y-98986135D01*
X118544114Y-96946543D01*
X118620775Y-96831811D01*
X118625668Y-96820000D01*
X118673578Y-96704332D01*
X118673580Y-96704328D01*
X118694769Y-96597807D01*
X118700500Y-96568996D01*
X118700500Y-94874500D01*
X118720185Y-94807461D01*
X118772989Y-94761706D01*
X118824500Y-94750500D01*
X119940686Y-94750500D01*
X119940694Y-94750500D01*
X119977569Y-94747598D01*
X119977571Y-94747597D01*
X119977573Y-94747597D01*
X120019191Y-94735505D01*
X120135398Y-94701744D01*
X120276865Y-94618081D01*
X120364464Y-94530481D01*
X120425785Y-94496998D01*
X120495477Y-94501982D01*
G37*
%TD.AperFunction*%
%TA.AperFunction,Conductor*%
G36*
X115034075Y-96512993D02*
G01*
X115099901Y-96627007D01*
X115192993Y-96720099D01*
X115307007Y-96785925D01*
X115370590Y-96802962D01*
X114738282Y-97435269D01*
X114738282Y-97435270D01*
X114792449Y-97474624D01*
X114981782Y-97571095D01*
X115183870Y-97636757D01*
X115393754Y-97670000D01*
X115539980Y-97670000D01*
X115607019Y-97689685D01*
X115652774Y-97742489D01*
X115662718Y-97811647D01*
X115633693Y-97875203D01*
X115627661Y-97881681D01*
X114955890Y-98553451D01*
X114955887Y-98553454D01*
X114917332Y-98611157D01*
X114908532Y-98624328D01*
X114893878Y-98646258D01*
X114879225Y-98668188D01*
X114879221Y-98668195D01*
X114826421Y-98795667D01*
X114826418Y-98795677D01*
X114799500Y-98931004D01*
X114799500Y-99025500D01*
X114779815Y-99092539D01*
X114727011Y-99138294D01*
X114675502Y-99149500D01*
X114602130Y-99149500D01*
X114602123Y-99149501D01*
X114542516Y-99155908D01*
X114407671Y-99206202D01*
X114407664Y-99206206D01*
X114292455Y-99292452D01*
X114292452Y-99292455D01*
X114223766Y-99384208D01*
X114167832Y-99426079D01*
X114098141Y-99431063D01*
X114036818Y-99397577D01*
X114003334Y-99336254D01*
X114000500Y-99309897D01*
X114000500Y-96856611D01*
X114020185Y-96789572D01*
X114072989Y-96743817D01*
X114142147Y-96733873D01*
X114205703Y-96762898D01*
X114242432Y-96818294D01*
X114248906Y-96838221D01*
X114345375Y-97027550D01*
X114384728Y-97081716D01*
X115017037Y-96449408D01*
X115034075Y-96512993D01*
G37*
%TD.AperFunction*%
%TA.AperFunction,Conductor*%
G36*
X117303263Y-92928484D02*
G01*
X117359196Y-92970356D01*
X117383613Y-93035820D01*
X117374490Y-93092118D01*
X117326421Y-93208167D01*
X117326418Y-93208179D01*
X117306063Y-93310513D01*
X117306063Y-93310516D01*
X117299500Y-93343506D01*
X117299500Y-96158480D01*
X117279815Y-96225519D01*
X117263181Y-96246161D01*
X117061681Y-96447661D01*
X117000358Y-96481146D01*
X116930666Y-96476162D01*
X116874733Y-96434290D01*
X116850316Y-96368826D01*
X116850000Y-96359980D01*
X116850000Y-96213753D01*
X116816757Y-96003872D01*
X116816757Y-96003869D01*
X116751095Y-95801782D01*
X116654624Y-95612449D01*
X116615270Y-95558282D01*
X116615269Y-95558282D01*
X115982962Y-96190590D01*
X115965925Y-96127007D01*
X115900099Y-96012993D01*
X115807007Y-95919901D01*
X115692993Y-95854075D01*
X115629409Y-95837037D01*
X116261716Y-95204728D01*
X116207547Y-95165373D01*
X116207547Y-95165372D01*
X116198500Y-95160763D01*
X116147706Y-95112788D01*
X116130912Y-95044966D01*
X116153451Y-94978832D01*
X116198508Y-94939793D01*
X116207816Y-94935051D01*
X116297895Y-94869605D01*
X116379786Y-94810109D01*
X116379788Y-94810106D01*
X116379792Y-94810104D01*
X116530104Y-94659792D01*
X116530106Y-94659788D01*
X116530109Y-94659786D01*
X116655048Y-94487820D01*
X116655047Y-94487820D01*
X116655051Y-94487816D01*
X116751557Y-94298412D01*
X116817246Y-94096243D01*
X116850500Y-93886287D01*
X116850500Y-93673713D01*
X116817246Y-93463757D01*
X116803506Y-93421473D01*
X116801512Y-93351635D01*
X116833755Y-93295478D01*
X117172250Y-92956983D01*
X117233571Y-92923500D01*
X117303263Y-92928484D01*
G37*
%TD.AperFunction*%
%TA.AperFunction,Conductor*%
G36*
X114205703Y-94224513D02*
G01*
X114242430Y-94279906D01*
X114248314Y-94298016D01*
X114248444Y-94298414D01*
X114344951Y-94487820D01*
X114469890Y-94659786D01*
X114620213Y-94810109D01*
X114792179Y-94935048D01*
X114792181Y-94935049D01*
X114792184Y-94935051D01*
X114801493Y-94939794D01*
X114852290Y-94987766D01*
X114869087Y-95055587D01*
X114846552Y-95121722D01*
X114801505Y-95160760D01*
X114792446Y-95165376D01*
X114792440Y-95165380D01*
X114738282Y-95204727D01*
X114738282Y-95204728D01*
X115370591Y-95837037D01*
X115307007Y-95854075D01*
X115192993Y-95919901D01*
X115099901Y-96012993D01*
X115034075Y-96127007D01*
X115017037Y-96190591D01*
X114384728Y-95558282D01*
X114384727Y-95558282D01*
X114345380Y-95612439D01*
X114248904Y-95801782D01*
X114242431Y-95821706D01*
X114202994Y-95879381D01*
X114138635Y-95906580D01*
X114069789Y-95894665D01*
X114018313Y-95847421D01*
X114000500Y-95783388D01*
X114000500Y-94318226D01*
X114020185Y-94251187D01*
X114072989Y-94205432D01*
X114142147Y-94195488D01*
X114205703Y-94224513D01*
G37*
%TD.AperFunction*%
%TA.AperFunction,Conductor*%
G36*
X124242539Y-88120185D02*
G01*
X124288294Y-88172989D01*
X124299500Y-88224500D01*
X124299500Y-89018362D01*
X124279815Y-89085401D01*
X124263181Y-89106043D01*
X122955888Y-90413335D01*
X122955887Y-90413336D01*
X122879222Y-90528074D01*
X122826421Y-90655549D01*
X122826418Y-90655561D01*
X122804434Y-90766084D01*
X122804434Y-90766088D01*
X122799500Y-90790889D01*
X122799500Y-91330191D01*
X122779815Y-91397230D01*
X122727011Y-91442985D01*
X122657853Y-91452929D01*
X122594297Y-91423904D01*
X122587819Y-91417872D01*
X122551870Y-91381923D01*
X122551862Y-91381917D01*
X122419294Y-91303517D01*
X122410398Y-91298256D01*
X122410397Y-91298255D01*
X122410396Y-91298255D01*
X122410393Y-91298254D01*
X122252573Y-91252402D01*
X122252567Y-91252401D01*
X122215701Y-91249500D01*
X122215694Y-91249500D01*
X121946489Y-91249500D01*
X121879450Y-91229815D01*
X121833695Y-91177011D01*
X121823751Y-91107853D01*
X121839160Y-91065343D01*
X121838949Y-91065245D01*
X121840059Y-91062864D01*
X121840952Y-91060401D01*
X121841999Y-91058703D01*
X121842003Y-91058697D01*
X121895349Y-90897708D01*
X121905500Y-90798345D01*
X121905499Y-90201656D01*
X121897566Y-90124000D01*
X121895349Y-90102292D01*
X121895348Y-90102289D01*
X121861453Y-90000000D01*
X121842003Y-89941303D01*
X121841999Y-89941297D01*
X121841998Y-89941294D01*
X121752970Y-89796959D01*
X121752967Y-89796955D01*
X121633044Y-89677032D01*
X121633040Y-89677029D01*
X121488705Y-89588001D01*
X121488699Y-89587998D01*
X121488697Y-89587997D01*
X121463918Y-89579786D01*
X121327709Y-89534651D01*
X121228346Y-89524500D01*
X120681662Y-89524500D01*
X120681644Y-89524501D01*
X120582292Y-89534650D01*
X120582289Y-89534651D01*
X120421305Y-89587996D01*
X120421294Y-89588001D01*
X120276959Y-89677029D01*
X120276953Y-89677033D01*
X120267324Y-89686663D01*
X120206000Y-89720146D01*
X120136308Y-89715159D01*
X120091965Y-89686660D01*
X120082732Y-89677427D01*
X120082728Y-89677424D01*
X119938492Y-89588457D01*
X119938481Y-89588452D01*
X119777606Y-89535144D01*
X119678322Y-89525000D01*
X119655000Y-89525000D01*
X119655000Y-90376000D01*
X119635315Y-90443039D01*
X119582511Y-90488794D01*
X119531000Y-90500000D01*
X119405000Y-90500000D01*
X119405000Y-90626000D01*
X119385315Y-90693039D01*
X119332511Y-90738794D01*
X119281000Y-90750000D01*
X118455001Y-90750000D01*
X118455001Y-90798322D01*
X118465144Y-90897607D01*
X118518452Y-91058481D01*
X118518457Y-91058492D01*
X118579513Y-91157478D01*
X118597954Y-91224870D01*
X118577032Y-91291534D01*
X118537096Y-91329307D01*
X118448138Y-91381916D01*
X118448129Y-91381923D01*
X118331923Y-91498129D01*
X118331917Y-91498137D01*
X118331231Y-91499298D01*
X118330456Y-91500021D01*
X118327139Y-91504298D01*
X118326448Y-91503762D01*
X118280161Y-91546980D01*
X118211419Y-91559483D01*
X118146830Y-91532836D01*
X118106901Y-91475500D01*
X118100500Y-91436175D01*
X118100500Y-90201677D01*
X118455000Y-90201677D01*
X118455000Y-90250000D01*
X119155000Y-90250000D01*
X119155000Y-89524999D01*
X119131693Y-89525000D01*
X119131674Y-89525001D01*
X119032392Y-89535144D01*
X118871518Y-89588452D01*
X118871507Y-89588457D01*
X118727271Y-89677424D01*
X118727267Y-89677427D01*
X118607427Y-89797267D01*
X118607424Y-89797271D01*
X118518457Y-89941507D01*
X118518452Y-89941518D01*
X118465144Y-90102393D01*
X118455000Y-90201677D01*
X118100500Y-90201677D01*
X118100500Y-89300097D01*
X118120185Y-89233058D01*
X118136819Y-89212416D01*
X119212416Y-88136819D01*
X119273739Y-88103334D01*
X119300097Y-88100500D01*
X124175500Y-88100500D01*
X124242539Y-88120185D01*
G37*
%TD.AperFunction*%
%TA.AperFunction,Conductor*%
G36*
X120280539Y-82995184D02*
G01*
X120326294Y-83047988D01*
X120337500Y-83099499D01*
X120337500Y-83624999D01*
X120814324Y-83624999D01*
X120931628Y-83609557D01*
X120931633Y-83609555D01*
X121077587Y-83549100D01*
X121077590Y-83549098D01*
X121117082Y-83518794D01*
X121182250Y-83493598D01*
X121250695Y-83507635D01*
X121280251Y-83529487D01*
X122765426Y-85014662D01*
X122798911Y-85075985D01*
X122799362Y-85078151D01*
X122830261Y-85233491D01*
X122830264Y-85233501D01*
X122892937Y-85384808D01*
X122891228Y-85385515D01*
X122903709Y-85445444D01*
X122878711Y-85510689D01*
X122822408Y-85552062D01*
X122780108Y-85559500D01*
X116785719Y-85559500D01*
X116718680Y-85539815D01*
X116675235Y-85491795D01*
X116655052Y-85452185D01*
X116655051Y-85452184D01*
X116530109Y-85280213D01*
X116379786Y-85129890D01*
X116207820Y-85004951D01*
X116207115Y-85004591D01*
X116199054Y-85000485D01*
X116148259Y-84952512D01*
X116131463Y-84884692D01*
X116153999Y-84818556D01*
X116199054Y-84779515D01*
X116207816Y-84775051D01*
X116298186Y-84709394D01*
X116379786Y-84650109D01*
X116379788Y-84650106D01*
X116379792Y-84650104D01*
X116530104Y-84499792D01*
X116603212Y-84399166D01*
X116658538Y-84356503D01*
X116728151Y-84350522D01*
X116789947Y-84383127D01*
X116806630Y-84403162D01*
X116878210Y-84510288D01*
X116878213Y-84510292D01*
X116989707Y-84621786D01*
X116989711Y-84621789D01*
X117120814Y-84709390D01*
X117120827Y-84709397D01*
X117266498Y-84769735D01*
X117266503Y-84769737D01*
X117421153Y-84800499D01*
X117421156Y-84800500D01*
X117421158Y-84800500D01*
X117578844Y-84800500D01*
X117578845Y-84800499D01*
X117733497Y-84769737D01*
X117879179Y-84709394D01*
X118010289Y-84621789D01*
X118121789Y-84510289D01*
X118209394Y-84379179D01*
X118269737Y-84233497D01*
X118290980Y-84126703D01*
X118300638Y-84078150D01*
X118333023Y-84016239D01*
X118334520Y-84014714D01*
X118896511Y-83452722D01*
X118957834Y-83419238D01*
X119027526Y-83424222D01*
X119065251Y-83448467D01*
X119065628Y-83447977D01*
X119071504Y-83452485D01*
X119071873Y-83452723D01*
X119072070Y-83452920D01*
X119197413Y-83549100D01*
X119343365Y-83609554D01*
X119343369Y-83609555D01*
X119460676Y-83624999D01*
X119937499Y-83624999D01*
X119937500Y-83624998D01*
X119937500Y-83099499D01*
X119940050Y-83090813D01*
X119938762Y-83081852D01*
X119949740Y-83057811D01*
X119957185Y-83032460D01*
X119964025Y-83026532D01*
X119967787Y-83018296D01*
X119990021Y-83004006D01*
X120009989Y-82986705D01*
X120020503Y-82984417D01*
X120026565Y-82980522D01*
X120061496Y-82975499D01*
X120213501Y-82975499D01*
X120280539Y-82995184D01*
G37*
%TD.AperFunction*%
%TD*%
M02*
