%TF.GenerationSoftware,KiCad,Pcbnew,10.0.1-10.0.1~ubuntu24.04.1*%
%TF.CreationDate,2026-04-20T18:41:09-07:00*%
%TF.ProjectId,fast_fet_switch,66617374-5f66-4657-945f-737769746368,rev?*%
%TF.SameCoordinates,Original*%
%TF.FileFunction,Legend,Bot*%
%TF.FilePolarity,Positive*%
%FSLAX46Y46*%
G04 Gerber Fmt 4.6, Leading zero omitted, Abs format (unit mm)*
G04 Created by KiCad (PCBNEW 10.0.1-10.0.1~ubuntu24.04.1) date 2026-04-20 18:41:09*
%MOMM*%
%LPD*%
G01*
G04 APERTURE LIST*
%ADD10C,0.150000*%
%ADD11C,0.120000*%
G04 APERTURE END LIST*
D10*
X126666666Y-88859580D02*
X126714285Y-88907200D01*
X126714285Y-88907200D02*
X126857142Y-88954819D01*
X126857142Y-88954819D02*
X126952380Y-88954819D01*
X126952380Y-88954819D02*
X127095237Y-88907200D01*
X127095237Y-88907200D02*
X127190475Y-88811961D01*
X127190475Y-88811961D02*
X127238094Y-88716723D01*
X127238094Y-88716723D02*
X127285713Y-88526247D01*
X127285713Y-88526247D02*
X127285713Y-88383390D01*
X127285713Y-88383390D02*
X127238094Y-88192914D01*
X127238094Y-88192914D02*
X127190475Y-88097676D01*
X127190475Y-88097676D02*
X127095237Y-88002438D01*
X127095237Y-88002438D02*
X126952380Y-87954819D01*
X126952380Y-87954819D02*
X126857142Y-87954819D01*
X126857142Y-87954819D02*
X126714285Y-88002438D01*
X126714285Y-88002438D02*
X126666666Y-88050057D01*
X126285713Y-88050057D02*
X126238094Y-88002438D01*
X126238094Y-88002438D02*
X126142856Y-87954819D01*
X126142856Y-87954819D02*
X125904761Y-87954819D01*
X125904761Y-87954819D02*
X125809523Y-88002438D01*
X125809523Y-88002438D02*
X125761904Y-88050057D01*
X125761904Y-88050057D02*
X125714285Y-88145295D01*
X125714285Y-88145295D02*
X125714285Y-88240533D01*
X125714285Y-88240533D02*
X125761904Y-88383390D01*
X125761904Y-88383390D02*
X126333332Y-88954819D01*
X126333332Y-88954819D02*
X125714285Y-88954819D01*
X120346666Y-89429580D02*
X120394285Y-89477200D01*
X120394285Y-89477200D02*
X120537142Y-89524819D01*
X120537142Y-89524819D02*
X120632380Y-89524819D01*
X120632380Y-89524819D02*
X120775237Y-89477200D01*
X120775237Y-89477200D02*
X120870475Y-89381961D01*
X120870475Y-89381961D02*
X120918094Y-89286723D01*
X120918094Y-89286723D02*
X120965713Y-89096247D01*
X120965713Y-89096247D02*
X120965713Y-88953390D01*
X120965713Y-88953390D02*
X120918094Y-88762914D01*
X120918094Y-88762914D02*
X120870475Y-88667676D01*
X120870475Y-88667676D02*
X120775237Y-88572438D01*
X120775237Y-88572438D02*
X120632380Y-88524819D01*
X120632380Y-88524819D02*
X120537142Y-88524819D01*
X120537142Y-88524819D02*
X120394285Y-88572438D01*
X120394285Y-88572438D02*
X120346666Y-88620057D01*
X119394285Y-89524819D02*
X119965713Y-89524819D01*
X119679999Y-89524819D02*
X119679999Y-88524819D01*
X119679999Y-88524819D02*
X119775237Y-88667676D01*
X119775237Y-88667676D02*
X119870475Y-88762914D01*
X119870475Y-88762914D02*
X119965713Y-88810533D01*
X137321666Y-94524819D02*
X137654999Y-94048628D01*
X137893094Y-94524819D02*
X137893094Y-93524819D01*
X137893094Y-93524819D02*
X137512142Y-93524819D01*
X137512142Y-93524819D02*
X137416904Y-93572438D01*
X137416904Y-93572438D02*
X137369285Y-93620057D01*
X137369285Y-93620057D02*
X137321666Y-93715295D01*
X137321666Y-93715295D02*
X137321666Y-93858152D01*
X137321666Y-93858152D02*
X137369285Y-93953390D01*
X137369285Y-93953390D02*
X137416904Y-94001009D01*
X137416904Y-94001009D02*
X137512142Y-94048628D01*
X137512142Y-94048628D02*
X137893094Y-94048628D01*
X136988332Y-93524819D02*
X136369285Y-93524819D01*
X136369285Y-93524819D02*
X136702618Y-93905771D01*
X136702618Y-93905771D02*
X136559761Y-93905771D01*
X136559761Y-93905771D02*
X136464523Y-93953390D01*
X136464523Y-93953390D02*
X136416904Y-94001009D01*
X136416904Y-94001009D02*
X136369285Y-94096247D01*
X136369285Y-94096247D02*
X136369285Y-94334342D01*
X136369285Y-94334342D02*
X136416904Y-94429580D01*
X136416904Y-94429580D02*
X136464523Y-94477200D01*
X136464523Y-94477200D02*
X136559761Y-94524819D01*
X136559761Y-94524819D02*
X136845475Y-94524819D01*
X136845475Y-94524819D02*
X136940713Y-94477200D01*
X136940713Y-94477200D02*
X136988332Y-94429580D01*
X123761904Y-75254819D02*
X123761904Y-76064342D01*
X123761904Y-76064342D02*
X123714285Y-76159580D01*
X123714285Y-76159580D02*
X123666666Y-76207200D01*
X123666666Y-76207200D02*
X123571428Y-76254819D01*
X123571428Y-76254819D02*
X123380952Y-76254819D01*
X123380952Y-76254819D02*
X123285714Y-76207200D01*
X123285714Y-76207200D02*
X123238095Y-76159580D01*
X123238095Y-76159580D02*
X123190476Y-76064342D01*
X123190476Y-76064342D02*
X123190476Y-75254819D01*
X122190476Y-76254819D02*
X122761904Y-76254819D01*
X122476190Y-76254819D02*
X122476190Y-75254819D01*
X122476190Y-75254819D02*
X122571428Y-75397676D01*
X122571428Y-75397676D02*
X122666666Y-75492914D01*
X122666666Y-75492914D02*
X122761904Y-75540533D01*
X118261904Y-92454819D02*
X118261904Y-93264342D01*
X118261904Y-93264342D02*
X118214285Y-93359580D01*
X118214285Y-93359580D02*
X118166666Y-93407200D01*
X118166666Y-93407200D02*
X118071428Y-93454819D01*
X118071428Y-93454819D02*
X117880952Y-93454819D01*
X117880952Y-93454819D02*
X117785714Y-93407200D01*
X117785714Y-93407200D02*
X117738095Y-93359580D01*
X117738095Y-93359580D02*
X117690476Y-93264342D01*
X117690476Y-93264342D02*
X117690476Y-92454819D01*
X116738095Y-92454819D02*
X117214285Y-92454819D01*
X117214285Y-92454819D02*
X117261904Y-92931009D01*
X117261904Y-92931009D02*
X117214285Y-92883390D01*
X117214285Y-92883390D02*
X117119047Y-92835771D01*
X117119047Y-92835771D02*
X116880952Y-92835771D01*
X116880952Y-92835771D02*
X116785714Y-92883390D01*
X116785714Y-92883390D02*
X116738095Y-92931009D01*
X116738095Y-92931009D02*
X116690476Y-93026247D01*
X116690476Y-93026247D02*
X116690476Y-93264342D01*
X116690476Y-93264342D02*
X116738095Y-93359580D01*
X116738095Y-93359580D02*
X116785714Y-93407200D01*
X116785714Y-93407200D02*
X116880952Y-93454819D01*
X116880952Y-93454819D02*
X117119047Y-93454819D01*
X117119047Y-93454819D02*
X117214285Y-93407200D01*
X117214285Y-93407200D02*
X117261904Y-93359580D01*
X131666666Y-95954819D02*
X131999999Y-95478628D01*
X132238094Y-95954819D02*
X132238094Y-94954819D01*
X132238094Y-94954819D02*
X131857142Y-94954819D01*
X131857142Y-94954819D02*
X131761904Y-95002438D01*
X131761904Y-95002438D02*
X131714285Y-95050057D01*
X131714285Y-95050057D02*
X131666666Y-95145295D01*
X131666666Y-95145295D02*
X131666666Y-95288152D01*
X131666666Y-95288152D02*
X131714285Y-95383390D01*
X131714285Y-95383390D02*
X131761904Y-95431009D01*
X131761904Y-95431009D02*
X131857142Y-95478628D01*
X131857142Y-95478628D02*
X132238094Y-95478628D01*
X131285713Y-95050057D02*
X131238094Y-95002438D01*
X131238094Y-95002438D02*
X131142856Y-94954819D01*
X131142856Y-94954819D02*
X130904761Y-94954819D01*
X130904761Y-94954819D02*
X130809523Y-95002438D01*
X130809523Y-95002438D02*
X130761904Y-95050057D01*
X130761904Y-95050057D02*
X130714285Y-95145295D01*
X130714285Y-95145295D02*
X130714285Y-95240533D01*
X130714285Y-95240533D02*
X130761904Y-95383390D01*
X130761904Y-95383390D02*
X131333332Y-95954819D01*
X131333332Y-95954819D02*
X130714285Y-95954819D01*
X130261904Y-92454819D02*
X130261904Y-93264342D01*
X130261904Y-93264342D02*
X130214285Y-93359580D01*
X130214285Y-93359580D02*
X130166666Y-93407200D01*
X130166666Y-93407200D02*
X130071428Y-93454819D01*
X130071428Y-93454819D02*
X129880952Y-93454819D01*
X129880952Y-93454819D02*
X129785714Y-93407200D01*
X129785714Y-93407200D02*
X129738095Y-93359580D01*
X129738095Y-93359580D02*
X129690476Y-93264342D01*
X129690476Y-93264342D02*
X129690476Y-92454819D01*
X129261904Y-92550057D02*
X129214285Y-92502438D01*
X129214285Y-92502438D02*
X129119047Y-92454819D01*
X129119047Y-92454819D02*
X128880952Y-92454819D01*
X128880952Y-92454819D02*
X128785714Y-92502438D01*
X128785714Y-92502438D02*
X128738095Y-92550057D01*
X128738095Y-92550057D02*
X128690476Y-92645295D01*
X128690476Y-92645295D02*
X128690476Y-92740533D01*
X128690476Y-92740533D02*
X128738095Y-92883390D01*
X128738095Y-92883390D02*
X129309523Y-93454819D01*
X129309523Y-93454819D02*
X128690476Y-93454819D01*
%TO.C,C2*%
D11*
X126359420Y-90510000D02*
X126640580Y-90510000D01*
X126359420Y-89490000D02*
X126640580Y-89490000D01*
%TO.C,C1*%
X120320580Y-89990000D02*
X120039420Y-89990000D01*
X120320580Y-91010000D02*
X120039420Y-91010000D01*
%TO.C,R3*%
X137392258Y-94977500D02*
X136917742Y-94977500D01*
X137392258Y-96022500D02*
X136917742Y-96022500D01*
%TO.C,U1*%
X120690000Y-83385000D02*
X125310000Y-83385000D01*
X125310000Y-76615000D02*
X120690000Y-76615000D01*
X127190000Y-77310000D02*
X126860000Y-77070000D01*
X127190000Y-76830000D01*
X127190000Y-77310000D01*
G36*
X127190000Y-77310000D02*
G01*
X126860000Y-77070000D01*
X127190000Y-76830000D01*
X127190000Y-77310000D01*
G37*
%TO.C,U5*%
X119590000Y-91440000D02*
X119590000Y-91490000D01*
X119590000Y-92610000D02*
X119590000Y-93390000D01*
X119590000Y-94510000D02*
X119590000Y-94560000D01*
X119590000Y-94560000D02*
X121410000Y-94560000D01*
X121410000Y-91440000D02*
X119590000Y-91440000D01*
X121410000Y-91490000D02*
X121410000Y-91440000D01*
X121410000Y-94560000D02*
X121410000Y-94510000D01*
X121950000Y-91490000D02*
X121710000Y-91160000D01*
X122190000Y-91160000D01*
X121950000Y-91490000D01*
G36*
X121950000Y-91490000D02*
G01*
X121710000Y-91160000D01*
X122190000Y-91160000D01*
X121950000Y-91490000D01*
G37*
%TO.C,R2*%
X131607742Y-96477500D02*
X132082258Y-96477500D01*
X131607742Y-97522500D02*
X132082258Y-97522500D01*
%TO.C,U2*%
X125090000Y-91440000D02*
X125090000Y-91490000D01*
X125090000Y-92610000D02*
X125090000Y-93390000D01*
X125090000Y-94510000D02*
X125090000Y-94560000D01*
X125090000Y-94560000D02*
X126910000Y-94560000D01*
X126910000Y-91440000D02*
X125090000Y-91440000D01*
X126910000Y-91490000D02*
X126910000Y-91440000D01*
X126910000Y-94560000D02*
X126910000Y-94510000D01*
X127450000Y-91490000D02*
X127210000Y-91160000D01*
X127690000Y-91160000D01*
X127450000Y-91490000D01*
G36*
X127450000Y-91490000D02*
G01*
X127210000Y-91160000D01*
X127690000Y-91160000D01*
X127450000Y-91490000D01*
G37*
%TD*%
M02*
