%TF.GenerationSoftware,KiCad,Pcbnew,10.0.1-10.0.1~ubuntu24.04.1*%
%TF.CreationDate,2026-04-21T16:58:47-07:00*%
%TF.ProjectId,fast_fet_switch,66617374-5f66-4657-945f-737769746368,rev?*%
%TF.SameCoordinates,Original*%
%TF.FileFunction,Soldermask,Top*%
%TF.FilePolarity,Negative*%
%FSLAX46Y46*%
G04 Gerber Fmt 4.6, Leading zero omitted, Abs format (unit mm)*
G04 Created by KiCad (PCBNEW 10.0.1-10.0.1~ubuntu24.04.1) date 2026-04-21 16:58:47*
%MOMM*%
%LPD*%
G01*
G04 APERTURE LIST*
G04 Aperture macros list*
%AMRoundRect*
0 Rectangle with rounded corners*
0 $1 Rounding radius*
0 $2 $3 $4 $5 $6 $7 $8 $9 X,Y pos of 4 corners*
0 Add a 4 corners polygon primitive as box body*
4,1,4,$2,$3,$4,$5,$6,$7,$8,$9,$2,$3,0*
0 Add four circle primitives for the rounded corners*
1,1,$1+$1,$2,$3*
1,1,$1+$1,$4,$5*
1,1,$1+$1,$6,$7*
1,1,$1+$1,$8,$9*
0 Add four rect primitives between the rounded corners*
20,1,$1+$1,$2,$3,$4,$5,0*
20,1,$1+$1,$4,$5,$6,$7,0*
20,1,$1+$1,$6,$7,$8,$9,0*
20,1,$1+$1,$8,$9,$2,$3,0*%
G04 Aperture macros list end*
%ADD10RoundRect,0.525400X-0.900400X-0.525400X0.900400X-0.525400X0.900400X0.525400X-0.900400X0.525400X0*%
%ADD11R,1.700000X1.700000*%
%ADD12C,1.700000*%
%ADD13RoundRect,0.200000X0.200000X0.275000X-0.200000X0.275000X-0.200000X-0.275000X0.200000X-0.275000X0*%
%ADD14R,1.050000X1.500000*%
%ADD15O,1.050000X1.500000*%
%ADD16R,1.905000X2.000000*%
%ADD17O,1.905000X2.000000*%
%ADD18C,6.800000*%
%ADD19C,10.500000*%
G04 APERTURE END LIST*
D10*
%TO.C,U4*%
X121004500Y-77010250D03*
X121004500Y-79550250D03*
X121004500Y-82090250D03*
X121004500Y-84630250D03*
X121004500Y-87170250D03*
X121004500Y-89710250D03*
X121004500Y-92250250D03*
X137169500Y-92250250D03*
X137169500Y-89710250D03*
X137169500Y-87170250D03*
X137169500Y-84630250D03*
X137169500Y-82090250D03*
X137169500Y-79550250D03*
X137169500Y-77010250D03*
%TD*%
D11*
%TO.C,J1*%
X115500000Y-100500000D03*
D12*
X118040000Y-100500000D03*
X120580000Y-100500000D03*
%TD*%
D13*
%TO.C,R1*%
X130325000Y-103500000D03*
X128675000Y-103500000D03*
%TD*%
D14*
%TO.C,Q3*%
X125730000Y-100360000D03*
D15*
X127000000Y-100360000D03*
X128270000Y-100360000D03*
%TD*%
D11*
%TO.C,J5*%
X126500000Y-111000000D03*
%TD*%
%TO.C,J2*%
X132960000Y-101000000D03*
D12*
X135500000Y-101000000D03*
X138040000Y-101000000D03*
%TD*%
D16*
%TO.C,Q1*%
X116420000Y-107500000D03*
D17*
X118960000Y-107500000D03*
X121500000Y-107500000D03*
%TD*%
D11*
%TO.C,J3*%
X115500000Y-76000000D03*
D12*
X115500000Y-78540000D03*
X115500000Y-81080000D03*
X115500000Y-83620000D03*
X115500000Y-86160000D03*
X115500000Y-88700000D03*
X115500000Y-91240000D03*
X115500000Y-93780000D03*
X115500000Y-96320000D03*
%TD*%
D18*
%TO.C,H2*%
X134000000Y-118000000D03*
D19*
X134000000Y-118000000D03*
%TD*%
D16*
%TO.C,Q2*%
X131460000Y-107450000D03*
D17*
X134000000Y-107450000D03*
X136540000Y-107450000D03*
%TD*%
D11*
%TO.C,J4*%
X135500000Y-98500000D03*
%TD*%
D13*
%TO.C,R4*%
X123980000Y-103000000D03*
X122330000Y-103000000D03*
%TD*%
D18*
%TO.C,H1*%
X119000000Y-118000000D03*
D19*
X119000000Y-118000000D03*
%TD*%
M02*
