%TF.GenerationSoftware,KiCad,Pcbnew,10.0.0-10.0.0~ubuntu24.04.1*%
%TF.CreationDate,2026-04-03T21:22:06-07:00*%
%TF.ProjectId,fast_fet_switch,66617374-5f66-4657-945f-737769746368,rev?*%
%TF.SameCoordinates,Original*%
%TF.FileFunction,Copper,L1,Top*%
%TF.FilePolarity,Positive*%
%FSLAX46Y46*%
G04 Gerber Fmt 4.6, Leading zero omitted, Abs format (unit mm)*
G04 Created by KiCad (PCBNEW 10.0.0-10.0.0~ubuntu24.04.1) date 2026-04-03 21:22:06*
%MOMM*%
%LPD*%
G01*
G04 APERTURE LIST*
G04 Aperture macros list*
%AMRoundRect*
0 Rectangle with rounded corners*
0 $1 Rounding radius*
0 $2 $3 $4 $5 $6 $7 $8 $9 X,Y pos of 4 corners*
0 Add a 4 corners polygon primitive as box body*
4,1,4,$2,$3,$4,$5,$6,$7,$8,$9,$2,$3,0*
0 Add four circle primitives for the rounded corners*
1,1,$1+$1,$2,$3*
1,1,$1+$1,$4,$5*
1,1,$1+$1,$6,$7*
1,1,$1+$1,$8,$9*
0 Add four rect primitives between the rounded corners*
20,1,$1+$1,$2,$3,$4,$5,0*
20,1,$1+$1,$4,$5,$6,$7,0*
20,1,$1+$1,$6,$7,$8,$9,0*
20,1,$1+$1,$8,$9,$2,$3,0*%
G04 Aperture macros list end*
%TA.AperFunction,SMDPad,CuDef*%
%ADD10RoundRect,0.500000X-0.875000X-0.500000X0.875000X-0.500000X0.875000X0.500000X-0.875000X0.500000X0*%
%TD*%
%TA.AperFunction,SMDPad,CuDef*%
%ADD11C,1.700000*%
%TD*%
%TA.AperFunction,SMDPad,CuDef*%
%ADD12RoundRect,0.275000X-0.275000X0.975000X-0.275000X-0.975000X0.275000X-0.975000X0.275000X0.975000X0*%
%TD*%
%TA.AperFunction,ComponentPad*%
%ADD13R,1.700000X1.700000*%
%TD*%
%TA.AperFunction,ComponentPad*%
%ADD14C,1.700000*%
%TD*%
%TA.AperFunction,SMDPad,CuDef*%
%ADD15RoundRect,0.100000X0.130000X0.100000X-0.130000X0.100000X-0.130000X-0.100000X0.130000X-0.100000X0*%
%TD*%
%TA.AperFunction,ComponentPad*%
%ADD16R,1.050000X1.500000*%
%TD*%
%TA.AperFunction,ComponentPad*%
%ADD17O,1.050000X1.500000*%
%TD*%
%TA.AperFunction,ComponentPad*%
%ADD18R,1.905000X2.000000*%
%TD*%
%TA.AperFunction,ComponentPad*%
%ADD19O,1.905000X2.000000*%
%TD*%
%TA.AperFunction,ComponentPad*%
%ADD20C,6.800000*%
%TD*%
%TA.AperFunction,ConnectorPad*%
%ADD21C,10.500000*%
%TD*%
%TA.AperFunction,ViaPad*%
%ADD22C,0.600000*%
%TD*%
%TA.AperFunction,ViaPad*%
%ADD23C,0.800000*%
%TD*%
%TA.AperFunction,ViaPad*%
%ADD24C,1.600000*%
%TD*%
%TA.AperFunction,ViaPad*%
%ADD25C,1.200000*%
%TD*%
%TA.AperFunction,ViaPad*%
%ADD26C,2.000000*%
%TD*%
%TA.AperFunction,ViaPad*%
%ADD27C,1.000000*%
%TD*%
%TA.AperFunction,Conductor*%
%ADD28C,0.300000*%
%TD*%
%TA.AperFunction,Conductor*%
%ADD29C,0.200000*%
%TD*%
%TA.AperFunction,Conductor*%
%ADD30C,0.400000*%
%TD*%
%TA.AperFunction,Conductor*%
%ADD31C,1.000000*%
%TD*%
%TA.AperFunction,Conductor*%
%ADD32C,1.200000*%
%TD*%
G04 APERTURE END LIST*
D10*
%TO.P,U4,1,P26_A0_D0_1*%
%TO.N,Net-(J4-Pin_1)*%
X121004500Y-77010250D03*
%TO.P,U4,2,P27_A1_D1_2*%
%TO.N,Net-(U1-B1)*%
X121004500Y-79550250D03*
%TO.P,U4,3,P28_A2_D2_3*%
%TO.N,Net-(U1-B2)*%
X121004500Y-82090250D03*
%TO.P,U4,4,P29_A3_D3_4*%
%TO.N,Net-(U1-B3)*%
X121004500Y-84630250D03*
%TO.P,U4,5,P6_SDA_D4_5*%
%TO.N,Net-(U1-B4)*%
X121004500Y-87170250D03*
%TO.P,U4,6,P7_SCL_D5_6*%
%TO.N,Net-(U1-B5)*%
X121004500Y-89710250D03*
%TO.P,U4,7,P0_D6_TX_7*%
%TO.N,Net-(U1-B6)*%
X121004500Y-92250250D03*
%TO.P,U4,8,P1_D7_RX_8*%
%TO.N,Net-(U1-B7)*%
X137169500Y-92250250D03*
%TO.P,U4,9,P2_D8_SCK_9*%
%TO.N,Net-(U1-B8)*%
X137169500Y-89710250D03*
%TO.P,U4,10,P4_D9_MISO_10*%
%TO.N,unconnected-(U4-P4_D9_MISO-Pad10)*%
X137169500Y-87170250D03*
%TO.P,U4,11,P3_D10_MOSI_11*%
%TO.N,unconnected-(U4-P3_D10_MOSI-Pad11)*%
X137169500Y-84630250D03*
%TO.P,U4,12,3V3_12*%
%TO.N,+3.3V*%
X137169500Y-82090250D03*
%TO.P,U4,13,GND_13*%
%TO.N,GND*%
X137169500Y-79550250D03*
%TO.P,U4,14,VBUS_14*%
%TO.N,+5V*%
X137169500Y-77010250D03*
D11*
%TO.P,U4,24,SWDIO_24*%
%TO.N,unconnected-(U4-SWDIO-Pad24)*%
X127916500Y-76252250D03*
%TO.P,U4,25,SWDCLK_25*%
%TO.N,unconnected-(U4-SWDCLK-Pad25)*%
X130456500Y-76252250D03*
%TO.P,U4,26,RST_26*%
%TO.N,unconnected-(U4-RST-Pad26)*%
X127916500Y-78792250D03*
%TO.P,U4,27,GND_27*%
%TO.N,unconnected-(U4-GND-Pad27)*%
X130456500Y-78792250D03*
D12*
%TO.P,U4,32,BAT_32*%
%TO.N,unconnected-(U4-BAT-Pad32)*%
X127916500Y-93270250D03*
%TO.P,U4,33,GND_33*%
%TO.N,unconnected-(U4-GND-Pad33)*%
X130456500Y-93270250D03*
%TD*%
D13*
%TO.P,J1,1,Pin_1_1*%
%TO.N,+1V2*%
X115500000Y-100500000D03*
D14*
%TO.P,J1,2,Pin_2_2*%
%TO.N,Net-(J1-Pin_2)*%
X118040000Y-100500000D03*
%TO.P,J1,3,Pin_3_3*%
%TO.N,+1V8*%
X120580000Y-100500000D03*
%TD*%
D15*
%TO.P,R1,1*%
%TO.N,Net-(Q1-S)*%
X130320000Y-103500000D03*
%TO.P,R1,2*%
%TO.N,Net-(Q1-G)*%
X129680000Y-103500000D03*
%TD*%
D16*
%TO.P,Q3,1,D_1*%
%TO.N,Net-(Q3-D)*%
X125730000Y-100360000D03*
D17*
%TO.P,Q3,2,G_2*%
%TO.N,Net-(J2-Pin_2)*%
X127000000Y-100360000D03*
%TO.P,Q3,3,S_3*%
%TO.N,GND*%
X128270000Y-100360000D03*
%TD*%
D13*
%TO.P,J5,1,Pin_1_1*%
%TO.N,GND*%
X126500000Y-111000000D03*
%TD*%
%TO.P,J2,1,Pin_1_1*%
%TO.N,Net-(J2-Pin_1)*%
X132960000Y-101000000D03*
D14*
%TO.P,J2,2,Pin_2_2*%
%TO.N,Net-(J2-Pin_2)*%
X135500000Y-101000000D03*
%TO.P,J2,3,Pin_3_3*%
%TO.N,Net-(J2-Pin_3)*%
X138040000Y-101000000D03*
%TD*%
D18*
%TO.P,Q1,1,G_1*%
%TO.N,Net-(Q1-G)*%
X116420000Y-107500000D03*
D19*
%TO.P,Q1,2,D_2*%
%TO.N,Net-(Q1-D)*%
X118960000Y-107500000D03*
%TO.P,Q1,3,S_3*%
%TO.N,Net-(Q1-S)*%
X121500000Y-107500000D03*
%TD*%
D13*
%TO.P,J3,1,Pin_1_1*%
%TO.N,Net-(J3-Pin_1)*%
X115500000Y-76000000D03*
D14*
%TO.P,J3,2,Pin_2_2*%
%TO.N,Net-(J3-Pin_2)*%
X115500000Y-78540000D03*
%TO.P,J3,3,Pin_3_3*%
%TO.N,Net-(J3-Pin_3)*%
X115500000Y-81080000D03*
%TO.P,J3,4,Pin_4_4*%
%TO.N,Net-(J3-Pin_4)*%
X115500000Y-83620000D03*
%TO.P,J3,5,Pin_5_5*%
%TO.N,Net-(J3-Pin_5)*%
X115500000Y-86160000D03*
%TO.P,J3,6,Pin_6_6*%
%TO.N,Net-(J3-Pin_6)*%
X115500000Y-88700000D03*
%TO.P,J3,7,Pin_7_7*%
%TO.N,Net-(J3-Pin_7)*%
X115500000Y-91240000D03*
%TO.P,J3,8,Pin_8_8*%
%TO.N,Net-(J3-Pin_8)*%
X115500000Y-93780000D03*
%TO.P,J3,9,Pin_9_9*%
%TO.N,GND*%
X115500000Y-96320000D03*
%TD*%
D20*
%TO.P,H2,1,1_1*%
%TO.N,Net-(Q2-D)*%
X134000000Y-118000000D03*
D21*
X134000000Y-118000000D03*
%TD*%
D18*
%TO.P,Q2,1,G_1*%
%TO.N,Net-(Q1-G)*%
X131460000Y-107450000D03*
D19*
%TO.P,Q2,2,D_2*%
%TO.N,Net-(Q2-D)*%
X134000000Y-107450000D03*
%TO.P,Q2,3,S_3*%
%TO.N,Net-(Q1-S)*%
X136540000Y-107450000D03*
%TD*%
D13*
%TO.P,J4,1,Pin_1_1*%
%TO.N,Net-(J4-Pin_1)*%
X135500000Y-98500000D03*
%TD*%
D15*
%TO.P,R4,1*%
%TO.N,Net-(Q1-G)*%
X123475000Y-103000000D03*
%TO.P,R4,2*%
%TO.N,Net-(Q3-D)*%
X122835000Y-103000000D03*
%TD*%
D20*
%TO.P,H1,1,1_1*%
%TO.N,Net-(Q1-D)*%
X119000000Y-118000000D03*
D21*
X119000000Y-118000000D03*
%TD*%
D22*
%TO.N,Net-(J1-Pin_2)*%
X127400000Y-83000000D03*
X129000000Y-83000000D03*
D23*
%TO.N,GND*%
X119000000Y-88500000D03*
X118199999Y-85355699D03*
D22*
%TO.N,Net-(U1-B1)*%
X118500000Y-77100000D03*
%TO.N,Net-(U1-B2)*%
X118500000Y-78000000D03*
%TO.N,Net-(U1-B3)*%
X118400000Y-79516099D03*
%TO.N,Net-(U1-B4)*%
X118300000Y-82000000D03*
%TO.N,Net-(U1-B5)*%
X117500000Y-84000000D03*
%TO.N,Net-(U1-B6)*%
X123000000Y-81500000D03*
%TO.N,Net-(U1-B7)*%
X124000000Y-84000000D03*
X135000000Y-92250250D03*
X127000000Y-87000000D03*
%TO.N,Net-(U1-B8)*%
X123600000Y-85000000D03*
X135000000Y-89710250D03*
X128450000Y-88550000D03*
D23*
%TO.N,+3.3V*%
X135000000Y-81000000D03*
X123000000Y-77812140D03*
X131500000Y-77500000D03*
D22*
X133500000Y-97000000D03*
D24*
%TO.N,GND*%
X135500000Y-96000000D03*
D25*
X130500000Y-85500000D03*
X119000000Y-104900000D03*
X123900000Y-89000000D03*
D24*
X126500000Y-107000000D03*
D25*
X133500000Y-82500000D03*
D24*
X126000000Y-96000000D03*
X137000000Y-104500000D03*
D26*
X137169500Y-79550250D03*
D27*
X127434314Y-90565686D03*
D25*
X120000000Y-96000000D03*
D23*
%TO.N,+5V*%
X131606500Y-93500000D03*
X121637500Y-93950000D03*
X126729840Y-94000000D03*
D22*
%TO.N,Net-(Q1-G)*%
X128500000Y-103500000D03*
%TO.N,Net-(Q3-D)*%
X124640000Y-100360000D03*
%TO.N,Net-(J3-Pin_6)*%
X125900000Y-83625000D03*
X127093497Y-80515229D03*
%TO.N,Net-(J3-Pin_7)*%
X126565687Y-84565687D03*
X127500000Y-81500000D03*
%TD*%
%TO.N,Net-(J4-Pin_1)*%
D28*
X121004500Y-77010250D02*
X121007375Y-77010250D01*
X122197375Y-78200250D02*
X122238854Y-78200250D01*
X122729500Y-78732375D02*
X124000000Y-80002875D01*
X129500000Y-97250000D02*
X130750000Y-98500000D01*
X121007375Y-77010250D02*
X122197375Y-78200250D01*
X122238854Y-78200250D02*
X122729500Y-78690896D01*
X124000000Y-80002875D02*
X124000000Y-83000000D01*
X122729500Y-78690896D02*
X122729500Y-78732375D01*
X129500000Y-88500000D02*
X129500000Y-97250000D01*
X124000000Y-83000000D02*
X129500000Y-88500000D01*
X130750000Y-98500000D02*
X135500000Y-98500000D01*
%TO.N,Net-(U1-B8)*%
D29*
X126600000Y-88000000D02*
X123600000Y-85000000D01*
X128450000Y-88550000D02*
X127900000Y-88000000D01*
X127900000Y-88000000D02*
X126600000Y-88000000D01*
%TO.N,Net-(Q1-G)*%
X116420000Y-107500000D02*
X116420000Y-105580000D01*
X116420000Y-105580000D02*
X118000000Y-104000000D01*
X118000000Y-104000000D02*
X123066728Y-104000000D01*
X123066728Y-104000000D02*
X123475000Y-103591728D01*
X123475000Y-103591728D02*
X123475000Y-103000000D01*
X128500000Y-103500000D02*
X128000000Y-103000000D01*
X128000000Y-103000000D02*
X123475000Y-103000000D01*
%TO.N,Net-(J1-Pin_2)*%
D30*
X129000000Y-83000000D02*
X127400000Y-83000000D01*
%TO.N,Net-(J3-Pin_7)*%
D29*
X126565687Y-84565687D02*
X126565687Y-84282842D01*
X126565687Y-84282842D02*
X126600000Y-84248529D01*
X126500000Y-83651471D02*
X126500000Y-82500000D01*
X126600000Y-84248529D02*
X126600000Y-83751471D01*
X126600000Y-83751471D02*
X126500000Y-83651471D01*
X126500000Y-82500000D02*
X127500000Y-81500000D01*
%TO.N,Net-(J3-Pin_6)*%
X125900000Y-83625000D02*
X126000000Y-83525000D01*
X126000000Y-83525000D02*
X126000000Y-81608726D01*
X126000000Y-81608726D02*
X127093497Y-80515229D01*
%TO.N,GND*%
D30*
X118199999Y-85355699D02*
X118199999Y-87699999D01*
X118199999Y-87699999D02*
X119000000Y-88500000D01*
%TO.N,Net-(U1-B5)*%
D29*
X117500000Y-84000000D02*
X117500000Y-88500000D01*
X118710250Y-89710250D02*
X121004500Y-89710250D01*
X117500000Y-88500000D02*
X118710250Y-89710250D01*
%TO.N,Net-(U1-B4)*%
X118300000Y-82000000D02*
X118500000Y-82200000D01*
X118500000Y-82200000D02*
X118500000Y-84665750D01*
X118500000Y-84665750D02*
X121004500Y-87170250D01*
%TO.N,+5V*%
D30*
X131606500Y-93500000D02*
X132000000Y-93106500D01*
X132000000Y-93106500D02*
X132000000Y-81000000D01*
X132000000Y-81000000D02*
X135989750Y-77010250D01*
%TO.N,Net-(U1-B7)*%
D29*
X127000000Y-87000000D02*
X124000000Y-84000000D01*
%TO.N,Net-(U1-B6)*%
X123000000Y-81500000D02*
X123000000Y-90254750D01*
X123000000Y-90254750D02*
X121004500Y-92250250D01*
%TO.N,+3.3V*%
X133500000Y-97000000D02*
X133500000Y-96000000D01*
X133500000Y-96000000D02*
X134000000Y-95500000D01*
X134000000Y-95500000D02*
X134000000Y-84000000D01*
X134000000Y-84000000D02*
X135909750Y-82090250D01*
X135909750Y-82090250D02*
X137169500Y-82090250D01*
%TO.N,Net-(U1-B3)*%
X119000000Y-82625750D02*
X121004500Y-84630250D01*
X118500000Y-80500000D02*
X118565722Y-80500000D01*
X118500000Y-79616099D02*
X118500000Y-80500000D01*
X119000000Y-80934278D02*
X119000000Y-82625750D01*
X118400000Y-79516099D02*
X118500000Y-79616099D01*
X118565722Y-80500000D02*
X119000000Y-80934278D01*
%TO.N,Net-(U1-B2)*%
X121004500Y-82090250D02*
X119000000Y-80085750D01*
X119000000Y-80085750D02*
X119000000Y-78500000D01*
X119000000Y-78500000D02*
X118500000Y-78000000D01*
%TO.N,Net-(U1-B7)*%
X135000000Y-92250250D02*
X137169500Y-92250250D01*
%TO.N,Net-(U1-B8)*%
X135000000Y-89710250D02*
X137169500Y-89710250D01*
%TO.N,Net-(Q3-D)*%
X124640000Y-100360000D02*
X122835000Y-102165000D01*
X122835000Y-102165000D02*
X122835000Y-103000000D01*
%TO.N,GND*%
D31*
X126500000Y-111000000D02*
X126500000Y-107000000D01*
%TO.N,Net-(J4-Pin_1)*%
D29*
X121004500Y-77010250D02*
X121507375Y-77010250D01*
%TO.N,Net-(U1-B1)*%
X120950250Y-79550250D02*
X118500000Y-77100000D01*
X121004500Y-79550250D02*
X120950250Y-79550250D01*
%TO.N,+3.3V*%
D30*
X128434267Y-77502250D02*
X128436517Y-77500000D01*
X127396483Y-77500000D02*
X127398733Y-77502250D01*
X129936483Y-77500000D02*
X129938733Y-77502250D01*
X135000000Y-81000000D02*
X136000000Y-82000000D01*
X123146335Y-77500000D02*
X127396483Y-77500000D01*
X123000000Y-77646335D02*
X123146335Y-77500000D01*
X127398733Y-77502250D02*
X128434267Y-77502250D01*
X130974267Y-77502250D02*
X130976517Y-77500000D01*
X130976517Y-77500000D02*
X131500000Y-77500000D01*
X123000000Y-77812140D02*
X123000000Y-77646335D01*
D29*
X136000000Y-82000000D02*
X137079250Y-82000000D01*
D30*
X129938733Y-77502250D02*
X130974267Y-77502250D01*
D29*
X137079250Y-82000000D02*
X137169500Y-82090250D01*
D30*
X128436517Y-77500000D02*
X129936483Y-77500000D01*
%TO.N,+5V*%
D29*
X121687500Y-94000000D02*
X121637500Y-93950000D01*
X135989750Y-77010250D02*
X137169500Y-77010250D01*
D30*
X126729840Y-94000000D02*
X121687500Y-94000000D01*
%TO.N,Net-(Q1-S)*%
D32*
X136540000Y-106995000D02*
X136540000Y-107450000D01*
X134545000Y-105000000D02*
X136540000Y-106995000D01*
X124000000Y-105000000D02*
X131500000Y-105000000D01*
D29*
X130320000Y-103500000D02*
X131500000Y-104680000D01*
D32*
X121500000Y-107500000D02*
X124000000Y-105000000D01*
X131500000Y-105000000D02*
X134545000Y-105000000D01*
D29*
X131500000Y-104680000D02*
X131500000Y-105000000D01*
%TO.N,Net-(Q1-G)*%
X128500000Y-103500000D02*
X129680000Y-103500000D01*
%TO.N,Net-(Q1-D)*%
X118960000Y-117960000D02*
X119000000Y-118000000D01*
D32*
X118960000Y-107500000D02*
X118960000Y-117960000D01*
%TO.N,Net-(Q2-D)*%
X134000000Y-107450000D02*
X134000000Y-118000000D01*
%TD*%
%TA.AperFunction,Conductor*%
%TO.N,GND*%
G36*
X116963100Y-88855274D02*
G01*
X116986101Y-88855603D01*
X116998228Y-88862916D01*
X117008897Y-88865237D01*
X117037152Y-88886388D01*
X118225389Y-90074624D01*
X118225399Y-90074635D01*
X118229729Y-90078965D01*
X118229730Y-90078966D01*
X118341534Y-90190770D01*
X118425938Y-90239500D01*
X118425940Y-90239502D01*
X118478461Y-90269825D01*
X118478465Y-90269827D01*
X118631193Y-90310751D01*
X118631196Y-90310751D01*
X118796903Y-90310751D01*
X118796919Y-90310750D01*
X119024110Y-90310750D01*
X119091149Y-90330435D01*
X119136904Y-90383239D01*
X119143323Y-90400632D01*
X119155695Y-90443868D01*
X119195589Y-90583295D01*
X119195590Y-90583296D01*
X119195591Y-90583299D01*
X119289802Y-90763657D01*
X119317616Y-90797768D01*
X119402515Y-90901889D01*
X119429624Y-90966286D01*
X119417615Y-91035115D01*
X119402515Y-91058611D01*
X119289804Y-91196840D01*
X119195589Y-91377204D01*
X119164561Y-91485646D01*
X119148764Y-91540856D01*
X119139614Y-91572833D01*
X119139613Y-91572836D01*
X119129000Y-91692216D01*
X119129000Y-92808278D01*
X119129001Y-92808284D01*
X119139613Y-92927665D01*
X119195589Y-93123295D01*
X119195590Y-93123296D01*
X119195591Y-93123299D01*
X119289802Y-93303657D01*
X119317616Y-93337768D01*
X119418390Y-93461359D01*
X119452573Y-93489231D01*
X119576093Y-93589948D01*
X119756451Y-93684159D01*
X119952082Y-93740136D01*
X120071463Y-93750750D01*
X120613000Y-93750749D01*
X120680039Y-93770433D01*
X120725794Y-93823237D01*
X120737000Y-93874749D01*
X120737000Y-94038695D01*
X120771603Y-94212658D01*
X120771606Y-94212667D01*
X120839483Y-94376540D01*
X120839490Y-94376553D01*
X120938035Y-94524034D01*
X120938038Y-94524038D01*
X121063461Y-94649461D01*
X121063465Y-94649464D01*
X121210946Y-94748009D01*
X121210959Y-94748016D01*
X121331660Y-94798011D01*
X121374834Y-94815894D01*
X121374836Y-94815894D01*
X121374841Y-94815896D01*
X121548804Y-94850499D01*
X121548807Y-94850500D01*
X121548809Y-94850500D01*
X121726193Y-94850500D01*
X121726194Y-94850499D01*
X121787916Y-94838222D01*
X121900158Y-94815896D01*
X121900161Y-94815894D01*
X121900166Y-94815894D01*
X122064047Y-94748013D01*
X122064050Y-94748010D01*
X122064052Y-94748010D01*
X122103878Y-94721399D01*
X122170555Y-94700520D01*
X122172770Y-94700500D01*
X126119740Y-94700500D01*
X126186779Y-94720185D01*
X126188628Y-94721396D01*
X126303293Y-94798013D01*
X126467174Y-94865894D01*
X126467176Y-94865894D01*
X126467181Y-94865896D01*
X126641144Y-94900499D01*
X126641147Y-94900500D01*
X126641149Y-94900500D01*
X126818533Y-94900500D01*
X126818534Y-94900499D01*
X126992506Y-94865894D01*
X127041277Y-94845691D01*
X127110746Y-94838222D01*
X127154703Y-94855258D01*
X127154923Y-94855396D01*
X127154924Y-94855397D01*
X127302894Y-94948372D01*
X127467843Y-95006091D01*
X127467849Y-95006091D01*
X127467851Y-95006092D01*
X127509250Y-95010756D01*
X127597942Y-95020749D01*
X127597945Y-95020750D01*
X127597948Y-95020750D01*
X128235055Y-95020750D01*
X128235056Y-95020749D01*
X128365157Y-95006091D01*
X128530106Y-94948372D01*
X128659529Y-94867050D01*
X128726765Y-94848051D01*
X128793600Y-94868419D01*
X128838814Y-94921687D01*
X128849500Y-94972045D01*
X128849500Y-97314070D01*
X128862452Y-97379179D01*
X128862452Y-97379181D01*
X128873608Y-97435269D01*
X128874499Y-97439744D01*
X128923535Y-97558127D01*
X128966774Y-97622839D01*
X128994726Y-97664673D01*
X130335326Y-99005273D01*
X130335329Y-99005275D01*
X130335331Y-99005277D01*
X130441873Y-99076465D01*
X130560256Y-99125501D01*
X130560260Y-99125501D01*
X130560261Y-99125502D01*
X130685928Y-99150500D01*
X130685931Y-99150500D01*
X134025501Y-99150500D01*
X134092540Y-99170185D01*
X134138295Y-99222989D01*
X134149501Y-99274500D01*
X134149501Y-99397876D01*
X134155908Y-99457483D01*
X134185517Y-99536868D01*
X134190501Y-99606560D01*
X134157015Y-99667883D01*
X134095692Y-99701367D01*
X134026003Y-99696383D01*
X133917485Y-99655909D01*
X133917483Y-99655908D01*
X133857883Y-99649501D01*
X133857881Y-99649500D01*
X133857873Y-99649500D01*
X133857864Y-99649500D01*
X132062129Y-99649500D01*
X132062123Y-99649501D01*
X132002516Y-99655908D01*
X131867671Y-99706202D01*
X131867664Y-99706206D01*
X131752455Y-99792452D01*
X131752452Y-99792455D01*
X131666206Y-99907664D01*
X131666202Y-99907671D01*
X131615908Y-100042517D01*
X131609501Y-100102116D01*
X131609500Y-100102135D01*
X131609500Y-101897870D01*
X131609501Y-101897876D01*
X131615908Y-101957483D01*
X131666202Y-102092328D01*
X131666206Y-102092335D01*
X131752452Y-102207544D01*
X131752455Y-102207547D01*
X131867664Y-102293793D01*
X131867671Y-102293797D01*
X132002517Y-102344091D01*
X132002516Y-102344091D01*
X132009444Y-102344835D01*
X132062127Y-102350500D01*
X133857872Y-102350499D01*
X133917483Y-102344091D01*
X134052331Y-102293796D01*
X134167546Y-102207546D01*
X134253796Y-102092331D01*
X134302810Y-101960916D01*
X134344681Y-101904984D01*
X134410145Y-101880566D01*
X134478418Y-101895417D01*
X134506673Y-101916569D01*
X134620213Y-102030109D01*
X134792179Y-102155048D01*
X134792181Y-102155049D01*
X134792184Y-102155051D01*
X134981588Y-102251557D01*
X135183757Y-102317246D01*
X135393713Y-102350500D01*
X135393714Y-102350500D01*
X135606286Y-102350500D01*
X135606287Y-102350500D01*
X135816243Y-102317246D01*
X136018412Y-102251557D01*
X136207816Y-102155051D01*
X136294138Y-102092335D01*
X136379786Y-102030109D01*
X136379788Y-102030106D01*
X136379792Y-102030104D01*
X136530104Y-101879792D01*
X136530106Y-101879788D01*
X136530109Y-101879786D01*
X136655048Y-101707820D01*
X136655047Y-101707820D01*
X136655051Y-101707816D01*
X136659514Y-101699054D01*
X136707488Y-101648259D01*
X136775308Y-101631463D01*
X136841444Y-101653999D01*
X136880486Y-101699056D01*
X136884951Y-101707820D01*
X137009890Y-101879786D01*
X137160213Y-102030109D01*
X137332179Y-102155048D01*
X137332181Y-102155049D01*
X137332184Y-102155051D01*
X137521588Y-102251557D01*
X137723757Y-102317246D01*
X137933713Y-102350500D01*
X137933714Y-102350500D01*
X138146286Y-102350500D01*
X138146287Y-102350500D01*
X138356243Y-102317246D01*
X138558412Y-102251557D01*
X138747816Y-102155051D01*
X138781250Y-102130759D01*
X138802615Y-102115238D01*
X138868421Y-102091758D01*
X138936475Y-102107584D01*
X138985170Y-102157689D01*
X138999500Y-102215556D01*
X138999500Y-108876000D01*
X138979815Y-108943039D01*
X138927011Y-108988794D01*
X138875500Y-109000000D01*
X137308183Y-109000000D01*
X137241144Y-108980315D01*
X137195389Y-108927511D01*
X137185445Y-108858353D01*
X137214470Y-108794797D01*
X137251888Y-108765515D01*
X137255771Y-108763536D01*
X137301538Y-108740217D01*
X137486566Y-108605786D01*
X137648286Y-108444066D01*
X137782717Y-108259038D01*
X137886548Y-108055258D01*
X137957222Y-107837745D01*
X137993000Y-107611854D01*
X137993000Y-107288146D01*
X137957222Y-107062255D01*
X137957221Y-107062251D01*
X137957221Y-107062250D01*
X137886549Y-106844744D01*
X137782716Y-106640961D01*
X137757661Y-106606476D01*
X137648286Y-106455934D01*
X137486566Y-106294214D01*
X137301538Y-106159783D01*
X137236639Y-106126715D01*
X137205253Y-106103911D01*
X135261930Y-104160588D01*
X135261928Y-104160586D01*
X135121788Y-104058768D01*
X134967445Y-103980127D01*
X134802701Y-103926598D01*
X134802699Y-103926597D01*
X134802698Y-103926597D01*
X134671271Y-103905781D01*
X134631611Y-103899500D01*
X134631610Y-103899500D01*
X131620097Y-103899500D01*
X131553058Y-103879815D01*
X131532416Y-103863181D01*
X131083390Y-103414155D01*
X131049905Y-103352832D01*
X131048132Y-103342657D01*
X131035046Y-103243246D01*
X131035044Y-103243241D01*
X131035044Y-103243238D01*
X130974536Y-103097159D01*
X130878282Y-102971718D01*
X130752841Y-102875464D01*
X130717050Y-102860639D01*
X130606762Y-102814956D01*
X130606760Y-102814955D01*
X130489361Y-102799500D01*
X130150636Y-102799500D01*
X130033234Y-102814955D01*
X130032083Y-102815264D01*
X130030891Y-102815264D01*
X130025179Y-102816016D01*
X130025080Y-102815264D01*
X129974919Y-102815264D01*
X129974820Y-102816017D01*
X129969107Y-102815264D01*
X129967917Y-102815265D01*
X129966765Y-102814956D01*
X129849361Y-102799500D01*
X129510636Y-102799500D01*
X129393246Y-102814953D01*
X129393234Y-102814957D01*
X129247163Y-102875461D01*
X129240124Y-102879526D01*
X129239117Y-102877783D01*
X129184068Y-102899069D01*
X129173743Y-102899500D01*
X129079766Y-102899500D01*
X129012727Y-102879815D01*
X129010875Y-102878602D01*
X128879185Y-102790609D01*
X128879172Y-102790602D01*
X128733501Y-102730264D01*
X128733491Y-102730261D01*
X128578151Y-102699362D01*
X128516241Y-102666977D01*
X128514662Y-102665426D01*
X128368717Y-102519481D01*
X128368716Y-102519480D01*
X128281904Y-102469360D01*
X128281904Y-102469359D01*
X128281900Y-102469358D01*
X128231785Y-102440423D01*
X128079057Y-102399499D01*
X127920943Y-102399499D01*
X127913347Y-102399499D01*
X127913331Y-102399500D01*
X123981257Y-102399500D01*
X123931506Y-102389082D01*
X123917716Y-102383042D01*
X123907841Y-102375464D01*
X123771200Y-102318865D01*
X123770060Y-102318366D01*
X123744219Y-102296669D01*
X123717955Y-102275504D01*
X123717545Y-102274272D01*
X123716551Y-102273438D01*
X123706542Y-102241216D01*
X123695890Y-102209210D01*
X123696210Y-102207952D01*
X123695826Y-102206713D01*
X123704827Y-102174191D01*
X123713169Y-102141511D01*
X123714263Y-102140101D01*
X123714465Y-102139375D01*
X123715654Y-102138311D01*
X123732125Y-102117108D01*
X124552971Y-101296262D01*
X124614293Y-101262779D01*
X124683985Y-101267763D01*
X124739918Y-101309635D01*
X124756834Y-101340614D01*
X124761203Y-101352330D01*
X124761206Y-101352335D01*
X124847452Y-101467544D01*
X124847455Y-101467547D01*
X124962664Y-101553793D01*
X124962671Y-101553797D01*
X125097517Y-101604091D01*
X125097516Y-101604091D01*
X125104444Y-101604835D01*
X125157127Y-101610500D01*
X126302872Y-101610499D01*
X126362483Y-101604091D01*
X126497331Y-101553796D01*
X126498430Y-101552972D01*
X126499717Y-101552492D01*
X126505112Y-101549547D01*
X126505535Y-101550322D01*
X126563887Y-101528552D01*
X126620198Y-101537673D01*
X126700873Y-101571091D01*
X126828056Y-101596389D01*
X126898992Y-101610499D01*
X126898996Y-101610500D01*
X126898997Y-101610500D01*
X127101004Y-101610500D01*
X127101005Y-101610499D01*
X127299127Y-101571091D01*
X127485756Y-101493786D01*
X127566562Y-101439792D01*
X127633234Y-101418917D01*
X127700614Y-101437401D01*
X127704340Y-101439795D01*
X127784479Y-101493343D01*
X127784486Y-101493347D01*
X127971016Y-101570609D01*
X127971025Y-101570612D01*
X128020000Y-101580353D01*
X128020000Y-100725865D01*
X128020067Y-100721789D01*
X128020400Y-100711638D01*
X128025500Y-100686003D01*
X128025500Y-100645830D01*
X128039745Y-100660075D01*
X128125255Y-100709444D01*
X128220630Y-100735000D01*
X128319370Y-100735000D01*
X128414745Y-100709444D01*
X128500255Y-100660075D01*
X128520000Y-100640330D01*
X128520000Y-101580352D01*
X128568974Y-101570612D01*
X128568983Y-101570609D01*
X128755513Y-101493347D01*
X128755526Y-101493340D01*
X128923399Y-101381170D01*
X128923403Y-101381167D01*
X129066167Y-101238403D01*
X129066170Y-101238399D01*
X129178340Y-101070526D01*
X129178347Y-101070513D01*
X129255609Y-100883983D01*
X129255612Y-100883974D01*
X129294999Y-100685958D01*
X129295000Y-100685955D01*
X129295000Y-100610000D01*
X128550330Y-100610000D01*
X128570075Y-100590255D01*
X128619444Y-100504745D01*
X128645000Y-100409370D01*
X128645000Y-100310630D01*
X128619444Y-100215255D01*
X128570075Y-100129745D01*
X128550330Y-100110000D01*
X129295000Y-100110000D01*
X129295000Y-100034045D01*
X129294999Y-100034041D01*
X129255612Y-99836025D01*
X129255609Y-99836016D01*
X129178347Y-99649486D01*
X129178340Y-99649473D01*
X129066170Y-99481600D01*
X129066167Y-99481596D01*
X128923403Y-99338832D01*
X128923399Y-99338829D01*
X128755526Y-99226659D01*
X128755513Y-99226652D01*
X128568984Y-99149390D01*
X128568977Y-99149388D01*
X128520000Y-99139645D01*
X128520000Y-100079670D01*
X128500255Y-100059925D01*
X128414745Y-100010556D01*
X128319370Y-99985000D01*
X128220630Y-99985000D01*
X128125255Y-100010556D01*
X128039745Y-100059925D01*
X128025500Y-100074170D01*
X128025500Y-100033997D01*
X128022383Y-100018326D01*
X128020000Y-99994134D01*
X128020000Y-99139646D01*
X128019999Y-99139645D01*
X127971022Y-99149388D01*
X127971015Y-99149390D01*
X127784481Y-99226654D01*
X127784479Y-99226655D01*
X127704337Y-99280204D01*
X127637660Y-99301081D01*
X127570280Y-99282596D01*
X127566558Y-99280204D01*
X127558021Y-99274500D01*
X127525029Y-99252455D01*
X127485754Y-99226212D01*
X127299127Y-99148909D01*
X127299119Y-99148907D01*
X127101007Y-99109500D01*
X127101003Y-99109500D01*
X126898997Y-99109500D01*
X126898992Y-99109500D01*
X126700880Y-99148907D01*
X126700868Y-99148910D01*
X126620198Y-99182325D01*
X126550729Y-99189794D01*
X126505342Y-99170036D01*
X126505114Y-99170454D01*
X126500447Y-99167905D01*
X126498432Y-99167028D01*
X126497331Y-99166204D01*
X126497330Y-99166203D01*
X126497328Y-99166202D01*
X126362482Y-99115908D01*
X126362483Y-99115908D01*
X126302883Y-99109501D01*
X126302881Y-99109500D01*
X126302873Y-99109500D01*
X126302864Y-99109500D01*
X125157129Y-99109500D01*
X125157123Y-99109501D01*
X125097516Y-99115908D01*
X124962671Y-99166202D01*
X124962664Y-99166206D01*
X124847455Y-99252452D01*
X124847452Y-99252455D01*
X124761206Y-99367664D01*
X124761202Y-99367671D01*
X124719742Y-99478833D01*
X124677871Y-99534767D01*
X124612407Y-99559184D01*
X124603560Y-99559500D01*
X124561155Y-99559500D01*
X124406510Y-99590261D01*
X124406498Y-99590264D01*
X124260827Y-99650602D01*
X124260814Y-99650609D01*
X124129711Y-99738210D01*
X124129707Y-99738213D01*
X124018213Y-99849707D01*
X124018210Y-99849711D01*
X123930609Y-99980814D01*
X123930602Y-99980827D01*
X123870264Y-100126498D01*
X123870261Y-100126508D01*
X123839361Y-100281850D01*
X123806976Y-100343761D01*
X123805425Y-100345339D01*
X122354481Y-101796282D01*
X122354479Y-101796284D01*
X122332478Y-101834392D01*
X122323179Y-101850500D01*
X122275423Y-101933215D01*
X122234499Y-102085943D01*
X122234499Y-102085945D01*
X122234499Y-102254046D01*
X122234500Y-102254059D01*
X122234500Y-102484645D01*
X122214815Y-102551684D01*
X122208876Y-102560131D01*
X122180464Y-102597157D01*
X122119956Y-102743237D01*
X122119955Y-102743239D01*
X122104500Y-102860638D01*
X122104500Y-103139363D01*
X122120291Y-103259317D01*
X122109524Y-103328352D01*
X122063143Y-103380607D01*
X121997352Y-103399500D01*
X117920940Y-103399500D01*
X117880019Y-103410464D01*
X117880019Y-103410465D01*
X117842751Y-103420451D01*
X117768214Y-103440423D01*
X117768209Y-103440426D01*
X117631290Y-103519475D01*
X117631282Y-103519481D01*
X115939481Y-105211282D01*
X115939480Y-105211284D01*
X115899518Y-105280501D01*
X115860423Y-105348215D01*
X115819499Y-105500943D01*
X115819499Y-105500945D01*
X115819499Y-105669046D01*
X115819500Y-105669059D01*
X115819500Y-105875500D01*
X115799815Y-105942539D01*
X115747011Y-105988294D01*
X115695500Y-105999500D01*
X115419630Y-105999500D01*
X115419623Y-105999501D01*
X115360016Y-106005908D01*
X115225171Y-106056202D01*
X115225164Y-106056206D01*
X115109955Y-106142452D01*
X115109952Y-106142455D01*
X115023706Y-106257664D01*
X115023702Y-106257671D01*
X114973408Y-106392517D01*
X114967001Y-106452116D01*
X114967000Y-106452135D01*
X114967000Y-108547870D01*
X114967001Y-108547876D01*
X114973408Y-108607483D01*
X115023702Y-108742328D01*
X115023704Y-108742331D01*
X115059551Y-108790217D01*
X115068139Y-108801688D01*
X115092557Y-108867153D01*
X115077706Y-108935426D01*
X115028301Y-108984832D01*
X114968873Y-109000000D01*
X114124500Y-109000000D01*
X114057461Y-108980315D01*
X114011706Y-108927511D01*
X114000500Y-108876000D01*
X114000500Y-101690102D01*
X114020185Y-101623063D01*
X114072989Y-101577308D01*
X114142147Y-101567364D01*
X114205703Y-101596389D01*
X114223762Y-101615786D01*
X114292454Y-101707546D01*
X114338643Y-101742123D01*
X114407664Y-101793793D01*
X114407671Y-101793797D01*
X114542517Y-101844091D01*
X114542516Y-101844091D01*
X114549444Y-101844835D01*
X114602127Y-101850500D01*
X116397872Y-101850499D01*
X116457483Y-101844091D01*
X116592331Y-101793796D01*
X116707546Y-101707546D01*
X116793796Y-101592331D01*
X116842810Y-101460916D01*
X116884681Y-101404984D01*
X116950145Y-101380566D01*
X117018418Y-101395417D01*
X117046673Y-101416569D01*
X117160213Y-101530109D01*
X117332179Y-101655048D01*
X117332181Y-101655049D01*
X117332184Y-101655051D01*
X117521588Y-101751557D01*
X117723757Y-101817246D01*
X117933713Y-101850500D01*
X117933714Y-101850500D01*
X118146286Y-101850500D01*
X118146287Y-101850500D01*
X118356243Y-101817246D01*
X118558412Y-101751557D01*
X118747816Y-101655051D01*
X118809137Y-101610499D01*
X118919786Y-101530109D01*
X118919788Y-101530106D01*
X118919792Y-101530104D01*
X119070104Y-101379792D01*
X119070106Y-101379788D01*
X119070109Y-101379786D01*
X119195048Y-101207820D01*
X119195047Y-101207820D01*
X119195051Y-101207816D01*
X119199514Y-101199054D01*
X119247488Y-101148259D01*
X119315308Y-101131463D01*
X119381444Y-101153999D01*
X119420486Y-101199056D01*
X119424951Y-101207820D01*
X119549890Y-101379786D01*
X119700213Y-101530109D01*
X119872179Y-101655048D01*
X119872181Y-101655049D01*
X119872184Y-101655051D01*
X120061588Y-101751557D01*
X120263757Y-101817246D01*
X120473713Y-101850500D01*
X120473714Y-101850500D01*
X120686286Y-101850500D01*
X120686287Y-101850500D01*
X120896243Y-101817246D01*
X121098412Y-101751557D01*
X121287816Y-101655051D01*
X121349137Y-101610499D01*
X121459786Y-101530109D01*
X121459788Y-101530106D01*
X121459792Y-101530104D01*
X121610104Y-101379792D01*
X121610106Y-101379788D01*
X121610109Y-101379786D01*
X121735048Y-101207820D01*
X121735047Y-101207820D01*
X121735051Y-101207816D01*
X121831557Y-101018412D01*
X121897246Y-100816243D01*
X121930500Y-100606287D01*
X121930500Y-100393713D01*
X121897246Y-100183757D01*
X121831557Y-99981588D01*
X121735051Y-99792184D01*
X121735049Y-99792181D01*
X121735048Y-99792179D01*
X121610109Y-99620213D01*
X121459786Y-99469890D01*
X121287820Y-99344951D01*
X121098414Y-99248444D01*
X121098413Y-99248443D01*
X121098412Y-99248443D01*
X120896243Y-99182754D01*
X120896241Y-99182753D01*
X120896240Y-99182753D01*
X120734957Y-99157208D01*
X120686287Y-99149500D01*
X120473713Y-99149500D01*
X120425042Y-99157208D01*
X120263760Y-99182753D01*
X120181913Y-99209347D01*
X120128654Y-99226652D01*
X120061585Y-99248444D01*
X119872179Y-99344951D01*
X119700213Y-99469890D01*
X119549890Y-99620213D01*
X119424949Y-99792182D01*
X119420484Y-99800946D01*
X119372509Y-99851742D01*
X119304688Y-99868536D01*
X119238553Y-99845998D01*
X119199516Y-99800946D01*
X119195050Y-99792182D01*
X119070109Y-99620213D01*
X118919786Y-99469890D01*
X118747820Y-99344951D01*
X118558414Y-99248444D01*
X118558413Y-99248443D01*
X118558412Y-99248443D01*
X118356243Y-99182754D01*
X118356241Y-99182753D01*
X118356240Y-99182753D01*
X118194957Y-99157208D01*
X118146287Y-99149500D01*
X117933713Y-99149500D01*
X117885042Y-99157208D01*
X117723760Y-99182753D01*
X117641913Y-99209347D01*
X117588654Y-99226652D01*
X117521585Y-99248444D01*
X117332179Y-99344951D01*
X117160215Y-99469889D01*
X117046673Y-99583431D01*
X116985350Y-99616915D01*
X116915658Y-99611931D01*
X116859725Y-99570059D01*
X116842810Y-99539082D01*
X116793797Y-99407671D01*
X116793793Y-99407664D01*
X116707547Y-99292455D01*
X116707544Y-99292452D01*
X116592335Y-99206206D01*
X116592328Y-99206202D01*
X116457482Y-99155908D01*
X116457483Y-99155908D01*
X116397883Y-99149501D01*
X116397881Y-99149500D01*
X116397873Y-99149500D01*
X116397864Y-99149500D01*
X114602129Y-99149500D01*
X114602123Y-99149501D01*
X114542516Y-99155908D01*
X114407671Y-99206202D01*
X114407664Y-99206206D01*
X114292455Y-99292452D01*
X114292452Y-99292455D01*
X114223766Y-99384208D01*
X114167832Y-99426079D01*
X114098141Y-99431063D01*
X114036818Y-99397577D01*
X114003334Y-99336254D01*
X114000500Y-99309897D01*
X114000500Y-96856611D01*
X114020185Y-96789572D01*
X114072989Y-96743817D01*
X114142147Y-96733873D01*
X114205703Y-96762898D01*
X114242432Y-96818294D01*
X114248906Y-96838221D01*
X114345375Y-97027550D01*
X114384728Y-97081716D01*
X115017037Y-96449408D01*
X115034075Y-96512993D01*
X115099901Y-96627007D01*
X115192993Y-96720099D01*
X115307007Y-96785925D01*
X115370590Y-96802962D01*
X114738282Y-97435269D01*
X114738282Y-97435270D01*
X114792449Y-97474624D01*
X114981782Y-97571095D01*
X115183870Y-97636757D01*
X115393754Y-97670000D01*
X115606246Y-97670000D01*
X115816127Y-97636757D01*
X115816130Y-97636757D01*
X116018217Y-97571095D01*
X116207554Y-97474622D01*
X116261716Y-97435270D01*
X116261717Y-97435270D01*
X115629408Y-96802962D01*
X115692993Y-96785925D01*
X115807007Y-96720099D01*
X115900099Y-96627007D01*
X115965925Y-96512993D01*
X115982962Y-96449409D01*
X116615270Y-97081717D01*
X116615270Y-97081716D01*
X116654622Y-97027554D01*
X116751095Y-96838217D01*
X116816757Y-96636130D01*
X116816757Y-96636127D01*
X116850000Y-96426246D01*
X116850000Y-96213753D01*
X116816757Y-96003872D01*
X116816757Y-96003869D01*
X116751095Y-95801782D01*
X116654624Y-95612449D01*
X116615270Y-95558282D01*
X116615269Y-95558282D01*
X115982962Y-96190590D01*
X115965925Y-96127007D01*
X115900099Y-96012993D01*
X115807007Y-95919901D01*
X115692993Y-95854075D01*
X115629409Y-95837037D01*
X116261716Y-95204728D01*
X116207547Y-95165373D01*
X116207547Y-95165372D01*
X116198500Y-95160763D01*
X116147706Y-95112788D01*
X116130912Y-95044966D01*
X116153451Y-94978832D01*
X116198508Y-94939793D01*
X116207816Y-94935051D01*
X116301411Y-94867051D01*
X116379786Y-94810109D01*
X116379788Y-94810106D01*
X116379792Y-94810104D01*
X116530104Y-94659792D01*
X116530106Y-94659788D01*
X116530109Y-94659786D01*
X116655048Y-94487820D01*
X116655047Y-94487820D01*
X116655051Y-94487816D01*
X116751557Y-94298412D01*
X116817246Y-94096243D01*
X116850500Y-93886287D01*
X116850500Y-93673713D01*
X116817246Y-93463757D01*
X116751557Y-93261588D01*
X116655051Y-93072184D01*
X116655049Y-93072181D01*
X116655048Y-93072179D01*
X116530109Y-92900213D01*
X116379786Y-92749890D01*
X116207820Y-92624951D01*
X116207115Y-92624591D01*
X116199054Y-92620485D01*
X116148259Y-92572512D01*
X116131463Y-92504692D01*
X116153999Y-92438556D01*
X116199054Y-92399515D01*
X116207816Y-92395051D01*
X116229789Y-92379086D01*
X116379786Y-92270109D01*
X116379788Y-92270106D01*
X116379792Y-92270104D01*
X116530104Y-92119792D01*
X116530106Y-92119788D01*
X116530109Y-92119786D01*
X116655048Y-91947820D01*
X116655047Y-91947820D01*
X116655051Y-91947816D01*
X116751557Y-91758412D01*
X116817246Y-91556243D01*
X116850500Y-91346287D01*
X116850500Y-91133713D01*
X116817246Y-90923757D01*
X116751557Y-90721588D01*
X116655051Y-90532184D01*
X116655049Y-90532181D01*
X116655048Y-90532179D01*
X116530109Y-90360213D01*
X116379786Y-90209890D01*
X116207820Y-90084951D01*
X116207115Y-90084591D01*
X116199054Y-90080485D01*
X116148259Y-90032512D01*
X116131463Y-89964692D01*
X116153999Y-89898556D01*
X116199054Y-89859515D01*
X116207816Y-89855051D01*
X116229789Y-89839086D01*
X116379786Y-89730109D01*
X116379788Y-89730106D01*
X116379792Y-89730104D01*
X116530104Y-89579792D01*
X116530106Y-89579788D01*
X116530109Y-89579786D01*
X116655048Y-89407820D01*
X116655047Y-89407820D01*
X116655051Y-89407816D01*
X116751557Y-89218412D01*
X116817246Y-89016243D01*
X116826998Y-88954670D01*
X116832390Y-88943295D01*
X116833289Y-88930736D01*
X116847074Y-88912320D01*
X116856927Y-88891537D01*
X116867614Y-88884882D01*
X116875160Y-88874802D01*
X116896712Y-88866763D01*
X116916238Y-88854605D01*
X116928827Y-88854784D01*
X116940624Y-88850385D01*
X116963100Y-88855274D01*
G37*
%TD.AperFunction*%
%TA.AperFunction,Conductor*%
G36*
X129992121Y-106120185D02*
G01*
X130037876Y-106172989D01*
X130047820Y-106242147D01*
X130041264Y-106267833D01*
X130013408Y-106342517D01*
X130007001Y-106402116D01*
X130007000Y-106402135D01*
X130007000Y-108497870D01*
X130007001Y-108497876D01*
X130013408Y-108557483D01*
X130063702Y-108692328D01*
X130063706Y-108692335D01*
X130145569Y-108801689D01*
X130169987Y-108867153D01*
X130155136Y-108935426D01*
X130105731Y-108984832D01*
X130046303Y-109000000D01*
X122354430Y-109000000D01*
X122287391Y-108980315D01*
X122241636Y-108927511D01*
X122231692Y-108858353D01*
X122260717Y-108794797D01*
X122281544Y-108775682D01*
X122327451Y-108742328D01*
X122446566Y-108655786D01*
X122608286Y-108494066D01*
X122742717Y-108309038D01*
X122846548Y-108105258D01*
X122917222Y-107887745D01*
X122953000Y-107661854D01*
X122953000Y-107654704D01*
X122972685Y-107587665D01*
X122989319Y-107567023D01*
X124419523Y-106136819D01*
X124480846Y-106103334D01*
X124507204Y-106100500D01*
X129925082Y-106100500D01*
X129992121Y-106120185D01*
G37*
%TD.AperFunction*%
%TA.AperFunction,Conductor*%
G36*
X122610835Y-104620185D02*
G01*
X122656590Y-104672989D01*
X122666534Y-104742147D01*
X122637509Y-104805703D01*
X122631477Y-104812181D01*
X121480477Y-105963181D01*
X121419154Y-105996666D01*
X121392796Y-105999500D01*
X121385646Y-105999500D01*
X121345188Y-106005908D01*
X121159753Y-106035278D01*
X121159750Y-106035278D01*
X120942244Y-106105950D01*
X120738461Y-106209783D01*
X120672550Y-106257671D01*
X120553434Y-106344214D01*
X120553432Y-106344216D01*
X120553431Y-106344216D01*
X120391715Y-106505932D01*
X120330318Y-106590438D01*
X120274987Y-106633103D01*
X120205374Y-106639082D01*
X120143579Y-106606476D01*
X120129682Y-106590438D01*
X120118773Y-106575423D01*
X120068286Y-106505934D01*
X119906566Y-106344214D01*
X119721538Y-106209783D01*
X119649326Y-106172989D01*
X119517755Y-106105950D01*
X119300248Y-106035278D01*
X119114812Y-106005908D01*
X119074354Y-105999500D01*
X118845646Y-105999500D01*
X118805188Y-106005908D01*
X118619753Y-106035278D01*
X118619750Y-106035278D01*
X118402244Y-106105950D01*
X118198461Y-106209783D01*
X118015759Y-106342525D01*
X117949952Y-106366005D01*
X117881898Y-106350180D01*
X117833203Y-106300074D01*
X117826690Y-106285538D01*
X117816296Y-106257669D01*
X117816293Y-106257664D01*
X117730047Y-106142455D01*
X117730044Y-106142452D01*
X117614835Y-106056206D01*
X117614828Y-106056202D01*
X117479982Y-106005908D01*
X117479983Y-106005908D01*
X117420383Y-105999501D01*
X117420381Y-105999500D01*
X117420373Y-105999500D01*
X117420365Y-105999500D01*
X117149097Y-105999500D01*
X117082058Y-105979815D01*
X117036303Y-105927011D01*
X117026359Y-105857853D01*
X117055384Y-105794297D01*
X117061416Y-105787819D01*
X118212416Y-104636819D01*
X118273739Y-104603334D01*
X118300097Y-104600500D01*
X122543796Y-104600500D01*
X122610835Y-104620185D01*
G37*
%TD.AperFunction*%
%TA.AperFunction,Conductor*%
G36*
X134741190Y-93014204D02*
G01*
X134742147Y-93014067D01*
X134746916Y-93015378D01*
X134760681Y-93018201D01*
X134766412Y-93019949D01*
X134766503Y-93019987D01*
X134766596Y-93020005D01*
X134766601Y-93020007D01*
X134921153Y-93050749D01*
X134921156Y-93050750D01*
X134921158Y-93050750D01*
X135078843Y-93050750D01*
X135120121Y-93042539D01*
X135213784Y-93023908D01*
X135283373Y-93030135D01*
X135338551Y-93072997D01*
X135357190Y-93111413D01*
X135360591Y-93123299D01*
X135432827Y-93261588D01*
X135454802Y-93303657D01*
X135583390Y-93461359D01*
X135617573Y-93489231D01*
X135741093Y-93589948D01*
X135921451Y-93684159D01*
X136117082Y-93740136D01*
X136236463Y-93750750D01*
X138102536Y-93750749D01*
X138221918Y-93740136D01*
X138417549Y-93684159D01*
X138597907Y-93589948D01*
X138755609Y-93461359D01*
X138755611Y-93461357D01*
X138779398Y-93432185D01*
X138837018Y-93392667D01*
X138906857Y-93390575D01*
X138966739Y-93426573D01*
X138997654Y-93489231D01*
X138999500Y-93510545D01*
X138999500Y-99784443D01*
X138979815Y-99851482D01*
X138927011Y-99897237D01*
X138857853Y-99907181D01*
X138802616Y-99884762D01*
X138747818Y-99844950D01*
X138558414Y-99748444D01*
X138558413Y-99748443D01*
X138558412Y-99748443D01*
X138356243Y-99682754D01*
X138356241Y-99682753D01*
X138356240Y-99682753D01*
X138194957Y-99657208D01*
X138146287Y-99649500D01*
X137933713Y-99649500D01*
X137885042Y-99657208D01*
X137723760Y-99682753D01*
X137521585Y-99748444D01*
X137332179Y-99844951D01*
X137160213Y-99969890D01*
X137009890Y-100120213D01*
X136884949Y-100292182D01*
X136880484Y-100300946D01*
X136832509Y-100351742D01*
X136764688Y-100368536D01*
X136698553Y-100345998D01*
X136659516Y-100300946D01*
X136655050Y-100292182D01*
X136530109Y-100120213D01*
X136445703Y-100035807D01*
X136412218Y-99974484D01*
X136417202Y-99904792D01*
X136459074Y-99848859D01*
X136490051Y-99831944D01*
X136592328Y-99793797D01*
X136592327Y-99793797D01*
X136592331Y-99793796D01*
X136707546Y-99707546D01*
X136793796Y-99592331D01*
X136844091Y-99457483D01*
X136850500Y-99397873D01*
X136850499Y-97602128D01*
X136844091Y-97542517D01*
X136832070Y-97510288D01*
X136793797Y-97407671D01*
X136793793Y-97407664D01*
X136707547Y-97292455D01*
X136707544Y-97292452D01*
X136592335Y-97206206D01*
X136592328Y-97206202D01*
X136457482Y-97155908D01*
X136457483Y-97155908D01*
X136397883Y-97149501D01*
X136397881Y-97149500D01*
X136397873Y-97149500D01*
X136397864Y-97149500D01*
X134602129Y-97149500D01*
X134602123Y-97149501D01*
X134542514Y-97155909D01*
X134467832Y-97183763D01*
X134398140Y-97188747D01*
X134336817Y-97155261D01*
X134303333Y-97093937D01*
X134300500Y-97067581D01*
X134300500Y-96921155D01*
X134300499Y-96921153D01*
X134287661Y-96856611D01*
X134269737Y-96766503D01*
X134231237Y-96673554D01*
X134209397Y-96620827D01*
X134209390Y-96620814D01*
X134121398Y-96489125D01*
X134100520Y-96422447D01*
X134100500Y-96420234D01*
X134100500Y-96300097D01*
X134120185Y-96233058D01*
X134136819Y-96212416D01*
X134270178Y-96079057D01*
X134480520Y-95868716D01*
X134559577Y-95731784D01*
X134600501Y-95579057D01*
X134600501Y-95420942D01*
X134600501Y-95413347D01*
X134600500Y-95413329D01*
X134600500Y-93136805D01*
X134609761Y-93105264D01*
X134617940Y-93073394D01*
X134619561Y-93071887D01*
X134620185Y-93069766D01*
X134645025Y-93048241D01*
X134669139Y-93025849D01*
X134671318Y-93025458D01*
X134672989Y-93024011D01*
X134705537Y-93019330D01*
X134737915Y-93013533D01*
X134741190Y-93014204D01*
G37*
%TD.AperFunction*%
%TA.AperFunction,Conductor*%
G36*
X135213834Y-78879335D02*
G01*
X135269767Y-78921207D01*
X135294184Y-78986671D01*
X135294500Y-78995517D01*
X135294500Y-79989343D01*
X135274815Y-80056382D01*
X135222011Y-80102137D01*
X135152853Y-80112081D01*
X135146309Y-80110960D01*
X135088695Y-80099500D01*
X135088691Y-80099500D01*
X134911309Y-80099500D01*
X134911306Y-80099500D01*
X134737341Y-80134103D01*
X134737332Y-80134106D01*
X134573459Y-80201983D01*
X134573446Y-80201990D01*
X134425965Y-80300535D01*
X134425961Y-80300538D01*
X134300538Y-80425961D01*
X134300535Y-80425965D01*
X134201990Y-80573446D01*
X134201983Y-80573459D01*
X134134106Y-80737332D01*
X134134103Y-80737341D01*
X134099500Y-80911304D01*
X134099500Y-81088695D01*
X134134103Y-81262658D01*
X134134106Y-81262667D01*
X134201983Y-81426540D01*
X134201990Y-81426553D01*
X134300535Y-81574034D01*
X134300538Y-81574038D01*
X134425961Y-81699461D01*
X134425965Y-81699464D01*
X134573446Y-81798009D01*
X134573459Y-81798016D01*
X134671781Y-81838741D01*
X134737334Y-81865894D01*
X134872588Y-81892797D01*
X134934495Y-81925180D01*
X134936075Y-81926732D01*
X134992372Y-81983029D01*
X135025857Y-82044352D01*
X135020873Y-82114044D01*
X134992372Y-82158391D01*
X133631286Y-83519478D01*
X133519481Y-83631282D01*
X133519480Y-83631284D01*
X133477589Y-83703842D01*
X133440423Y-83768215D01*
X133399499Y-83920943D01*
X133399499Y-83920945D01*
X133399499Y-84089046D01*
X133399500Y-84089059D01*
X133399500Y-95199901D01*
X133379815Y-95266940D01*
X133363181Y-95287582D01*
X133124214Y-95526548D01*
X133124215Y-95526549D01*
X133019478Y-95631286D01*
X132969361Y-95718094D01*
X132969359Y-95718096D01*
X132940425Y-95768209D01*
X132940424Y-95768210D01*
X132926547Y-95820000D01*
X132899499Y-95920943D01*
X132899499Y-95920945D01*
X132899499Y-96089046D01*
X132899500Y-96089059D01*
X132899500Y-96420234D01*
X132879815Y-96487273D01*
X132878602Y-96489125D01*
X132790609Y-96620814D01*
X132790602Y-96620827D01*
X132730264Y-96766498D01*
X132730261Y-96766510D01*
X132699500Y-96921153D01*
X132699500Y-97078846D01*
X132730261Y-97233489D01*
X132730264Y-97233501D01*
X132790602Y-97379172D01*
X132790607Y-97379181D01*
X132878210Y-97510288D01*
X132878213Y-97510292D01*
X132989708Y-97621787D01*
X132990621Y-97622397D01*
X132990991Y-97622839D01*
X132994419Y-97625653D01*
X132993885Y-97626303D01*
X133035427Y-97676010D01*
X133044134Y-97745334D01*
X133013980Y-97808362D01*
X132954537Y-97845082D01*
X132921731Y-97849500D01*
X131070808Y-97849500D01*
X131003769Y-97829815D01*
X130983127Y-97813181D01*
X130186819Y-97016873D01*
X130153334Y-96955550D01*
X130150500Y-96929192D01*
X130150500Y-95144750D01*
X130170185Y-95077711D01*
X130222989Y-95031956D01*
X130274500Y-95020750D01*
X130775055Y-95020750D01*
X130775056Y-95020749D01*
X130905157Y-95006091D01*
X131070106Y-94948372D01*
X131218076Y-94855397D01*
X131341647Y-94731826D01*
X131434622Y-94583856D01*
X131469723Y-94483545D01*
X131510445Y-94426769D01*
X131575397Y-94401022D01*
X131586764Y-94400500D01*
X131695193Y-94400500D01*
X131695194Y-94400499D01*
X131753182Y-94388964D01*
X131869158Y-94365896D01*
X131869161Y-94365894D01*
X131869166Y-94365894D01*
X132033047Y-94298013D01*
X132180535Y-94199464D01*
X132305964Y-94074035D01*
X132404513Y-93926547D01*
X132472394Y-93762666D01*
X132499297Y-93627410D01*
X132531680Y-93565504D01*
X132533198Y-93563958D01*
X132544114Y-93553043D01*
X132620775Y-93438311D01*
X132623313Y-93432185D01*
X132673578Y-93310832D01*
X132673580Y-93310828D01*
X132687316Y-93241773D01*
X132700500Y-93175496D01*
X132700500Y-81341518D01*
X132720185Y-81274479D01*
X132736814Y-81253842D01*
X135082821Y-78907834D01*
X135144142Y-78874351D01*
X135213834Y-78879335D01*
G37*
%TD.AperFunction*%
%TA.AperFunction,Conductor*%
G36*
X114205703Y-94224513D02*
G01*
X114242430Y-94279906D01*
X114248314Y-94298016D01*
X114248444Y-94298414D01*
X114344951Y-94487820D01*
X114469890Y-94659786D01*
X114620213Y-94810109D01*
X114792179Y-94935048D01*
X114792181Y-94935049D01*
X114792184Y-94935051D01*
X114801493Y-94939794D01*
X114852290Y-94987766D01*
X114869087Y-95055587D01*
X114846552Y-95121722D01*
X114801505Y-95160760D01*
X114792446Y-95165376D01*
X114792440Y-95165380D01*
X114738282Y-95204727D01*
X114738282Y-95204728D01*
X115370591Y-95837037D01*
X115307007Y-95854075D01*
X115192993Y-95919901D01*
X115099901Y-96012993D01*
X115034075Y-96127007D01*
X115017037Y-96190591D01*
X114384728Y-95558282D01*
X114384727Y-95558282D01*
X114345380Y-95612439D01*
X114248904Y-95801782D01*
X114242431Y-95821706D01*
X114202994Y-95879381D01*
X114138635Y-95906580D01*
X114069789Y-95894665D01*
X114018313Y-95847421D01*
X114000500Y-95783388D01*
X114000500Y-94318226D01*
X114020185Y-94251187D01*
X114072989Y-94205432D01*
X114142147Y-94195488D01*
X114205703Y-94224513D01*
G37*
%TD.AperFunction*%
%TA.AperFunction,Conductor*%
G36*
X123805703Y-86055384D02*
G01*
X123812179Y-86061414D01*
X126231284Y-88480520D01*
X126231286Y-88480521D01*
X126231290Y-88480524D01*
X126297260Y-88518611D01*
X126368216Y-88559577D01*
X126520943Y-88600501D01*
X126520945Y-88600501D01*
X126686654Y-88600501D01*
X126686670Y-88600500D01*
X127542098Y-88600500D01*
X127609137Y-88620185D01*
X127654892Y-88672989D01*
X127663715Y-88700308D01*
X127680261Y-88783491D01*
X127680264Y-88783501D01*
X127740602Y-88929172D01*
X127740609Y-88929185D01*
X127828210Y-89060288D01*
X127828213Y-89060292D01*
X127939707Y-89171786D01*
X127939711Y-89171789D01*
X128070814Y-89259390D01*
X128070827Y-89259397D01*
X128216498Y-89319735D01*
X128216503Y-89319737D01*
X128346982Y-89345691D01*
X128371153Y-89350499D01*
X128371156Y-89350500D01*
X128371158Y-89350500D01*
X128528844Y-89350500D01*
X128528845Y-89350499D01*
X128683497Y-89319737D01*
X128683509Y-89319731D01*
X128689324Y-89317969D01*
X128690158Y-89320720D01*
X128747359Y-89314497D01*
X128809878Y-89345691D01*
X128845608Y-89405734D01*
X128849500Y-89436555D01*
X128849500Y-91568454D01*
X128829815Y-91635493D01*
X128777011Y-91681248D01*
X128707853Y-91691192D01*
X128659529Y-91673448D01*
X128530107Y-91592128D01*
X128365158Y-91534409D01*
X128365148Y-91534407D01*
X128235058Y-91519750D01*
X128235052Y-91519750D01*
X127597948Y-91519750D01*
X127597941Y-91519750D01*
X127467851Y-91534407D01*
X127467841Y-91534409D01*
X127302895Y-91592127D01*
X127154923Y-91685103D01*
X127031353Y-91808673D01*
X126938377Y-91956645D01*
X126880659Y-92121591D01*
X126880657Y-92121601D01*
X126866000Y-92251691D01*
X126866000Y-92975500D01*
X126846315Y-93042539D01*
X126793511Y-93088294D01*
X126742000Y-93099500D01*
X126641146Y-93099500D01*
X126467181Y-93134103D01*
X126467172Y-93134106D01*
X126303292Y-93201987D01*
X126303290Y-93201988D01*
X126188631Y-93278602D01*
X126121954Y-93299480D01*
X126119740Y-93299500D01*
X122926039Y-93299500D01*
X122859000Y-93279815D01*
X122813245Y-93227011D01*
X122803301Y-93157853D01*
X122812407Y-93129667D01*
X122811078Y-93129136D01*
X122813407Y-93123303D01*
X122813407Y-93123302D01*
X122813409Y-93123299D01*
X122869386Y-92927668D01*
X122880000Y-92808287D01*
X122879999Y-91692214D01*
X122869386Y-91572832D01*
X122814216Y-91380021D01*
X122814699Y-91310157D01*
X122845749Y-91258234D01*
X123358506Y-90745478D01*
X123358511Y-90745474D01*
X123368714Y-90735270D01*
X123368716Y-90735270D01*
X123480520Y-90623466D01*
X123532752Y-90532997D01*
X123545595Y-90510753D01*
X123545596Y-90510751D01*
X123557498Y-90490135D01*
X123559577Y-90486535D01*
X123600500Y-90333807D01*
X123600500Y-90175693D01*
X123600500Y-86149097D01*
X123620185Y-86082058D01*
X123672989Y-86036303D01*
X123742147Y-86026359D01*
X123805703Y-86055384D01*
G37*
%TD.AperFunction*%
%TA.AperFunction,Conductor*%
G36*
X138942539Y-74520185D02*
G01*
X138988294Y-74572989D01*
X138999500Y-74624500D01*
X138999500Y-75749954D01*
X138979815Y-75816993D01*
X138927011Y-75862748D01*
X138857853Y-75872692D01*
X138794297Y-75843667D01*
X138779399Y-75828316D01*
X138755609Y-75799141D01*
X138597909Y-75670554D01*
X138597910Y-75670554D01*
X138597907Y-75670552D01*
X138417549Y-75576341D01*
X138417548Y-75576340D01*
X138417545Y-75576339D01*
X138300329Y-75542800D01*
X138221918Y-75520364D01*
X138221915Y-75520363D01*
X138221913Y-75520363D01*
X138155602Y-75514467D01*
X138102537Y-75509750D01*
X138102532Y-75509750D01*
X136236471Y-75509750D01*
X136236465Y-75509750D01*
X136236464Y-75509751D01*
X136224816Y-75510786D01*
X136117084Y-75520363D01*
X135921454Y-75576339D01*
X135836365Y-75620786D01*
X135741093Y-75670552D01*
X135741091Y-75670553D01*
X135741090Y-75670554D01*
X135583390Y-75799140D01*
X135454804Y-75956840D01*
X135360589Y-76137204D01*
X135339500Y-76210910D01*
X135314152Y-76299500D01*
X135304614Y-76332833D01*
X135304613Y-76332836D01*
X135299478Y-76390602D01*
X135294264Y-76449252D01*
X135294000Y-76452216D01*
X135294000Y-76663980D01*
X135274315Y-76731019D01*
X135257681Y-76751661D01*
X131455888Y-80553453D01*
X131455887Y-80553454D01*
X131379222Y-80668192D01*
X131326421Y-80795667D01*
X131326418Y-80795679D01*
X131299729Y-80929855D01*
X131299720Y-80929903D01*
X131299500Y-80931006D01*
X131299500Y-91511904D01*
X131279815Y-91578943D01*
X131227011Y-91624698D01*
X131157853Y-91634642D01*
X131109529Y-91616899D01*
X131070106Y-91592128D01*
X131032426Y-91578943D01*
X130905158Y-91534409D01*
X130905148Y-91534407D01*
X130775058Y-91519750D01*
X130775052Y-91519750D01*
X130274500Y-91519750D01*
X130207461Y-91500065D01*
X130161706Y-91447261D01*
X130150500Y-91395750D01*
X130150500Y-88435928D01*
X130125502Y-88310261D01*
X130125501Y-88310260D01*
X130125501Y-88310256D01*
X130090637Y-88226086D01*
X130076466Y-88191874D01*
X130069593Y-88181588D01*
X130005278Y-88085332D01*
X130005272Y-88085325D01*
X127179380Y-85259434D01*
X127145895Y-85198111D01*
X127150879Y-85128419D01*
X127179381Y-85084070D01*
X127187476Y-85075976D01*
X127275081Y-84944866D01*
X127335424Y-84799184D01*
X127366187Y-84644529D01*
X127366187Y-84486845D01*
X127366187Y-84486842D01*
X127366186Y-84486840D01*
X127345556Y-84383127D01*
X127335424Y-84332190D01*
X127275081Y-84186508D01*
X127242946Y-84138414D01*
X127221398Y-84106164D01*
X127200520Y-84039487D01*
X127200500Y-84037274D01*
X127200500Y-83924500D01*
X127220185Y-83857461D01*
X127272989Y-83811706D01*
X127324500Y-83800500D01*
X127478844Y-83800500D01*
X127478845Y-83800499D01*
X127633497Y-83769737D01*
X127722160Y-83733012D01*
X127777864Y-83709939D01*
X127825316Y-83700500D01*
X128574684Y-83700500D01*
X128622136Y-83709939D01*
X128766498Y-83769735D01*
X128766503Y-83769737D01*
X128910988Y-83798477D01*
X128921153Y-83800499D01*
X128921156Y-83800500D01*
X128921158Y-83800500D01*
X129078844Y-83800500D01*
X129078845Y-83800499D01*
X129233497Y-83769737D01*
X129379179Y-83709394D01*
X129510289Y-83621789D01*
X129621789Y-83510289D01*
X129709394Y-83379179D01*
X129769737Y-83233497D01*
X129800500Y-83078842D01*
X129800500Y-82921158D01*
X129800500Y-82921155D01*
X129800499Y-82921153D01*
X129794220Y-82889589D01*
X129769737Y-82766503D01*
X129767634Y-82761426D01*
X129709397Y-82620827D01*
X129709390Y-82620814D01*
X129621789Y-82489711D01*
X129621786Y-82489707D01*
X129510292Y-82378213D01*
X129510288Y-82378210D01*
X129379185Y-82290609D01*
X129379172Y-82290602D01*
X129233501Y-82230264D01*
X129233489Y-82230261D01*
X129078845Y-82199500D01*
X129078842Y-82199500D01*
X128921158Y-82199500D01*
X128921155Y-82199500D01*
X128766510Y-82230261D01*
X128766498Y-82230264D01*
X128622136Y-82290061D01*
X128574684Y-82299500D01*
X128131941Y-82299500D01*
X128064902Y-82279815D01*
X128019147Y-82227011D01*
X128009203Y-82157853D01*
X128038228Y-82094297D01*
X128044260Y-82087819D01*
X128121786Y-82010292D01*
X128121789Y-82010289D01*
X128209394Y-81879179D01*
X128269737Y-81733497D01*
X128300500Y-81578842D01*
X128300500Y-81421158D01*
X128300500Y-81421155D01*
X128300499Y-81421153D01*
X128291704Y-81376939D01*
X128269737Y-81266503D01*
X128258763Y-81240010D01*
X128209397Y-81120827D01*
X128209390Y-81120814D01*
X128121789Y-80989711D01*
X128121786Y-80989707D01*
X128010292Y-80878213D01*
X128010288Y-80878210D01*
X127926642Y-80822319D01*
X127881837Y-80768707D01*
X127873130Y-80699382D01*
X127873916Y-80695025D01*
X127893997Y-80594073D01*
X127893997Y-80436384D01*
X127865066Y-80290942D01*
X127871293Y-80221350D01*
X127914156Y-80166173D01*
X127980045Y-80142928D01*
X127986683Y-80142750D01*
X128022786Y-80142750D01*
X128022787Y-80142750D01*
X128232743Y-80109496D01*
X128434912Y-80043807D01*
X128624316Y-79947301D01*
X128698450Y-79893440D01*
X128796286Y-79822359D01*
X128796288Y-79822356D01*
X128796292Y-79822354D01*
X128946604Y-79672042D01*
X128946604Y-79672041D01*
X128946607Y-79672039D01*
X128946609Y-79672036D01*
X129071548Y-79500070D01*
X129071547Y-79500070D01*
X129071551Y-79500066D01*
X129076014Y-79491304D01*
X129123988Y-79440509D01*
X129191808Y-79423713D01*
X129257944Y-79446249D01*
X129296986Y-79491306D01*
X129301451Y-79500070D01*
X129426390Y-79672036D01*
X129576713Y-79822359D01*
X129748679Y-79947298D01*
X129748681Y-79947299D01*
X129748684Y-79947301D01*
X129938088Y-80043807D01*
X130140257Y-80109496D01*
X130350213Y-80142750D01*
X130350214Y-80142750D01*
X130562786Y-80142750D01*
X130562787Y-80142750D01*
X130772743Y-80109496D01*
X130974912Y-80043807D01*
X131164316Y-79947301D01*
X131238450Y-79893440D01*
X131336286Y-79822359D01*
X131336288Y-79822356D01*
X131336292Y-79822354D01*
X131486604Y-79672042D01*
X131486604Y-79672041D01*
X131486607Y-79672039D01*
X131486609Y-79672036D01*
X131611548Y-79500070D01*
X131611547Y-79500070D01*
X131611551Y-79500066D01*
X131708057Y-79310662D01*
X131773746Y-79108493D01*
X131807000Y-78898537D01*
X131807000Y-78685963D01*
X131773746Y-78476007D01*
X131773746Y-78476006D01*
X131773423Y-78474661D01*
X131773449Y-78474133D01*
X131772984Y-78471195D01*
X131773601Y-78471097D01*
X131776912Y-78404879D01*
X131817575Y-78348061D01*
X131846538Y-78331153D01*
X131926547Y-78298013D01*
X132074035Y-78199464D01*
X132199464Y-78074035D01*
X132298013Y-77926547D01*
X132365894Y-77762666D01*
X132400500Y-77588691D01*
X132400500Y-77411309D01*
X132400500Y-77411306D01*
X132400499Y-77411304D01*
X132365896Y-77237341D01*
X132365893Y-77237332D01*
X132353555Y-77207546D01*
X132315550Y-77115791D01*
X132298016Y-77073459D01*
X132298009Y-77073446D01*
X132199464Y-76925965D01*
X132199461Y-76925961D01*
X132074038Y-76800538D01*
X132074034Y-76800535D01*
X131926553Y-76701990D01*
X131926540Y-76701983D01*
X131853624Y-76671781D01*
X131799220Y-76627940D01*
X131777155Y-76561646D01*
X131778602Y-76537830D01*
X131807000Y-76358537D01*
X131807000Y-76145963D01*
X131773746Y-75936007D01*
X131708057Y-75733838D01*
X131611551Y-75544434D01*
X131611549Y-75544431D01*
X131611548Y-75544429D01*
X131486609Y-75372463D01*
X131336286Y-75222140D01*
X131164320Y-75097201D01*
X130974914Y-75000694D01*
X130974913Y-75000693D01*
X130974912Y-75000693D01*
X130772743Y-74935004D01*
X130772741Y-74935003D01*
X130772740Y-74935003D01*
X130600126Y-74907664D01*
X130562787Y-74901750D01*
X130350213Y-74901750D01*
X130312874Y-74907664D01*
X130140260Y-74935003D01*
X129938085Y-75000694D01*
X129748679Y-75097201D01*
X129576713Y-75222140D01*
X129426390Y-75372463D01*
X129301449Y-75544432D01*
X129296984Y-75553196D01*
X129249009Y-75603992D01*
X129181188Y-75620786D01*
X129115053Y-75598248D01*
X129076016Y-75553196D01*
X129071550Y-75544432D01*
X128946609Y-75372463D01*
X128796286Y-75222140D01*
X128624320Y-75097201D01*
X128434914Y-75000694D01*
X128434913Y-75000693D01*
X128434912Y-75000693D01*
X128232743Y-74935004D01*
X128232741Y-74935003D01*
X128232740Y-74935003D01*
X128060126Y-74907664D01*
X128022787Y-74901750D01*
X127810213Y-74901750D01*
X127772874Y-74907664D01*
X127600260Y-74935003D01*
X127398085Y-75000694D01*
X127208679Y-75097201D01*
X127036713Y-75222140D01*
X126886390Y-75372463D01*
X126761451Y-75544429D01*
X126664944Y-75733835D01*
X126599253Y-75936010D01*
X126566000Y-76145963D01*
X126566000Y-76358536D01*
X126598169Y-76561646D01*
X126599254Y-76568493D01*
X126620573Y-76634106D01*
X126621573Y-76637182D01*
X126623568Y-76707023D01*
X126587488Y-76766856D01*
X126524787Y-76797684D01*
X126503642Y-76799500D01*
X123077336Y-76799500D01*
X123028190Y-76809276D01*
X122958599Y-76803049D01*
X122903421Y-76760186D01*
X122880177Y-76694296D01*
X122879999Y-76687659D01*
X122879999Y-76452221D01*
X122879999Y-76452214D01*
X122869386Y-76332832D01*
X122813409Y-76137201D01*
X122719198Y-75956843D01*
X122642474Y-75862748D01*
X122590609Y-75799140D01*
X122432909Y-75670554D01*
X122432910Y-75670554D01*
X122432907Y-75670552D01*
X122252549Y-75576341D01*
X122252548Y-75576340D01*
X122252545Y-75576339D01*
X122135329Y-75542800D01*
X122056918Y-75520364D01*
X122056915Y-75520363D01*
X122056913Y-75520363D01*
X121990602Y-75514467D01*
X121937537Y-75509750D01*
X121937532Y-75509750D01*
X120071471Y-75509750D01*
X120071465Y-75509750D01*
X120071464Y-75509751D01*
X120059816Y-75510786D01*
X119952084Y-75520363D01*
X119756454Y-75576339D01*
X119671365Y-75620786D01*
X119576093Y-75670552D01*
X119576091Y-75670553D01*
X119576090Y-75670554D01*
X119418390Y-75799140D01*
X119289804Y-75956840D01*
X119195589Y-76137204D01*
X119174500Y-76210910D01*
X119149152Y-76299500D01*
X119139614Y-76332833D01*
X119139612Y-76332844D01*
X119138680Y-76343323D01*
X119113134Y-76408355D01*
X119056484Y-76449252D01*
X118986716Y-76453029D01*
X118946277Y-76435439D01*
X118879185Y-76390609D01*
X118879172Y-76390602D01*
X118733501Y-76330264D01*
X118733489Y-76330261D01*
X118578845Y-76299500D01*
X118578842Y-76299500D01*
X118421158Y-76299500D01*
X118421155Y-76299500D01*
X118266510Y-76330261D01*
X118266498Y-76330264D01*
X118120827Y-76390602D01*
X118120814Y-76390609D01*
X117989711Y-76478210D01*
X117989707Y-76478213D01*
X117878213Y-76589707D01*
X117878210Y-76589711D01*
X117790609Y-76720814D01*
X117790602Y-76720827D01*
X117730264Y-76866498D01*
X117730261Y-76866510D01*
X117699500Y-77021153D01*
X117699500Y-77178846D01*
X117730261Y-77333489D01*
X117730264Y-77333501D01*
X117790604Y-77479177D01*
X117790605Y-77479179D01*
X117791899Y-77481115D01*
X117792264Y-77482282D01*
X117793476Y-77484549D01*
X117793045Y-77484778D01*
X117812773Y-77547794D01*
X117794285Y-77615173D01*
X117791899Y-77618885D01*
X117790605Y-77620820D01*
X117790604Y-77620822D01*
X117730264Y-77766498D01*
X117730261Y-77766510D01*
X117699500Y-77921153D01*
X117699500Y-78078846D01*
X117730261Y-78233489D01*
X117730264Y-78233501D01*
X117790602Y-78379172D01*
X117790609Y-78379185D01*
X117878210Y-78510288D01*
X117878213Y-78510292D01*
X117989707Y-78621786D01*
X117994419Y-78625653D01*
X117993603Y-78626646D01*
X118034139Y-78675149D01*
X118042848Y-78744473D01*
X118012694Y-78807501D01*
X117989335Y-78827742D01*
X117889711Y-78894309D01*
X117889707Y-78894312D01*
X117778213Y-79005806D01*
X117778210Y-79005810D01*
X117690609Y-79136913D01*
X117690602Y-79136926D01*
X117630264Y-79282597D01*
X117630261Y-79282609D01*
X117599500Y-79437252D01*
X117599500Y-79594945D01*
X117630261Y-79749588D01*
X117630264Y-79749600D01*
X117690602Y-79895271D01*
X117690609Y-79895284D01*
X117778209Y-80026386D01*
X117778210Y-80026387D01*
X117778211Y-80026388D01*
X117863182Y-80111359D01*
X117896666Y-80172680D01*
X117899500Y-80199039D01*
X117899500Y-80579057D01*
X117940016Y-80730263D01*
X117940423Y-80731783D01*
X117940426Y-80731790D01*
X118019475Y-80868709D01*
X118019479Y-80868714D01*
X118019480Y-80868716D01*
X118131284Y-80980520D01*
X118144932Y-80988399D01*
X118151088Y-80991954D01*
X118199303Y-81042522D01*
X118212525Y-81111129D01*
X118186557Y-81175994D01*
X118129642Y-81216521D01*
X118113279Y-81220958D01*
X118066508Y-81230261D01*
X118066498Y-81230264D01*
X117920827Y-81290602D01*
X117920814Y-81290609D01*
X117789711Y-81378210D01*
X117789707Y-81378213D01*
X117678213Y-81489707D01*
X117678210Y-81489711D01*
X117590609Y-81620814D01*
X117590602Y-81620827D01*
X117530264Y-81766498D01*
X117530261Y-81766510D01*
X117499500Y-81921153D01*
X117499500Y-82078846D01*
X117530261Y-82233489D01*
X117530264Y-82233501D01*
X117590602Y-82379172D01*
X117590609Y-82379185D01*
X117678210Y-82510288D01*
X117678213Y-82510292D01*
X117789706Y-82621785D01*
X117789709Y-82621787D01*
X117789711Y-82621789D01*
X117844391Y-82658325D01*
X117889195Y-82711935D01*
X117899500Y-82761426D01*
X117899500Y-83113444D01*
X117879815Y-83180483D01*
X117827011Y-83226238D01*
X117757853Y-83236182D01*
X117739575Y-83231202D01*
X117739324Y-83232031D01*
X117733500Y-83230264D01*
X117733497Y-83230263D01*
X117733492Y-83230262D01*
X117733489Y-83230261D01*
X117578845Y-83199500D01*
X117578842Y-83199500D01*
X117421158Y-83199500D01*
X117421155Y-83199500D01*
X117266510Y-83230261D01*
X117266498Y-83230264D01*
X117120827Y-83290602D01*
X117120814Y-83290609D01*
X117004088Y-83368604D01*
X116937410Y-83389482D01*
X116870030Y-83370997D01*
X116823340Y-83319019D01*
X116817266Y-83303820D01*
X116817246Y-83303757D01*
X116751557Y-83101588D01*
X116655051Y-82912184D01*
X116655049Y-82912181D01*
X116655048Y-82912179D01*
X116530109Y-82740213D01*
X116379786Y-82589890D01*
X116207820Y-82464951D01*
X116207115Y-82464591D01*
X116199054Y-82460485D01*
X116148259Y-82412512D01*
X116131463Y-82344692D01*
X116153999Y-82278556D01*
X116199054Y-82239515D01*
X116207816Y-82235051D01*
X116256748Y-82199500D01*
X116379786Y-82110109D01*
X116379788Y-82110106D01*
X116379792Y-82110104D01*
X116530104Y-81959792D01*
X116530106Y-81959788D01*
X116530109Y-81959786D01*
X116655048Y-81787820D01*
X116655047Y-81787820D01*
X116655051Y-81787816D01*
X116751557Y-81598412D01*
X116817246Y-81396243D01*
X116850500Y-81186287D01*
X116850500Y-80973713D01*
X116817246Y-80763757D01*
X116751557Y-80561588D01*
X116655051Y-80372184D01*
X116655049Y-80372181D01*
X116655048Y-80372179D01*
X116530109Y-80200213D01*
X116379786Y-80049890D01*
X116207820Y-79924951D01*
X116207115Y-79924591D01*
X116199054Y-79920485D01*
X116148259Y-79872512D01*
X116131463Y-79804692D01*
X116153999Y-79738556D01*
X116199054Y-79699515D01*
X116207816Y-79695051D01*
X116257918Y-79658650D01*
X116379786Y-79570109D01*
X116379788Y-79570106D01*
X116379792Y-79570104D01*
X116530104Y-79419792D01*
X116530106Y-79419788D01*
X116530109Y-79419786D01*
X116655048Y-79247820D01*
X116655047Y-79247820D01*
X116655051Y-79247816D01*
X116751557Y-79058412D01*
X116817246Y-78856243D01*
X116850500Y-78646287D01*
X116850500Y-78433713D01*
X116817246Y-78223757D01*
X116751557Y-78021588D01*
X116655051Y-77832184D01*
X116655049Y-77832181D01*
X116655048Y-77832179D01*
X116530109Y-77660213D01*
X116416569Y-77546673D01*
X116383084Y-77485350D01*
X116388068Y-77415658D01*
X116429940Y-77359725D01*
X116460915Y-77342810D01*
X116592331Y-77293796D01*
X116707546Y-77207546D01*
X116793796Y-77092331D01*
X116844091Y-76957483D01*
X116850500Y-76897873D01*
X116850499Y-75102128D01*
X116844091Y-75042517D01*
X116803991Y-74935004D01*
X116793797Y-74907671D01*
X116793793Y-74907664D01*
X116707547Y-74792455D01*
X116707544Y-74792452D01*
X116615792Y-74723766D01*
X116573921Y-74667832D01*
X116568937Y-74598141D01*
X116602423Y-74536818D01*
X116663746Y-74503334D01*
X116690103Y-74500500D01*
X138875500Y-74500500D01*
X138942539Y-74520185D01*
G37*
%TD.AperFunction*%
%TA.AperFunction,Conductor*%
G36*
X118305703Y-85321134D02*
G01*
X118312181Y-85327166D01*
X119163247Y-86178232D01*
X119196732Y-86239555D01*
X119194782Y-86300024D01*
X119139614Y-86492832D01*
X119139613Y-86492836D01*
X119129000Y-86612216D01*
X119129000Y-87728278D01*
X119129001Y-87728284D01*
X119139613Y-87847665D01*
X119195589Y-88043295D01*
X119195590Y-88043298D01*
X119195591Y-88043299D01*
X119289802Y-88223657D01*
X119317616Y-88257768D01*
X119402515Y-88361889D01*
X119429624Y-88426286D01*
X119417615Y-88495115D01*
X119402515Y-88518611D01*
X119289804Y-88656840D01*
X119195589Y-88837204D01*
X119169275Y-88929172D01*
X119143325Y-89019862D01*
X119105959Y-89078899D01*
X119042605Y-89108363D01*
X119024110Y-89109750D01*
X119010347Y-89109750D01*
X118943308Y-89090065D01*
X118922666Y-89073431D01*
X118136819Y-88287584D01*
X118103334Y-88226261D01*
X118100500Y-88199903D01*
X118100500Y-85414847D01*
X118120185Y-85347808D01*
X118172989Y-85302053D01*
X118242147Y-85292109D01*
X118305703Y-85321134D01*
G37*
%TD.AperFunction*%
%TD*%
M02*
