M48
; DRILL file KiCad 10.0.1-10.0.1~ubuntu24.04.1 date 2026-04-20T18:18:26
; FORMAT={-:-/ absolute / metric / decimal}
; #@! TF.CreationDate,2026-04-20T18:18:26-07:00
; #@! TF.GenerationSoftware,Kicad,Pcbnew,10.0.1-10.0.1~ubuntu24.04.1
; #@! TF.FileFunction,Plated,1,2,PTH
FMAT,2
METRIC
; #@! TA.AperFunction,Plated,PTH,ViaDrill
T1C0.300
; #@! TA.AperFunction,Plated,PTH,ViaDrill
T2C0.400
; #@! TA.AperFunction,Plated,PTH,ViaDrill
T3C0.500
; #@! TA.AperFunction,Plated,PTH,ViaDrill
T4C0.600
; #@! TA.AperFunction,Plated,PTH,ComponentDrill
T5C0.750
; #@! TA.AperFunction,Plated,PTH,ViaDrill
T6C0.800
; #@! TA.AperFunction,Plated,PTH,ViaDrill
T7C1.000
; #@! TA.AperFunction,Plated,PTH,ComponentDrill
T8C1.000
; #@! TA.AperFunction,Plated,PTH,ComponentDrill
T9C1.100
; #@! TA.AperFunction,Plated,PTH,ComponentDrill
T10C6.400
%
G90
G05
T1
X117.5Y-84.0
X118.3Y-82.0
X118.4Y-79.516
X118.5Y-77.1
X118.5Y-78.0
X123.0Y-81.5
X123.6Y-85.0
X124.0Y-84.0
X124.64Y-100.36
X125.9Y-83.625
X126.566Y-84.566
X127.0Y-87.0
X127.093Y-80.515
X127.4Y-83.0
X127.5Y-81.5
X128.45Y-88.55
X128.5Y-103.5
X129.0Y-83.0
X133.5Y-97.0
X135.0Y-89.71
X135.0Y-92.25
T2
X118.2Y-85.356
X119.0Y-88.5
X121.637Y-93.95
X123.0Y-77.812
X126.73Y-94.0
X131.5Y-77.5
X131.606Y-93.5
X135.0Y-81.0
T3
X127.434Y-90.566
T4
X119.0Y-104.9
X120.0Y-96.0
X123.9Y-89.0
X130.5Y-85.5
X133.5Y-82.5
T5
X125.73Y-100.36
X127.0Y-100.36
X128.27Y-100.36
T6
X126.0Y-96.0
X126.5Y-107.0
X135.5Y-96.0
X137.0Y-104.5
T7
X137.169Y-79.55
T8
X115.5Y-76.0
X115.5Y-78.54
X115.5Y-81.08
X115.5Y-83.62
X115.5Y-86.16
X115.5Y-88.7
X115.5Y-91.24
X115.5Y-93.78
X115.5Y-96.32
X115.5Y-100.5
X118.04Y-100.5
X120.58Y-100.5
X126.5Y-111.0
X132.96Y-101.0
X135.5Y-98.5
X135.5Y-101.0
X138.04Y-101.0
T9
X116.42Y-107.5
X118.96Y-107.5
X121.5Y-107.5
X131.46Y-107.45
X134.0Y-107.45
X136.54Y-107.45
T10
X119.0Y-118.0
X134.0Y-118.0
M30
