%TF.GenerationSoftware,KiCad,Pcbnew,10.0.0-10.0.0~ubuntu24.04.1*%
%TF.CreationDate,2026-04-03T21:22:07-07:00*%
%TF.ProjectId,fast_fet_switch,66617374-5f66-4657-945f-737769746368,rev?*%
%TF.SameCoordinates,Original*%
%TF.FileFunction,Legend,Bot*%
%TF.FilePolarity,Positive*%
%FSLAX46Y46*%
G04 Gerber Fmt 4.6, Leading zero omitted, Abs format (unit mm)*
G04 Created by KiCad (PCBNEW 10.0.0-10.0.0~ubuntu24.04.1) date 2026-04-03 21:22:07*
%MOMM*%
%LPD*%
G01*
G04 APERTURE LIST*
%ADD10C,0.150000*%
%ADD11C,0.120000*%
G04 APERTURE END LIST*
D10*
X125986666Y-89359580D02*
X126034285Y-89407200D01*
X126034285Y-89407200D02*
X126177142Y-89454819D01*
X126177142Y-89454819D02*
X126272380Y-89454819D01*
X126272380Y-89454819D02*
X126415237Y-89407200D01*
X126415237Y-89407200D02*
X126510475Y-89311961D01*
X126510475Y-89311961D02*
X126558094Y-89216723D01*
X126558094Y-89216723D02*
X126605713Y-89026247D01*
X126605713Y-89026247D02*
X126605713Y-88883390D01*
X126605713Y-88883390D02*
X126558094Y-88692914D01*
X126558094Y-88692914D02*
X126510475Y-88597676D01*
X126510475Y-88597676D02*
X126415237Y-88502438D01*
X126415237Y-88502438D02*
X126272380Y-88454819D01*
X126272380Y-88454819D02*
X126177142Y-88454819D01*
X126177142Y-88454819D02*
X126034285Y-88502438D01*
X126034285Y-88502438D02*
X125986666Y-88550057D01*
X125605713Y-88550057D02*
X125558094Y-88502438D01*
X125558094Y-88502438D02*
X125462856Y-88454819D01*
X125462856Y-88454819D02*
X125224761Y-88454819D01*
X125224761Y-88454819D02*
X125129523Y-88502438D01*
X125129523Y-88502438D02*
X125081904Y-88550057D01*
X125081904Y-88550057D02*
X125034285Y-88645295D01*
X125034285Y-88645295D02*
X125034285Y-88740533D01*
X125034285Y-88740533D02*
X125081904Y-88883390D01*
X125081904Y-88883390D02*
X125653332Y-89454819D01*
X125653332Y-89454819D02*
X125034285Y-89454819D01*
X137321666Y-94904819D02*
X137654999Y-94428628D01*
X137893094Y-94904819D02*
X137893094Y-93904819D01*
X137893094Y-93904819D02*
X137512142Y-93904819D01*
X137512142Y-93904819D02*
X137416904Y-93952438D01*
X137416904Y-93952438D02*
X137369285Y-94000057D01*
X137369285Y-94000057D02*
X137321666Y-94095295D01*
X137321666Y-94095295D02*
X137321666Y-94238152D01*
X137321666Y-94238152D02*
X137369285Y-94333390D01*
X137369285Y-94333390D02*
X137416904Y-94381009D01*
X137416904Y-94381009D02*
X137512142Y-94428628D01*
X137512142Y-94428628D02*
X137893094Y-94428628D01*
X136988332Y-93904819D02*
X136369285Y-93904819D01*
X136369285Y-93904819D02*
X136702618Y-94285771D01*
X136702618Y-94285771D02*
X136559761Y-94285771D01*
X136559761Y-94285771D02*
X136464523Y-94333390D01*
X136464523Y-94333390D02*
X136416904Y-94381009D01*
X136416904Y-94381009D02*
X136369285Y-94476247D01*
X136369285Y-94476247D02*
X136369285Y-94714342D01*
X136369285Y-94714342D02*
X136416904Y-94809580D01*
X136416904Y-94809580D02*
X136464523Y-94857200D01*
X136464523Y-94857200D02*
X136559761Y-94904819D01*
X136559761Y-94904819D02*
X136845475Y-94904819D01*
X136845475Y-94904819D02*
X136940713Y-94857200D01*
X136940713Y-94857200D02*
X136988332Y-94809580D01*
X123761904Y-75254819D02*
X123761904Y-76064342D01*
X123761904Y-76064342D02*
X123714285Y-76159580D01*
X123714285Y-76159580D02*
X123666666Y-76207200D01*
X123666666Y-76207200D02*
X123571428Y-76254819D01*
X123571428Y-76254819D02*
X123380952Y-76254819D01*
X123380952Y-76254819D02*
X123285714Y-76207200D01*
X123285714Y-76207200D02*
X123238095Y-76159580D01*
X123238095Y-76159580D02*
X123190476Y-76064342D01*
X123190476Y-76064342D02*
X123190476Y-75254819D01*
X122190476Y-76254819D02*
X122761904Y-76254819D01*
X122476190Y-76254819D02*
X122476190Y-75254819D01*
X122476190Y-75254819D02*
X122571428Y-75397676D01*
X122571428Y-75397676D02*
X122666666Y-75492914D01*
X122666666Y-75492914D02*
X122761904Y-75540533D01*
X118261904Y-92454819D02*
X118261904Y-93264342D01*
X118261904Y-93264342D02*
X118214285Y-93359580D01*
X118214285Y-93359580D02*
X118166666Y-93407200D01*
X118166666Y-93407200D02*
X118071428Y-93454819D01*
X118071428Y-93454819D02*
X117880952Y-93454819D01*
X117880952Y-93454819D02*
X117785714Y-93407200D01*
X117785714Y-93407200D02*
X117738095Y-93359580D01*
X117738095Y-93359580D02*
X117690476Y-93264342D01*
X117690476Y-93264342D02*
X117690476Y-92454819D01*
X116738095Y-92454819D02*
X117214285Y-92454819D01*
X117214285Y-92454819D02*
X117261904Y-92931009D01*
X117261904Y-92931009D02*
X117214285Y-92883390D01*
X117214285Y-92883390D02*
X117119047Y-92835771D01*
X117119047Y-92835771D02*
X116880952Y-92835771D01*
X116880952Y-92835771D02*
X116785714Y-92883390D01*
X116785714Y-92883390D02*
X116738095Y-92931009D01*
X116738095Y-92931009D02*
X116690476Y-93026247D01*
X116690476Y-93026247D02*
X116690476Y-93264342D01*
X116690476Y-93264342D02*
X116738095Y-93359580D01*
X116738095Y-93359580D02*
X116785714Y-93407200D01*
X116785714Y-93407200D02*
X116880952Y-93454819D01*
X116880952Y-93454819D02*
X117119047Y-93454819D01*
X117119047Y-93454819D02*
X117214285Y-93407200D01*
X117214285Y-93407200D02*
X117261904Y-93359580D01*
X132011666Y-98504819D02*
X132344999Y-98028628D01*
X132583094Y-98504819D02*
X132583094Y-97504819D01*
X132583094Y-97504819D02*
X132202142Y-97504819D01*
X132202142Y-97504819D02*
X132106904Y-97552438D01*
X132106904Y-97552438D02*
X132059285Y-97600057D01*
X132059285Y-97600057D02*
X132011666Y-97695295D01*
X132011666Y-97695295D02*
X132011666Y-97838152D01*
X132011666Y-97838152D02*
X132059285Y-97933390D01*
X132059285Y-97933390D02*
X132106904Y-97981009D01*
X132106904Y-97981009D02*
X132202142Y-98028628D01*
X132202142Y-98028628D02*
X132583094Y-98028628D01*
X131630713Y-97600057D02*
X131583094Y-97552438D01*
X131583094Y-97552438D02*
X131487856Y-97504819D01*
X131487856Y-97504819D02*
X131249761Y-97504819D01*
X131249761Y-97504819D02*
X131154523Y-97552438D01*
X131154523Y-97552438D02*
X131106904Y-97600057D01*
X131106904Y-97600057D02*
X131059285Y-97695295D01*
X131059285Y-97695295D02*
X131059285Y-97790533D01*
X131059285Y-97790533D02*
X131106904Y-97933390D01*
X131106904Y-97933390D02*
X131678332Y-98504819D01*
X131678332Y-98504819D02*
X131059285Y-98504819D01*
X120346666Y-89809580D02*
X120394285Y-89857200D01*
X120394285Y-89857200D02*
X120537142Y-89904819D01*
X120537142Y-89904819D02*
X120632380Y-89904819D01*
X120632380Y-89904819D02*
X120775237Y-89857200D01*
X120775237Y-89857200D02*
X120870475Y-89761961D01*
X120870475Y-89761961D02*
X120918094Y-89666723D01*
X120918094Y-89666723D02*
X120965713Y-89476247D01*
X120965713Y-89476247D02*
X120965713Y-89333390D01*
X120965713Y-89333390D02*
X120918094Y-89142914D01*
X120918094Y-89142914D02*
X120870475Y-89047676D01*
X120870475Y-89047676D02*
X120775237Y-88952438D01*
X120775237Y-88952438D02*
X120632380Y-88904819D01*
X120632380Y-88904819D02*
X120537142Y-88904819D01*
X120537142Y-88904819D02*
X120394285Y-88952438D01*
X120394285Y-88952438D02*
X120346666Y-89000057D01*
X119394285Y-89904819D02*
X119965713Y-89904819D01*
X119679999Y-89904819D02*
X119679999Y-88904819D01*
X119679999Y-88904819D02*
X119775237Y-89047676D01*
X119775237Y-89047676D02*
X119870475Y-89142914D01*
X119870475Y-89142914D02*
X119965713Y-89190533D01*
X130261904Y-92454819D02*
X130261904Y-93264342D01*
X130261904Y-93264342D02*
X130214285Y-93359580D01*
X130214285Y-93359580D02*
X130166666Y-93407200D01*
X130166666Y-93407200D02*
X130071428Y-93454819D01*
X130071428Y-93454819D02*
X129880952Y-93454819D01*
X129880952Y-93454819D02*
X129785714Y-93407200D01*
X129785714Y-93407200D02*
X129738095Y-93359580D01*
X129738095Y-93359580D02*
X129690476Y-93264342D01*
X129690476Y-93264342D02*
X129690476Y-92454819D01*
X129261904Y-92550057D02*
X129214285Y-92502438D01*
X129214285Y-92502438D02*
X129119047Y-92454819D01*
X129119047Y-92454819D02*
X128880952Y-92454819D01*
X128880952Y-92454819D02*
X128785714Y-92502438D01*
X128785714Y-92502438D02*
X128738095Y-92550057D01*
X128738095Y-92550057D02*
X128690476Y-92645295D01*
X128690476Y-92645295D02*
X128690476Y-92740533D01*
X128690476Y-92740533D02*
X128738095Y-92883390D01*
X128738095Y-92883390D02*
X129309523Y-93454819D01*
X129309523Y-93454819D02*
X128690476Y-93454819D01*
%TO.C,U1*%
D11*
X120690000Y-83385000D02*
X125310000Y-83385000D01*
X125310000Y-76615000D02*
X120690000Y-76615000D01*
X127190000Y-77310000D02*
X126860000Y-77070000D01*
X127190000Y-76830000D01*
X127190000Y-77310000D01*
G36*
X127190000Y-77310000D02*
G01*
X126860000Y-77070000D01*
X127190000Y-76830000D01*
X127190000Y-77310000D01*
G37*
%TO.C,U5*%
X119590000Y-91440000D02*
X119590000Y-91490000D01*
X119590000Y-92610000D02*
X119590000Y-93390000D01*
X119590000Y-94510000D02*
X119590000Y-94560000D01*
X119590000Y-94560000D02*
X121410000Y-94560000D01*
X121410000Y-91440000D02*
X119590000Y-91440000D01*
X121410000Y-91490000D02*
X121410000Y-91440000D01*
X121410000Y-94560000D02*
X121410000Y-94510000D01*
X121950000Y-91490000D02*
X121710000Y-91160000D01*
X122190000Y-91160000D01*
X121950000Y-91490000D01*
G36*
X121950000Y-91490000D02*
G01*
X121710000Y-91160000D01*
X122190000Y-91160000D01*
X121950000Y-91490000D01*
G37*
%TO.C,U2*%
X125090000Y-91440000D02*
X125090000Y-91490000D01*
X125090000Y-92610000D02*
X125090000Y-93390000D01*
X125090000Y-94510000D02*
X125090000Y-94560000D01*
X125090000Y-94560000D02*
X126910000Y-94560000D01*
X126910000Y-91440000D02*
X125090000Y-91440000D01*
X126910000Y-91490000D02*
X126910000Y-91440000D01*
X126910000Y-94560000D02*
X126910000Y-94510000D01*
X127450000Y-91490000D02*
X127210000Y-91160000D01*
X127690000Y-91160000D01*
X127450000Y-91490000D01*
G36*
X127450000Y-91490000D02*
G01*
X127210000Y-91160000D01*
X127690000Y-91160000D01*
X127450000Y-91490000D01*
G37*
%TD*%
M02*
